M48
; DRILL file {KiCad (5.1.6)-1} date 09/24/20 21:49:03
; FORMAT={-:-/ absolute / inch / decimal}
; #@! TF.CreationDate,2020-09-24T21:49:03+02:00
; #@! TF.GenerationSoftware,Kicad,Pcbnew,(5.1.6)-1
; #@! TF.FileFunction,Plated,1,2,PTH
FMAT,2
INCH
T1C0.0118
T2C0.0157
T3C0.0300
%
G90
G05
T1
X4.66Y-3.7811
X4.78Y-3.7811
T2
X4.97Y-3.8
X5.03Y-3.81
X5.07Y-3.84
X5.12Y-3.61
X5.12Y-3.84
X5.27Y-3.73
X5.34Y-3.88
X5.4Y-3.88
X5.43Y-3.52
X5.45Y-3.61
X5.46Y-3.88
X5.52Y-3.88
X5.62Y-3.6
X5.68Y-3.6
X5.74Y-3.6
X5.8Y-3.6
X6.29Y-3.67
T3
X5.17Y-3.35
X5.17Y-4.35
X5.27Y-3.35
X5.27Y-4.35
X5.37Y-3.35
X5.37Y-4.35
X5.47Y-3.35
X5.47Y-4.35
X5.57Y-3.35
X5.57Y-4.35
X5.67Y-3.35
X5.67Y-4.35
X5.77Y-3.35
X5.77Y-4.35
X5.87Y-3.35
X5.87Y-4.35
X5.97Y-3.35
X5.97Y-4.35
X6.07Y-3.35
X6.07Y-4.35
X6.17Y-3.35
X6.17Y-4.35
X6.27Y-3.35
X6.27Y-4.35
X6.37Y-3.35
X6.37Y-4.35
X6.47Y-3.35
X6.47Y-4.35
X6.57Y-3.35
X6.57Y-4.35
T0
M30
