G04 #@! TF.GenerationSoftware,KiCad,Pcbnew,(5.1.6)-1*
G04 #@! TF.CreationDate,2020-09-24T21:49:11+02:00*
G04 #@! TF.ProjectId,Brewnode_MCU_Adapter,42726577-6e6f-4646-955f-4d43555f4164,rev?*
G04 #@! TF.SameCoordinates,Original*
G04 #@! TF.FileFunction,Soldermask,Top*
G04 #@! TF.FilePolarity,Negative*
%FSLAX46Y46*%
G04 Gerber Fmt 4.6, Leading zero omitted, Abs format (unit mm)*
G04 Created by KiCad (PCBNEW (5.1.6)-1) date 2020-09-24 21:49:11*
%MOMM*%
%LPD*%
G01*
G04 APERTURE LIST*
%ADD10C,4.000000*%
%ADD11C,1.524000*%
%ADD12R,1.524000X1.524000*%
%ADD13R,0.800000X0.800000*%
%ADD14R,0.800000X0.250000*%
G04 APERTURE END LIST*
D10*
X181102000Y-110490000D03*
X120904000Y-110490000D03*
X120904000Y-85090000D03*
X181102000Y-85090000D03*
D11*
X131318000Y-85090000D03*
X133858000Y-85090000D03*
X136398000Y-85090000D03*
X138938000Y-85090000D03*
X141478000Y-85090000D03*
X144018000Y-85090000D03*
X146558000Y-85090000D03*
X149098000Y-85090000D03*
X151638000Y-85090000D03*
X154178000Y-85090000D03*
X156718000Y-85090000D03*
X159258000Y-85090000D03*
X161798000Y-85090000D03*
X164338000Y-85090000D03*
X166878000Y-85090000D03*
X166878000Y-110490000D03*
X164338000Y-110490000D03*
X161798000Y-110490000D03*
X159258000Y-110490000D03*
X156718000Y-110490000D03*
X154178000Y-110490000D03*
X151638000Y-110490000D03*
X149098000Y-110490000D03*
X146558000Y-110490000D03*
X144018000Y-110490000D03*
X141478000Y-110490000D03*
X138938000Y-110490000D03*
X136398000Y-110490000D03*
X133858000Y-110490000D03*
D12*
X131318000Y-110490000D03*
D13*
X117388000Y-103140000D03*
X117388000Y-92440000D03*
D14*
X119888000Y-101540000D03*
X119888000Y-101040000D03*
X119888000Y-100540000D03*
X119888000Y-100040000D03*
X119888000Y-99540000D03*
X119888000Y-99040000D03*
X119888000Y-98540000D03*
X119888000Y-98040000D03*
X119888000Y-97540000D03*
X119888000Y-97040000D03*
X119888000Y-96540000D03*
X119888000Y-96040000D03*
X119888000Y-95540000D03*
X119888000Y-95040000D03*
X119888000Y-94540000D03*
X119888000Y-94040000D03*
M02*
