G04 #@! TF.GenerationSoftware,KiCad,Pcbnew,(5.1.6)-1*
G04 #@! TF.CreationDate,2020-09-24T21:49:11+02:00*
G04 #@! TF.ProjectId,Brewnode_MCU_Adapter,42726577-6e6f-4646-955f-4d43555f4164,rev?*
G04 #@! TF.SameCoordinates,Original*
G04 #@! TF.FileFunction,Copper,L2,Bot*
G04 #@! TF.FilePolarity,Positive*
%FSLAX46Y46*%
G04 Gerber Fmt 4.6, Leading zero omitted, Abs format (unit mm)*
G04 Created by KiCad (PCBNEW (5.1.6)-1) date 2020-09-24 21:49:11*
%MOMM*%
%LPD*%
G01*
G04 APERTURE LIST*
G04 #@! TA.AperFunction,ComponentPad*
%ADD10C,1.524000*%
G04 #@! TD*
G04 #@! TA.AperFunction,ComponentPad*
%ADD11R,1.524000X1.524000*%
G04 #@! TD*
G04 #@! TA.AperFunction,ViaPad*
%ADD12C,0.800000*%
G04 #@! TD*
G04 #@! TA.AperFunction,ViaPad*
%ADD13C,0.600000*%
G04 #@! TD*
G04 #@! TA.AperFunction,Conductor*
%ADD14C,0.304800*%
G04 #@! TD*
G04 #@! TA.AperFunction,Conductor*
%ADD15C,0.254000*%
G04 #@! TD*
G04 #@! TA.AperFunction,Conductor*
%ADD16C,1.270000*%
G04 #@! TD*
G04 APERTURE END LIST*
D10*
X131318000Y-85090000D03*
X133858000Y-85090000D03*
X136398000Y-85090000D03*
X138938000Y-85090000D03*
X141478000Y-85090000D03*
X144018000Y-85090000D03*
X146558000Y-85090000D03*
X149098000Y-85090000D03*
X151638000Y-85090000D03*
X154178000Y-85090000D03*
X156718000Y-85090000D03*
X159258000Y-85090000D03*
X161798000Y-85090000D03*
X164338000Y-85090000D03*
X166878000Y-85090000D03*
X166878000Y-110490000D03*
X164338000Y-110490000D03*
X161798000Y-110490000D03*
X159258000Y-110490000D03*
X156718000Y-110490000D03*
X154178000Y-110490000D03*
X151638000Y-110490000D03*
X149098000Y-110490000D03*
X146558000Y-110490000D03*
X144018000Y-110490000D03*
X141478000Y-110490000D03*
X138938000Y-110490000D03*
X136398000Y-110490000D03*
X133858000Y-110490000D03*
D11*
X131318000Y-110490000D03*
D12*
X140208000Y-98552000D03*
X147320000Y-91440000D03*
X138684000Y-98552000D03*
X145796000Y-91440000D03*
X137160000Y-98552000D03*
X144272000Y-91440000D03*
X135636000Y-98552000D03*
X142748000Y-91440000D03*
X130048000Y-97536000D03*
X138430000Y-91694000D03*
X128778000Y-97536000D03*
X137922000Y-89408000D03*
X127762000Y-96774000D03*
X133858000Y-94742000D03*
X126238000Y-96520000D03*
X130048000Y-91694000D03*
D13*
X118364000Y-96040000D03*
X121412000Y-96040000D03*
D12*
X159766000Y-93218000D03*
D14*
X140208000Y-98552000D02*
X147320000Y-91440000D01*
X138684000Y-98552000D02*
X145796000Y-91440000D01*
X137160000Y-98552000D02*
X144272000Y-91440000D01*
X135636000Y-98552000D02*
X142748000Y-91440000D01*
D15*
X130048000Y-97536000D02*
X134874000Y-97536000D01*
X134874000Y-97536000D02*
X138430000Y-93980000D01*
X138430000Y-93980000D02*
X138430000Y-91694000D01*
X128778000Y-97536000D02*
X130048000Y-96266000D01*
X130048000Y-96266000D02*
X133409962Y-96266000D01*
X133409962Y-96266000D02*
X134620000Y-96266000D01*
X134620000Y-96266000D02*
X135636000Y-95250000D01*
X135636000Y-95250000D02*
X135636000Y-91694000D01*
X135636000Y-91694000D02*
X137922000Y-89408000D01*
X127762000Y-96774000D02*
X130048000Y-94488000D01*
X130048000Y-94488000D02*
X133604000Y-94488000D01*
X133604000Y-94488000D02*
X133858000Y-94742000D01*
X126238000Y-96520000D02*
X126238000Y-95504000D01*
X126238000Y-95504000D02*
X130048000Y-91694000D01*
D16*
X166878000Y-110490000D02*
X166878000Y-97536000D01*
X166878000Y-97536000D02*
X162560000Y-93218000D01*
X162560000Y-93218000D02*
X159766000Y-93218000D01*
D15*
G36*
X186259000Y-114885000D02*
G01*
X115493000Y-114885000D01*
X115493000Y-110230475D01*
X118269000Y-110230475D01*
X118269000Y-110749525D01*
X118370261Y-111258601D01*
X118568893Y-111738141D01*
X118857262Y-112169715D01*
X119224285Y-112536738D01*
X119655859Y-112825107D01*
X120135399Y-113023739D01*
X120644475Y-113125000D01*
X121163525Y-113125000D01*
X121672601Y-113023739D01*
X122152141Y-112825107D01*
X122583715Y-112536738D01*
X122950738Y-112169715D01*
X123239107Y-111738141D01*
X123437739Y-111258601D01*
X123539000Y-110749525D01*
X123539000Y-110230475D01*
X123439053Y-109728000D01*
X129917928Y-109728000D01*
X129917928Y-111252000D01*
X129930188Y-111376482D01*
X129966498Y-111496180D01*
X130025463Y-111606494D01*
X130104815Y-111703185D01*
X130201506Y-111782537D01*
X130311820Y-111841502D01*
X130431518Y-111877812D01*
X130556000Y-111890072D01*
X132080000Y-111890072D01*
X132204482Y-111877812D01*
X132324180Y-111841502D01*
X132434494Y-111782537D01*
X132531185Y-111703185D01*
X132610537Y-111606494D01*
X132669502Y-111496180D01*
X132705812Y-111376482D01*
X132714080Y-111292535D01*
X132772880Y-111380535D01*
X132967465Y-111575120D01*
X133196273Y-111728005D01*
X133450510Y-111833314D01*
X133720408Y-111887000D01*
X133995592Y-111887000D01*
X134265490Y-111833314D01*
X134519727Y-111728005D01*
X134748535Y-111575120D01*
X134943120Y-111380535D01*
X135096005Y-111151727D01*
X135128000Y-111074485D01*
X135159995Y-111151727D01*
X135312880Y-111380535D01*
X135507465Y-111575120D01*
X135736273Y-111728005D01*
X135990510Y-111833314D01*
X136260408Y-111887000D01*
X136535592Y-111887000D01*
X136805490Y-111833314D01*
X137059727Y-111728005D01*
X137288535Y-111575120D01*
X137483120Y-111380535D01*
X137636005Y-111151727D01*
X137668000Y-111074485D01*
X137699995Y-111151727D01*
X137852880Y-111380535D01*
X138047465Y-111575120D01*
X138276273Y-111728005D01*
X138530510Y-111833314D01*
X138800408Y-111887000D01*
X139075592Y-111887000D01*
X139345490Y-111833314D01*
X139599727Y-111728005D01*
X139828535Y-111575120D01*
X140023120Y-111380535D01*
X140176005Y-111151727D01*
X140208000Y-111074485D01*
X140239995Y-111151727D01*
X140392880Y-111380535D01*
X140587465Y-111575120D01*
X140816273Y-111728005D01*
X141070510Y-111833314D01*
X141340408Y-111887000D01*
X141615592Y-111887000D01*
X141885490Y-111833314D01*
X142139727Y-111728005D01*
X142368535Y-111575120D01*
X142563120Y-111380535D01*
X142716005Y-111151727D01*
X142748000Y-111074485D01*
X142779995Y-111151727D01*
X142932880Y-111380535D01*
X143127465Y-111575120D01*
X143356273Y-111728005D01*
X143610510Y-111833314D01*
X143880408Y-111887000D01*
X144155592Y-111887000D01*
X144425490Y-111833314D01*
X144679727Y-111728005D01*
X144908535Y-111575120D01*
X145103120Y-111380535D01*
X145256005Y-111151727D01*
X145288000Y-111074485D01*
X145319995Y-111151727D01*
X145472880Y-111380535D01*
X145667465Y-111575120D01*
X145896273Y-111728005D01*
X146150510Y-111833314D01*
X146420408Y-111887000D01*
X146695592Y-111887000D01*
X146965490Y-111833314D01*
X147219727Y-111728005D01*
X147448535Y-111575120D01*
X147643120Y-111380535D01*
X147796005Y-111151727D01*
X147828000Y-111074485D01*
X147859995Y-111151727D01*
X148012880Y-111380535D01*
X148207465Y-111575120D01*
X148436273Y-111728005D01*
X148690510Y-111833314D01*
X148960408Y-111887000D01*
X149235592Y-111887000D01*
X149505490Y-111833314D01*
X149759727Y-111728005D01*
X149988535Y-111575120D01*
X150183120Y-111380535D01*
X150336005Y-111151727D01*
X150368000Y-111074485D01*
X150399995Y-111151727D01*
X150552880Y-111380535D01*
X150747465Y-111575120D01*
X150976273Y-111728005D01*
X151230510Y-111833314D01*
X151500408Y-111887000D01*
X151775592Y-111887000D01*
X152045490Y-111833314D01*
X152299727Y-111728005D01*
X152528535Y-111575120D01*
X152723120Y-111380535D01*
X152876005Y-111151727D01*
X152908000Y-111074485D01*
X152939995Y-111151727D01*
X153092880Y-111380535D01*
X153287465Y-111575120D01*
X153516273Y-111728005D01*
X153770510Y-111833314D01*
X154040408Y-111887000D01*
X154315592Y-111887000D01*
X154585490Y-111833314D01*
X154839727Y-111728005D01*
X155068535Y-111575120D01*
X155263120Y-111380535D01*
X155416005Y-111151727D01*
X155448000Y-111074485D01*
X155479995Y-111151727D01*
X155632880Y-111380535D01*
X155827465Y-111575120D01*
X156056273Y-111728005D01*
X156310510Y-111833314D01*
X156580408Y-111887000D01*
X156855592Y-111887000D01*
X157125490Y-111833314D01*
X157379727Y-111728005D01*
X157608535Y-111575120D01*
X157803120Y-111380535D01*
X157956005Y-111151727D01*
X157988000Y-111074485D01*
X158019995Y-111151727D01*
X158172880Y-111380535D01*
X158367465Y-111575120D01*
X158596273Y-111728005D01*
X158850510Y-111833314D01*
X159120408Y-111887000D01*
X159395592Y-111887000D01*
X159665490Y-111833314D01*
X159919727Y-111728005D01*
X160148535Y-111575120D01*
X160343120Y-111380535D01*
X160496005Y-111151727D01*
X160528000Y-111074485D01*
X160559995Y-111151727D01*
X160712880Y-111380535D01*
X160907465Y-111575120D01*
X161136273Y-111728005D01*
X161390510Y-111833314D01*
X161660408Y-111887000D01*
X161935592Y-111887000D01*
X162205490Y-111833314D01*
X162459727Y-111728005D01*
X162688535Y-111575120D01*
X162808090Y-111455565D01*
X163552040Y-111455565D01*
X163619020Y-111695656D01*
X163868048Y-111812756D01*
X164135135Y-111879023D01*
X164410017Y-111891910D01*
X164682133Y-111850922D01*
X164941023Y-111757636D01*
X165056980Y-111695656D01*
X165123960Y-111455565D01*
X164338000Y-110669605D01*
X163552040Y-111455565D01*
X162808090Y-111455565D01*
X162883120Y-111380535D01*
X163036005Y-111151727D01*
X163065692Y-111080057D01*
X163070364Y-111093023D01*
X163132344Y-111208980D01*
X163372435Y-111275960D01*
X164158395Y-110490000D01*
X163372435Y-109704040D01*
X163132344Y-109771020D01*
X163068515Y-109906760D01*
X163036005Y-109828273D01*
X162883120Y-109599465D01*
X162808090Y-109524435D01*
X163552040Y-109524435D01*
X164338000Y-110310395D01*
X165123960Y-109524435D01*
X165056980Y-109284344D01*
X164807952Y-109167244D01*
X164540865Y-109100977D01*
X164265983Y-109088090D01*
X163993867Y-109129078D01*
X163734977Y-109222364D01*
X163619020Y-109284344D01*
X163552040Y-109524435D01*
X162808090Y-109524435D01*
X162688535Y-109404880D01*
X162459727Y-109251995D01*
X162205490Y-109146686D01*
X161935592Y-109093000D01*
X161660408Y-109093000D01*
X161390510Y-109146686D01*
X161136273Y-109251995D01*
X160907465Y-109404880D01*
X160712880Y-109599465D01*
X160559995Y-109828273D01*
X160528000Y-109905515D01*
X160496005Y-109828273D01*
X160343120Y-109599465D01*
X160148535Y-109404880D01*
X159919727Y-109251995D01*
X159665490Y-109146686D01*
X159395592Y-109093000D01*
X159120408Y-109093000D01*
X158850510Y-109146686D01*
X158596273Y-109251995D01*
X158367465Y-109404880D01*
X158172880Y-109599465D01*
X158019995Y-109828273D01*
X157988000Y-109905515D01*
X157956005Y-109828273D01*
X157803120Y-109599465D01*
X157608535Y-109404880D01*
X157379727Y-109251995D01*
X157125490Y-109146686D01*
X156855592Y-109093000D01*
X156580408Y-109093000D01*
X156310510Y-109146686D01*
X156056273Y-109251995D01*
X155827465Y-109404880D01*
X155632880Y-109599465D01*
X155479995Y-109828273D01*
X155448000Y-109905515D01*
X155416005Y-109828273D01*
X155263120Y-109599465D01*
X155068535Y-109404880D01*
X154839727Y-109251995D01*
X154585490Y-109146686D01*
X154315592Y-109093000D01*
X154040408Y-109093000D01*
X153770510Y-109146686D01*
X153516273Y-109251995D01*
X153287465Y-109404880D01*
X153092880Y-109599465D01*
X152939995Y-109828273D01*
X152908000Y-109905515D01*
X152876005Y-109828273D01*
X152723120Y-109599465D01*
X152528535Y-109404880D01*
X152299727Y-109251995D01*
X152045490Y-109146686D01*
X151775592Y-109093000D01*
X151500408Y-109093000D01*
X151230510Y-109146686D01*
X150976273Y-109251995D01*
X150747465Y-109404880D01*
X150552880Y-109599465D01*
X150399995Y-109828273D01*
X150368000Y-109905515D01*
X150336005Y-109828273D01*
X150183120Y-109599465D01*
X149988535Y-109404880D01*
X149759727Y-109251995D01*
X149505490Y-109146686D01*
X149235592Y-109093000D01*
X148960408Y-109093000D01*
X148690510Y-109146686D01*
X148436273Y-109251995D01*
X148207465Y-109404880D01*
X148012880Y-109599465D01*
X147859995Y-109828273D01*
X147828000Y-109905515D01*
X147796005Y-109828273D01*
X147643120Y-109599465D01*
X147448535Y-109404880D01*
X147219727Y-109251995D01*
X146965490Y-109146686D01*
X146695592Y-109093000D01*
X146420408Y-109093000D01*
X146150510Y-109146686D01*
X145896273Y-109251995D01*
X145667465Y-109404880D01*
X145472880Y-109599465D01*
X145319995Y-109828273D01*
X145288000Y-109905515D01*
X145256005Y-109828273D01*
X145103120Y-109599465D01*
X144908535Y-109404880D01*
X144679727Y-109251995D01*
X144425490Y-109146686D01*
X144155592Y-109093000D01*
X143880408Y-109093000D01*
X143610510Y-109146686D01*
X143356273Y-109251995D01*
X143127465Y-109404880D01*
X142932880Y-109599465D01*
X142779995Y-109828273D01*
X142748000Y-109905515D01*
X142716005Y-109828273D01*
X142563120Y-109599465D01*
X142368535Y-109404880D01*
X142139727Y-109251995D01*
X141885490Y-109146686D01*
X141615592Y-109093000D01*
X141340408Y-109093000D01*
X141070510Y-109146686D01*
X140816273Y-109251995D01*
X140587465Y-109404880D01*
X140392880Y-109599465D01*
X140239995Y-109828273D01*
X140208000Y-109905515D01*
X140176005Y-109828273D01*
X140023120Y-109599465D01*
X139828535Y-109404880D01*
X139599727Y-109251995D01*
X139345490Y-109146686D01*
X139075592Y-109093000D01*
X138800408Y-109093000D01*
X138530510Y-109146686D01*
X138276273Y-109251995D01*
X138047465Y-109404880D01*
X137852880Y-109599465D01*
X137699995Y-109828273D01*
X137668000Y-109905515D01*
X137636005Y-109828273D01*
X137483120Y-109599465D01*
X137288535Y-109404880D01*
X137059727Y-109251995D01*
X136805490Y-109146686D01*
X136535592Y-109093000D01*
X136260408Y-109093000D01*
X135990510Y-109146686D01*
X135736273Y-109251995D01*
X135507465Y-109404880D01*
X135312880Y-109599465D01*
X135159995Y-109828273D01*
X135128000Y-109905515D01*
X135096005Y-109828273D01*
X134943120Y-109599465D01*
X134748535Y-109404880D01*
X134519727Y-109251995D01*
X134265490Y-109146686D01*
X133995592Y-109093000D01*
X133720408Y-109093000D01*
X133450510Y-109146686D01*
X133196273Y-109251995D01*
X132967465Y-109404880D01*
X132772880Y-109599465D01*
X132714080Y-109687465D01*
X132705812Y-109603518D01*
X132669502Y-109483820D01*
X132610537Y-109373506D01*
X132531185Y-109276815D01*
X132434494Y-109197463D01*
X132324180Y-109138498D01*
X132204482Y-109102188D01*
X132080000Y-109089928D01*
X130556000Y-109089928D01*
X130431518Y-109102188D01*
X130311820Y-109138498D01*
X130201506Y-109197463D01*
X130104815Y-109276815D01*
X130025463Y-109373506D01*
X129966498Y-109483820D01*
X129930188Y-109603518D01*
X129917928Y-109728000D01*
X123439053Y-109728000D01*
X123437739Y-109721399D01*
X123239107Y-109241859D01*
X122950738Y-108810285D01*
X122583715Y-108443262D01*
X122152141Y-108154893D01*
X121672601Y-107956261D01*
X121163525Y-107855000D01*
X120644475Y-107855000D01*
X120135399Y-107956261D01*
X119655859Y-108154893D01*
X119224285Y-108443262D01*
X118857262Y-108810285D01*
X118568893Y-109241859D01*
X118370261Y-109721399D01*
X118269000Y-110230475D01*
X115493000Y-110230475D01*
X115493000Y-96418061D01*
X125203000Y-96418061D01*
X125203000Y-96621939D01*
X125242774Y-96821898D01*
X125320795Y-97010256D01*
X125434063Y-97179774D01*
X125578226Y-97323937D01*
X125747744Y-97437205D01*
X125936102Y-97515226D01*
X126136061Y-97555000D01*
X126339939Y-97555000D01*
X126539898Y-97515226D01*
X126728256Y-97437205D01*
X126888716Y-97329989D01*
X126958063Y-97433774D01*
X127102226Y-97577937D01*
X127271744Y-97691205D01*
X127460102Y-97769226D01*
X127660061Y-97809000D01*
X127777026Y-97809000D01*
X127782774Y-97837898D01*
X127860795Y-98026256D01*
X127974063Y-98195774D01*
X128118226Y-98339937D01*
X128287744Y-98453205D01*
X128476102Y-98531226D01*
X128676061Y-98571000D01*
X128879939Y-98571000D01*
X129079898Y-98531226D01*
X129268256Y-98453205D01*
X129413000Y-98356490D01*
X129557744Y-98453205D01*
X129746102Y-98531226D01*
X129946061Y-98571000D01*
X130149939Y-98571000D01*
X130349898Y-98531226D01*
X130538256Y-98453205D01*
X130707774Y-98339937D01*
X130749711Y-98298000D01*
X134631247Y-98298000D01*
X134601000Y-98450061D01*
X134601000Y-98653939D01*
X134640774Y-98853898D01*
X134718795Y-99042256D01*
X134832063Y-99211774D01*
X134976226Y-99355937D01*
X135145744Y-99469205D01*
X135334102Y-99547226D01*
X135534061Y-99587000D01*
X135737939Y-99587000D01*
X135937898Y-99547226D01*
X136126256Y-99469205D01*
X136295774Y-99355937D01*
X136398000Y-99253711D01*
X136500226Y-99355937D01*
X136669744Y-99469205D01*
X136858102Y-99547226D01*
X137058061Y-99587000D01*
X137261939Y-99587000D01*
X137461898Y-99547226D01*
X137650256Y-99469205D01*
X137819774Y-99355937D01*
X137922000Y-99253711D01*
X138024226Y-99355937D01*
X138193744Y-99469205D01*
X138382102Y-99547226D01*
X138582061Y-99587000D01*
X138785939Y-99587000D01*
X138985898Y-99547226D01*
X139174256Y-99469205D01*
X139343774Y-99355937D01*
X139446000Y-99253711D01*
X139548226Y-99355937D01*
X139717744Y-99469205D01*
X139906102Y-99547226D01*
X140106061Y-99587000D01*
X140309939Y-99587000D01*
X140509898Y-99547226D01*
X140698256Y-99469205D01*
X140867774Y-99355937D01*
X141011937Y-99211774D01*
X141125205Y-99042256D01*
X141203226Y-98853898D01*
X141243000Y-98653939D01*
X141243000Y-98630550D01*
X146655550Y-93218000D01*
X158489856Y-93218000D01*
X158514377Y-93466963D01*
X158586997Y-93706359D01*
X158704925Y-93926988D01*
X158863630Y-94120370D01*
X159057012Y-94279075D01*
X159277641Y-94397003D01*
X159517037Y-94469623D01*
X159703620Y-94488000D01*
X162033950Y-94488000D01*
X165608001Y-98062052D01*
X165608000Y-109893538D01*
X165605636Y-109886977D01*
X165543656Y-109771020D01*
X165303565Y-109704040D01*
X164517605Y-110490000D01*
X165303565Y-111275960D01*
X165543656Y-111208980D01*
X165607485Y-111073240D01*
X165639995Y-111151727D01*
X165792880Y-111380535D01*
X165987465Y-111575120D01*
X166216273Y-111728005D01*
X166470510Y-111833314D01*
X166740408Y-111887000D01*
X167015592Y-111887000D01*
X167285490Y-111833314D01*
X167539727Y-111728005D01*
X167768535Y-111575120D01*
X167963120Y-111380535D01*
X168116005Y-111151727D01*
X168221314Y-110897490D01*
X168275000Y-110627592D01*
X168275000Y-110352408D01*
X168250747Y-110230475D01*
X178467000Y-110230475D01*
X178467000Y-110749525D01*
X178568261Y-111258601D01*
X178766893Y-111738141D01*
X179055262Y-112169715D01*
X179422285Y-112536738D01*
X179853859Y-112825107D01*
X180333399Y-113023739D01*
X180842475Y-113125000D01*
X181361525Y-113125000D01*
X181870601Y-113023739D01*
X182350141Y-112825107D01*
X182781715Y-112536738D01*
X183148738Y-112169715D01*
X183437107Y-111738141D01*
X183635739Y-111258601D01*
X183737000Y-110749525D01*
X183737000Y-110230475D01*
X183635739Y-109721399D01*
X183437107Y-109241859D01*
X183148738Y-108810285D01*
X182781715Y-108443262D01*
X182350141Y-108154893D01*
X181870601Y-107956261D01*
X181361525Y-107855000D01*
X180842475Y-107855000D01*
X180333399Y-107956261D01*
X179853859Y-108154893D01*
X179422285Y-108443262D01*
X179055262Y-108810285D01*
X178766893Y-109241859D01*
X178568261Y-109721399D01*
X178467000Y-110230475D01*
X168250747Y-110230475D01*
X168221314Y-110082510D01*
X168148000Y-109905515D01*
X168148000Y-97598372D01*
X168154143Y-97535999D01*
X168148000Y-97473626D01*
X168148000Y-97473620D01*
X168129623Y-97287037D01*
X168124751Y-97270974D01*
X168090069Y-97156645D01*
X168057003Y-97047641D01*
X167939075Y-96827012D01*
X167780370Y-96633630D01*
X167731914Y-96593863D01*
X163502141Y-92364091D01*
X163462370Y-92315630D01*
X163268988Y-92156925D01*
X163048359Y-92038997D01*
X162808963Y-91966377D01*
X162622380Y-91948000D01*
X162622373Y-91948000D01*
X162560000Y-91941857D01*
X162497627Y-91948000D01*
X159703620Y-91948000D01*
X159517037Y-91966377D01*
X159277641Y-92038997D01*
X159057012Y-92156925D01*
X158863630Y-92315630D01*
X158704925Y-92509012D01*
X158586997Y-92729641D01*
X158514377Y-92969037D01*
X158489856Y-93218000D01*
X146655550Y-93218000D01*
X147398551Y-92475000D01*
X147421939Y-92475000D01*
X147621898Y-92435226D01*
X147810256Y-92357205D01*
X147979774Y-92243937D01*
X148123937Y-92099774D01*
X148237205Y-91930256D01*
X148315226Y-91741898D01*
X148355000Y-91541939D01*
X148355000Y-91338061D01*
X148315226Y-91138102D01*
X148237205Y-90949744D01*
X148123937Y-90780226D01*
X147979774Y-90636063D01*
X147810256Y-90522795D01*
X147621898Y-90444774D01*
X147421939Y-90405000D01*
X147218061Y-90405000D01*
X147018102Y-90444774D01*
X146829744Y-90522795D01*
X146660226Y-90636063D01*
X146558000Y-90738289D01*
X146455774Y-90636063D01*
X146286256Y-90522795D01*
X146097898Y-90444774D01*
X145897939Y-90405000D01*
X145694061Y-90405000D01*
X145494102Y-90444774D01*
X145305744Y-90522795D01*
X145136226Y-90636063D01*
X145034000Y-90738289D01*
X144931774Y-90636063D01*
X144762256Y-90522795D01*
X144573898Y-90444774D01*
X144373939Y-90405000D01*
X144170061Y-90405000D01*
X143970102Y-90444774D01*
X143781744Y-90522795D01*
X143612226Y-90636063D01*
X143510000Y-90738289D01*
X143407774Y-90636063D01*
X143238256Y-90522795D01*
X143049898Y-90444774D01*
X142849939Y-90405000D01*
X142646061Y-90405000D01*
X142446102Y-90444774D01*
X142257744Y-90522795D01*
X142088226Y-90636063D01*
X141944063Y-90780226D01*
X141830795Y-90949744D01*
X141752774Y-91138102D01*
X141713000Y-91338061D01*
X141713000Y-91361449D01*
X139192000Y-93882449D01*
X139192000Y-92395711D01*
X139233937Y-92353774D01*
X139347205Y-92184256D01*
X139425226Y-91995898D01*
X139465000Y-91795939D01*
X139465000Y-91592061D01*
X139425226Y-91392102D01*
X139347205Y-91203744D01*
X139233937Y-91034226D01*
X139089774Y-90890063D01*
X138920256Y-90776795D01*
X138731898Y-90698774D01*
X138531939Y-90659000D01*
X138328061Y-90659000D01*
X138128102Y-90698774D01*
X137939744Y-90776795D01*
X137770226Y-90890063D01*
X137626063Y-91034226D01*
X137512795Y-91203744D01*
X137434774Y-91392102D01*
X137395000Y-91592061D01*
X137395000Y-91795939D01*
X137434774Y-91995898D01*
X137512795Y-92184256D01*
X137626063Y-92353774D01*
X137668001Y-92395712D01*
X137668000Y-93664369D01*
X136398000Y-94934369D01*
X136398000Y-92009630D01*
X137964631Y-90443000D01*
X138023939Y-90443000D01*
X138223898Y-90403226D01*
X138412256Y-90325205D01*
X138581774Y-90211937D01*
X138725937Y-90067774D01*
X138839205Y-89898256D01*
X138917226Y-89709898D01*
X138957000Y-89509939D01*
X138957000Y-89306061D01*
X138917226Y-89106102D01*
X138839205Y-88917744D01*
X138725937Y-88748226D01*
X138581774Y-88604063D01*
X138412256Y-88490795D01*
X138223898Y-88412774D01*
X138023939Y-88373000D01*
X137820061Y-88373000D01*
X137620102Y-88412774D01*
X137431744Y-88490795D01*
X137262226Y-88604063D01*
X137118063Y-88748226D01*
X137004795Y-88917744D01*
X136926774Y-89106102D01*
X136887000Y-89306061D01*
X136887000Y-89365369D01*
X135123649Y-91128721D01*
X135094579Y-91152578D01*
X135070722Y-91181648D01*
X135070721Y-91181649D01*
X134999355Y-91268608D01*
X134928599Y-91400985D01*
X134885027Y-91544622D01*
X134870314Y-91694000D01*
X134874001Y-91731433D01*
X134874000Y-94544542D01*
X134853226Y-94440102D01*
X134775205Y-94251744D01*
X134661937Y-94082226D01*
X134517774Y-93938063D01*
X134348256Y-93824795D01*
X134159898Y-93746774D01*
X133959939Y-93707000D01*
X133756061Y-93707000D01*
X133654211Y-93727259D01*
X133641426Y-93726000D01*
X133641423Y-93726000D01*
X133604000Y-93722314D01*
X133566577Y-93726000D01*
X130085422Y-93726000D01*
X130047999Y-93722314D01*
X130010576Y-93726000D01*
X130010574Y-93726000D01*
X129898622Y-93737026D01*
X129754985Y-93780598D01*
X129622608Y-93851355D01*
X129506578Y-93946578D01*
X129482721Y-93975648D01*
X127719370Y-95739000D01*
X127660061Y-95739000D01*
X127460102Y-95778774D01*
X127271744Y-95856795D01*
X127111284Y-95964011D01*
X127041937Y-95860226D01*
X127000671Y-95818960D01*
X130090630Y-92729000D01*
X130149939Y-92729000D01*
X130349898Y-92689226D01*
X130538256Y-92611205D01*
X130707774Y-92497937D01*
X130851937Y-92353774D01*
X130965205Y-92184256D01*
X131043226Y-91995898D01*
X131083000Y-91795939D01*
X131083000Y-91592061D01*
X131043226Y-91392102D01*
X130965205Y-91203744D01*
X130851937Y-91034226D01*
X130707774Y-90890063D01*
X130538256Y-90776795D01*
X130349898Y-90698774D01*
X130149939Y-90659000D01*
X129946061Y-90659000D01*
X129746102Y-90698774D01*
X129557744Y-90776795D01*
X129388226Y-90890063D01*
X129244063Y-91034226D01*
X129130795Y-91203744D01*
X129052774Y-91392102D01*
X129013000Y-91592061D01*
X129013000Y-91651370D01*
X125725649Y-94938721D01*
X125696579Y-94962578D01*
X125672722Y-94991648D01*
X125672721Y-94991649D01*
X125601355Y-95078608D01*
X125530599Y-95210985D01*
X125487027Y-95354622D01*
X125472314Y-95504000D01*
X125476001Y-95541433D01*
X125476001Y-95818288D01*
X125434063Y-95860226D01*
X125320795Y-96029744D01*
X125242774Y-96218102D01*
X125203000Y-96418061D01*
X115493000Y-96418061D01*
X115493000Y-84830475D01*
X118269000Y-84830475D01*
X118269000Y-85349525D01*
X118370261Y-85858601D01*
X118568893Y-86338141D01*
X118857262Y-86769715D01*
X119224285Y-87136738D01*
X119655859Y-87425107D01*
X120135399Y-87623739D01*
X120644475Y-87725000D01*
X121163525Y-87725000D01*
X121672601Y-87623739D01*
X122152141Y-87425107D01*
X122583715Y-87136738D01*
X122950738Y-86769715D01*
X123239107Y-86338141D01*
X123437739Y-85858601D01*
X123539000Y-85349525D01*
X123539000Y-84952408D01*
X129921000Y-84952408D01*
X129921000Y-85227592D01*
X129974686Y-85497490D01*
X130079995Y-85751727D01*
X130232880Y-85980535D01*
X130427465Y-86175120D01*
X130656273Y-86328005D01*
X130910510Y-86433314D01*
X131180408Y-86487000D01*
X131455592Y-86487000D01*
X131725490Y-86433314D01*
X131979727Y-86328005D01*
X132208535Y-86175120D01*
X132403120Y-85980535D01*
X132556005Y-85751727D01*
X132588000Y-85674485D01*
X132619995Y-85751727D01*
X132772880Y-85980535D01*
X132967465Y-86175120D01*
X133196273Y-86328005D01*
X133450510Y-86433314D01*
X133720408Y-86487000D01*
X133995592Y-86487000D01*
X134265490Y-86433314D01*
X134519727Y-86328005D01*
X134748535Y-86175120D01*
X134943120Y-85980535D01*
X135096005Y-85751727D01*
X135128000Y-85674485D01*
X135159995Y-85751727D01*
X135312880Y-85980535D01*
X135507465Y-86175120D01*
X135736273Y-86328005D01*
X135990510Y-86433314D01*
X136260408Y-86487000D01*
X136535592Y-86487000D01*
X136805490Y-86433314D01*
X137059727Y-86328005D01*
X137288535Y-86175120D01*
X137483120Y-85980535D01*
X137636005Y-85751727D01*
X137668000Y-85674485D01*
X137699995Y-85751727D01*
X137852880Y-85980535D01*
X138047465Y-86175120D01*
X138276273Y-86328005D01*
X138530510Y-86433314D01*
X138800408Y-86487000D01*
X139075592Y-86487000D01*
X139345490Y-86433314D01*
X139599727Y-86328005D01*
X139828535Y-86175120D01*
X140023120Y-85980535D01*
X140176005Y-85751727D01*
X140208000Y-85674485D01*
X140239995Y-85751727D01*
X140392880Y-85980535D01*
X140587465Y-86175120D01*
X140816273Y-86328005D01*
X141070510Y-86433314D01*
X141340408Y-86487000D01*
X141615592Y-86487000D01*
X141885490Y-86433314D01*
X142139727Y-86328005D01*
X142368535Y-86175120D01*
X142563120Y-85980535D01*
X142716005Y-85751727D01*
X142748000Y-85674485D01*
X142779995Y-85751727D01*
X142932880Y-85980535D01*
X143127465Y-86175120D01*
X143356273Y-86328005D01*
X143610510Y-86433314D01*
X143880408Y-86487000D01*
X144155592Y-86487000D01*
X144425490Y-86433314D01*
X144679727Y-86328005D01*
X144908535Y-86175120D01*
X145103120Y-85980535D01*
X145256005Y-85751727D01*
X145288000Y-85674485D01*
X145319995Y-85751727D01*
X145472880Y-85980535D01*
X145667465Y-86175120D01*
X145896273Y-86328005D01*
X146150510Y-86433314D01*
X146420408Y-86487000D01*
X146695592Y-86487000D01*
X146965490Y-86433314D01*
X147219727Y-86328005D01*
X147448535Y-86175120D01*
X147643120Y-85980535D01*
X147796005Y-85751727D01*
X147828000Y-85674485D01*
X147859995Y-85751727D01*
X148012880Y-85980535D01*
X148207465Y-86175120D01*
X148436273Y-86328005D01*
X148690510Y-86433314D01*
X148960408Y-86487000D01*
X149235592Y-86487000D01*
X149505490Y-86433314D01*
X149759727Y-86328005D01*
X149988535Y-86175120D01*
X150183120Y-85980535D01*
X150336005Y-85751727D01*
X150368000Y-85674485D01*
X150399995Y-85751727D01*
X150552880Y-85980535D01*
X150747465Y-86175120D01*
X150976273Y-86328005D01*
X151230510Y-86433314D01*
X151500408Y-86487000D01*
X151775592Y-86487000D01*
X152045490Y-86433314D01*
X152299727Y-86328005D01*
X152528535Y-86175120D01*
X152723120Y-85980535D01*
X152876005Y-85751727D01*
X152908000Y-85674485D01*
X152939995Y-85751727D01*
X153092880Y-85980535D01*
X153287465Y-86175120D01*
X153516273Y-86328005D01*
X153770510Y-86433314D01*
X154040408Y-86487000D01*
X154315592Y-86487000D01*
X154585490Y-86433314D01*
X154839727Y-86328005D01*
X155068535Y-86175120D01*
X155263120Y-85980535D01*
X155416005Y-85751727D01*
X155448000Y-85674485D01*
X155479995Y-85751727D01*
X155632880Y-85980535D01*
X155827465Y-86175120D01*
X156056273Y-86328005D01*
X156310510Y-86433314D01*
X156580408Y-86487000D01*
X156855592Y-86487000D01*
X157125490Y-86433314D01*
X157379727Y-86328005D01*
X157608535Y-86175120D01*
X157803120Y-85980535D01*
X157956005Y-85751727D01*
X157988000Y-85674485D01*
X158019995Y-85751727D01*
X158172880Y-85980535D01*
X158367465Y-86175120D01*
X158596273Y-86328005D01*
X158850510Y-86433314D01*
X159120408Y-86487000D01*
X159395592Y-86487000D01*
X159665490Y-86433314D01*
X159919727Y-86328005D01*
X160148535Y-86175120D01*
X160343120Y-85980535D01*
X160496005Y-85751727D01*
X160528000Y-85674485D01*
X160559995Y-85751727D01*
X160712880Y-85980535D01*
X160907465Y-86175120D01*
X161136273Y-86328005D01*
X161390510Y-86433314D01*
X161660408Y-86487000D01*
X161935592Y-86487000D01*
X162205490Y-86433314D01*
X162459727Y-86328005D01*
X162688535Y-86175120D01*
X162808090Y-86055565D01*
X163552040Y-86055565D01*
X163619020Y-86295656D01*
X163868048Y-86412756D01*
X164135135Y-86479023D01*
X164410017Y-86491910D01*
X164682133Y-86450922D01*
X164941023Y-86357636D01*
X165056980Y-86295656D01*
X165123960Y-86055565D01*
X164338000Y-85269605D01*
X163552040Y-86055565D01*
X162808090Y-86055565D01*
X162883120Y-85980535D01*
X163036005Y-85751727D01*
X163065692Y-85680057D01*
X163070364Y-85693023D01*
X163132344Y-85808980D01*
X163372435Y-85875960D01*
X164158395Y-85090000D01*
X164517605Y-85090000D01*
X165303565Y-85875960D01*
X165543656Y-85808980D01*
X165607485Y-85673240D01*
X165639995Y-85751727D01*
X165792880Y-85980535D01*
X165987465Y-86175120D01*
X166216273Y-86328005D01*
X166470510Y-86433314D01*
X166740408Y-86487000D01*
X167015592Y-86487000D01*
X167285490Y-86433314D01*
X167539727Y-86328005D01*
X167768535Y-86175120D01*
X167963120Y-85980535D01*
X168116005Y-85751727D01*
X168221314Y-85497490D01*
X168275000Y-85227592D01*
X168275000Y-84952408D01*
X168250747Y-84830475D01*
X178467000Y-84830475D01*
X178467000Y-85349525D01*
X178568261Y-85858601D01*
X178766893Y-86338141D01*
X179055262Y-86769715D01*
X179422285Y-87136738D01*
X179853859Y-87425107D01*
X180333399Y-87623739D01*
X180842475Y-87725000D01*
X181361525Y-87725000D01*
X181870601Y-87623739D01*
X182350141Y-87425107D01*
X182781715Y-87136738D01*
X183148738Y-86769715D01*
X183437107Y-86338141D01*
X183635739Y-85858601D01*
X183737000Y-85349525D01*
X183737000Y-84830475D01*
X183635739Y-84321399D01*
X183437107Y-83841859D01*
X183148738Y-83410285D01*
X182781715Y-83043262D01*
X182350141Y-82754893D01*
X181870601Y-82556261D01*
X181361525Y-82455000D01*
X180842475Y-82455000D01*
X180333399Y-82556261D01*
X179853859Y-82754893D01*
X179422285Y-83043262D01*
X179055262Y-83410285D01*
X178766893Y-83841859D01*
X178568261Y-84321399D01*
X178467000Y-84830475D01*
X168250747Y-84830475D01*
X168221314Y-84682510D01*
X168116005Y-84428273D01*
X167963120Y-84199465D01*
X167768535Y-84004880D01*
X167539727Y-83851995D01*
X167285490Y-83746686D01*
X167015592Y-83693000D01*
X166740408Y-83693000D01*
X166470510Y-83746686D01*
X166216273Y-83851995D01*
X165987465Y-84004880D01*
X165792880Y-84199465D01*
X165639995Y-84428273D01*
X165610308Y-84499943D01*
X165605636Y-84486977D01*
X165543656Y-84371020D01*
X165303565Y-84304040D01*
X164517605Y-85090000D01*
X164158395Y-85090000D01*
X163372435Y-84304040D01*
X163132344Y-84371020D01*
X163068515Y-84506760D01*
X163036005Y-84428273D01*
X162883120Y-84199465D01*
X162808090Y-84124435D01*
X163552040Y-84124435D01*
X164338000Y-84910395D01*
X165123960Y-84124435D01*
X165056980Y-83884344D01*
X164807952Y-83767244D01*
X164540865Y-83700977D01*
X164265983Y-83688090D01*
X163993867Y-83729078D01*
X163734977Y-83822364D01*
X163619020Y-83884344D01*
X163552040Y-84124435D01*
X162808090Y-84124435D01*
X162688535Y-84004880D01*
X162459727Y-83851995D01*
X162205490Y-83746686D01*
X161935592Y-83693000D01*
X161660408Y-83693000D01*
X161390510Y-83746686D01*
X161136273Y-83851995D01*
X160907465Y-84004880D01*
X160712880Y-84199465D01*
X160559995Y-84428273D01*
X160528000Y-84505515D01*
X160496005Y-84428273D01*
X160343120Y-84199465D01*
X160148535Y-84004880D01*
X159919727Y-83851995D01*
X159665490Y-83746686D01*
X159395592Y-83693000D01*
X159120408Y-83693000D01*
X158850510Y-83746686D01*
X158596273Y-83851995D01*
X158367465Y-84004880D01*
X158172880Y-84199465D01*
X158019995Y-84428273D01*
X157988000Y-84505515D01*
X157956005Y-84428273D01*
X157803120Y-84199465D01*
X157608535Y-84004880D01*
X157379727Y-83851995D01*
X157125490Y-83746686D01*
X156855592Y-83693000D01*
X156580408Y-83693000D01*
X156310510Y-83746686D01*
X156056273Y-83851995D01*
X155827465Y-84004880D01*
X155632880Y-84199465D01*
X155479995Y-84428273D01*
X155448000Y-84505515D01*
X155416005Y-84428273D01*
X155263120Y-84199465D01*
X155068535Y-84004880D01*
X154839727Y-83851995D01*
X154585490Y-83746686D01*
X154315592Y-83693000D01*
X154040408Y-83693000D01*
X153770510Y-83746686D01*
X153516273Y-83851995D01*
X153287465Y-84004880D01*
X153092880Y-84199465D01*
X152939995Y-84428273D01*
X152908000Y-84505515D01*
X152876005Y-84428273D01*
X152723120Y-84199465D01*
X152528535Y-84004880D01*
X152299727Y-83851995D01*
X152045490Y-83746686D01*
X151775592Y-83693000D01*
X151500408Y-83693000D01*
X151230510Y-83746686D01*
X150976273Y-83851995D01*
X150747465Y-84004880D01*
X150552880Y-84199465D01*
X150399995Y-84428273D01*
X150368000Y-84505515D01*
X150336005Y-84428273D01*
X150183120Y-84199465D01*
X149988535Y-84004880D01*
X149759727Y-83851995D01*
X149505490Y-83746686D01*
X149235592Y-83693000D01*
X148960408Y-83693000D01*
X148690510Y-83746686D01*
X148436273Y-83851995D01*
X148207465Y-84004880D01*
X148012880Y-84199465D01*
X147859995Y-84428273D01*
X147828000Y-84505515D01*
X147796005Y-84428273D01*
X147643120Y-84199465D01*
X147448535Y-84004880D01*
X147219727Y-83851995D01*
X146965490Y-83746686D01*
X146695592Y-83693000D01*
X146420408Y-83693000D01*
X146150510Y-83746686D01*
X145896273Y-83851995D01*
X145667465Y-84004880D01*
X145472880Y-84199465D01*
X145319995Y-84428273D01*
X145288000Y-84505515D01*
X145256005Y-84428273D01*
X145103120Y-84199465D01*
X144908535Y-84004880D01*
X144679727Y-83851995D01*
X144425490Y-83746686D01*
X144155592Y-83693000D01*
X143880408Y-83693000D01*
X143610510Y-83746686D01*
X143356273Y-83851995D01*
X143127465Y-84004880D01*
X142932880Y-84199465D01*
X142779995Y-84428273D01*
X142748000Y-84505515D01*
X142716005Y-84428273D01*
X142563120Y-84199465D01*
X142368535Y-84004880D01*
X142139727Y-83851995D01*
X141885490Y-83746686D01*
X141615592Y-83693000D01*
X141340408Y-83693000D01*
X141070510Y-83746686D01*
X140816273Y-83851995D01*
X140587465Y-84004880D01*
X140392880Y-84199465D01*
X140239995Y-84428273D01*
X140208000Y-84505515D01*
X140176005Y-84428273D01*
X140023120Y-84199465D01*
X139828535Y-84004880D01*
X139599727Y-83851995D01*
X139345490Y-83746686D01*
X139075592Y-83693000D01*
X138800408Y-83693000D01*
X138530510Y-83746686D01*
X138276273Y-83851995D01*
X138047465Y-84004880D01*
X137852880Y-84199465D01*
X137699995Y-84428273D01*
X137668000Y-84505515D01*
X137636005Y-84428273D01*
X137483120Y-84199465D01*
X137288535Y-84004880D01*
X137059727Y-83851995D01*
X136805490Y-83746686D01*
X136535592Y-83693000D01*
X136260408Y-83693000D01*
X135990510Y-83746686D01*
X135736273Y-83851995D01*
X135507465Y-84004880D01*
X135312880Y-84199465D01*
X135159995Y-84428273D01*
X135128000Y-84505515D01*
X135096005Y-84428273D01*
X134943120Y-84199465D01*
X134748535Y-84004880D01*
X134519727Y-83851995D01*
X134265490Y-83746686D01*
X133995592Y-83693000D01*
X133720408Y-83693000D01*
X133450510Y-83746686D01*
X133196273Y-83851995D01*
X132967465Y-84004880D01*
X132772880Y-84199465D01*
X132619995Y-84428273D01*
X132588000Y-84505515D01*
X132556005Y-84428273D01*
X132403120Y-84199465D01*
X132208535Y-84004880D01*
X131979727Y-83851995D01*
X131725490Y-83746686D01*
X131455592Y-83693000D01*
X131180408Y-83693000D01*
X130910510Y-83746686D01*
X130656273Y-83851995D01*
X130427465Y-84004880D01*
X130232880Y-84199465D01*
X130079995Y-84428273D01*
X129974686Y-84682510D01*
X129921000Y-84952408D01*
X123539000Y-84952408D01*
X123539000Y-84830475D01*
X123437739Y-84321399D01*
X123239107Y-83841859D01*
X122950738Y-83410285D01*
X122583715Y-83043262D01*
X122152141Y-82754893D01*
X121672601Y-82556261D01*
X121163525Y-82455000D01*
X120644475Y-82455000D01*
X120135399Y-82556261D01*
X119655859Y-82754893D01*
X119224285Y-83043262D01*
X118857262Y-83410285D01*
X118568893Y-83841859D01*
X118370261Y-84321399D01*
X118269000Y-84830475D01*
X115493000Y-84830475D01*
X115493000Y-80187000D01*
X186259001Y-80187000D01*
X186259000Y-114885000D01*
G37*
X186259000Y-114885000D02*
X115493000Y-114885000D01*
X115493000Y-110230475D01*
X118269000Y-110230475D01*
X118269000Y-110749525D01*
X118370261Y-111258601D01*
X118568893Y-111738141D01*
X118857262Y-112169715D01*
X119224285Y-112536738D01*
X119655859Y-112825107D01*
X120135399Y-113023739D01*
X120644475Y-113125000D01*
X121163525Y-113125000D01*
X121672601Y-113023739D01*
X122152141Y-112825107D01*
X122583715Y-112536738D01*
X122950738Y-112169715D01*
X123239107Y-111738141D01*
X123437739Y-111258601D01*
X123539000Y-110749525D01*
X123539000Y-110230475D01*
X123439053Y-109728000D01*
X129917928Y-109728000D01*
X129917928Y-111252000D01*
X129930188Y-111376482D01*
X129966498Y-111496180D01*
X130025463Y-111606494D01*
X130104815Y-111703185D01*
X130201506Y-111782537D01*
X130311820Y-111841502D01*
X130431518Y-111877812D01*
X130556000Y-111890072D01*
X132080000Y-111890072D01*
X132204482Y-111877812D01*
X132324180Y-111841502D01*
X132434494Y-111782537D01*
X132531185Y-111703185D01*
X132610537Y-111606494D01*
X132669502Y-111496180D01*
X132705812Y-111376482D01*
X132714080Y-111292535D01*
X132772880Y-111380535D01*
X132967465Y-111575120D01*
X133196273Y-111728005D01*
X133450510Y-111833314D01*
X133720408Y-111887000D01*
X133995592Y-111887000D01*
X134265490Y-111833314D01*
X134519727Y-111728005D01*
X134748535Y-111575120D01*
X134943120Y-111380535D01*
X135096005Y-111151727D01*
X135128000Y-111074485D01*
X135159995Y-111151727D01*
X135312880Y-111380535D01*
X135507465Y-111575120D01*
X135736273Y-111728005D01*
X135990510Y-111833314D01*
X136260408Y-111887000D01*
X136535592Y-111887000D01*
X136805490Y-111833314D01*
X137059727Y-111728005D01*
X137288535Y-111575120D01*
X137483120Y-111380535D01*
X137636005Y-111151727D01*
X137668000Y-111074485D01*
X137699995Y-111151727D01*
X137852880Y-111380535D01*
X138047465Y-111575120D01*
X138276273Y-111728005D01*
X138530510Y-111833314D01*
X138800408Y-111887000D01*
X139075592Y-111887000D01*
X139345490Y-111833314D01*
X139599727Y-111728005D01*
X139828535Y-111575120D01*
X140023120Y-111380535D01*
X140176005Y-111151727D01*
X140208000Y-111074485D01*
X140239995Y-111151727D01*
X140392880Y-111380535D01*
X140587465Y-111575120D01*
X140816273Y-111728005D01*
X141070510Y-111833314D01*
X141340408Y-111887000D01*
X141615592Y-111887000D01*
X141885490Y-111833314D01*
X142139727Y-111728005D01*
X142368535Y-111575120D01*
X142563120Y-111380535D01*
X142716005Y-111151727D01*
X142748000Y-111074485D01*
X142779995Y-111151727D01*
X142932880Y-111380535D01*
X143127465Y-111575120D01*
X143356273Y-111728005D01*
X143610510Y-111833314D01*
X143880408Y-111887000D01*
X144155592Y-111887000D01*
X144425490Y-111833314D01*
X144679727Y-111728005D01*
X144908535Y-111575120D01*
X145103120Y-111380535D01*
X145256005Y-111151727D01*
X145288000Y-111074485D01*
X145319995Y-111151727D01*
X145472880Y-111380535D01*
X145667465Y-111575120D01*
X145896273Y-111728005D01*
X146150510Y-111833314D01*
X146420408Y-111887000D01*
X146695592Y-111887000D01*
X146965490Y-111833314D01*
X147219727Y-111728005D01*
X147448535Y-111575120D01*
X147643120Y-111380535D01*
X147796005Y-111151727D01*
X147828000Y-111074485D01*
X147859995Y-111151727D01*
X148012880Y-111380535D01*
X148207465Y-111575120D01*
X148436273Y-111728005D01*
X148690510Y-111833314D01*
X148960408Y-111887000D01*
X149235592Y-111887000D01*
X149505490Y-111833314D01*
X149759727Y-111728005D01*
X149988535Y-111575120D01*
X150183120Y-111380535D01*
X150336005Y-111151727D01*
X150368000Y-111074485D01*
X150399995Y-111151727D01*
X150552880Y-111380535D01*
X150747465Y-111575120D01*
X150976273Y-111728005D01*
X151230510Y-111833314D01*
X151500408Y-111887000D01*
X151775592Y-111887000D01*
X152045490Y-111833314D01*
X152299727Y-111728005D01*
X152528535Y-111575120D01*
X152723120Y-111380535D01*
X152876005Y-111151727D01*
X152908000Y-111074485D01*
X152939995Y-111151727D01*
X153092880Y-111380535D01*
X153287465Y-111575120D01*
X153516273Y-111728005D01*
X153770510Y-111833314D01*
X154040408Y-111887000D01*
X154315592Y-111887000D01*
X154585490Y-111833314D01*
X154839727Y-111728005D01*
X155068535Y-111575120D01*
X155263120Y-111380535D01*
X155416005Y-111151727D01*
X155448000Y-111074485D01*
X155479995Y-111151727D01*
X155632880Y-111380535D01*
X155827465Y-111575120D01*
X156056273Y-111728005D01*
X156310510Y-111833314D01*
X156580408Y-111887000D01*
X156855592Y-111887000D01*
X157125490Y-111833314D01*
X157379727Y-111728005D01*
X157608535Y-111575120D01*
X157803120Y-111380535D01*
X157956005Y-111151727D01*
X157988000Y-111074485D01*
X158019995Y-111151727D01*
X158172880Y-111380535D01*
X158367465Y-111575120D01*
X158596273Y-111728005D01*
X158850510Y-111833314D01*
X159120408Y-111887000D01*
X159395592Y-111887000D01*
X159665490Y-111833314D01*
X159919727Y-111728005D01*
X160148535Y-111575120D01*
X160343120Y-111380535D01*
X160496005Y-111151727D01*
X160528000Y-111074485D01*
X160559995Y-111151727D01*
X160712880Y-111380535D01*
X160907465Y-111575120D01*
X161136273Y-111728005D01*
X161390510Y-111833314D01*
X161660408Y-111887000D01*
X161935592Y-111887000D01*
X162205490Y-111833314D01*
X162459727Y-111728005D01*
X162688535Y-111575120D01*
X162808090Y-111455565D01*
X163552040Y-111455565D01*
X163619020Y-111695656D01*
X163868048Y-111812756D01*
X164135135Y-111879023D01*
X164410017Y-111891910D01*
X164682133Y-111850922D01*
X164941023Y-111757636D01*
X165056980Y-111695656D01*
X165123960Y-111455565D01*
X164338000Y-110669605D01*
X163552040Y-111455565D01*
X162808090Y-111455565D01*
X162883120Y-111380535D01*
X163036005Y-111151727D01*
X163065692Y-111080057D01*
X163070364Y-111093023D01*
X163132344Y-111208980D01*
X163372435Y-111275960D01*
X164158395Y-110490000D01*
X163372435Y-109704040D01*
X163132344Y-109771020D01*
X163068515Y-109906760D01*
X163036005Y-109828273D01*
X162883120Y-109599465D01*
X162808090Y-109524435D01*
X163552040Y-109524435D01*
X164338000Y-110310395D01*
X165123960Y-109524435D01*
X165056980Y-109284344D01*
X164807952Y-109167244D01*
X164540865Y-109100977D01*
X164265983Y-109088090D01*
X163993867Y-109129078D01*
X163734977Y-109222364D01*
X163619020Y-109284344D01*
X163552040Y-109524435D01*
X162808090Y-109524435D01*
X162688535Y-109404880D01*
X162459727Y-109251995D01*
X162205490Y-109146686D01*
X161935592Y-109093000D01*
X161660408Y-109093000D01*
X161390510Y-109146686D01*
X161136273Y-109251995D01*
X160907465Y-109404880D01*
X160712880Y-109599465D01*
X160559995Y-109828273D01*
X160528000Y-109905515D01*
X160496005Y-109828273D01*
X160343120Y-109599465D01*
X160148535Y-109404880D01*
X159919727Y-109251995D01*
X159665490Y-109146686D01*
X159395592Y-109093000D01*
X159120408Y-109093000D01*
X158850510Y-109146686D01*
X158596273Y-109251995D01*
X158367465Y-109404880D01*
X158172880Y-109599465D01*
X158019995Y-109828273D01*
X157988000Y-109905515D01*
X157956005Y-109828273D01*
X157803120Y-109599465D01*
X157608535Y-109404880D01*
X157379727Y-109251995D01*
X157125490Y-109146686D01*
X156855592Y-109093000D01*
X156580408Y-109093000D01*
X156310510Y-109146686D01*
X156056273Y-109251995D01*
X155827465Y-109404880D01*
X155632880Y-109599465D01*
X155479995Y-109828273D01*
X155448000Y-109905515D01*
X155416005Y-109828273D01*
X155263120Y-109599465D01*
X155068535Y-109404880D01*
X154839727Y-109251995D01*
X154585490Y-109146686D01*
X154315592Y-109093000D01*
X154040408Y-109093000D01*
X153770510Y-109146686D01*
X153516273Y-109251995D01*
X153287465Y-109404880D01*
X153092880Y-109599465D01*
X152939995Y-109828273D01*
X152908000Y-109905515D01*
X152876005Y-109828273D01*
X152723120Y-109599465D01*
X152528535Y-109404880D01*
X152299727Y-109251995D01*
X152045490Y-109146686D01*
X151775592Y-109093000D01*
X151500408Y-109093000D01*
X151230510Y-109146686D01*
X150976273Y-109251995D01*
X150747465Y-109404880D01*
X150552880Y-109599465D01*
X150399995Y-109828273D01*
X150368000Y-109905515D01*
X150336005Y-109828273D01*
X150183120Y-109599465D01*
X149988535Y-109404880D01*
X149759727Y-109251995D01*
X149505490Y-109146686D01*
X149235592Y-109093000D01*
X148960408Y-109093000D01*
X148690510Y-109146686D01*
X148436273Y-109251995D01*
X148207465Y-109404880D01*
X148012880Y-109599465D01*
X147859995Y-109828273D01*
X147828000Y-109905515D01*
X147796005Y-109828273D01*
X147643120Y-109599465D01*
X147448535Y-109404880D01*
X147219727Y-109251995D01*
X146965490Y-109146686D01*
X146695592Y-109093000D01*
X146420408Y-109093000D01*
X146150510Y-109146686D01*
X145896273Y-109251995D01*
X145667465Y-109404880D01*
X145472880Y-109599465D01*
X145319995Y-109828273D01*
X145288000Y-109905515D01*
X145256005Y-109828273D01*
X145103120Y-109599465D01*
X144908535Y-109404880D01*
X144679727Y-109251995D01*
X144425490Y-109146686D01*
X144155592Y-109093000D01*
X143880408Y-109093000D01*
X143610510Y-109146686D01*
X143356273Y-109251995D01*
X143127465Y-109404880D01*
X142932880Y-109599465D01*
X142779995Y-109828273D01*
X142748000Y-109905515D01*
X142716005Y-109828273D01*
X142563120Y-109599465D01*
X142368535Y-109404880D01*
X142139727Y-109251995D01*
X141885490Y-109146686D01*
X141615592Y-109093000D01*
X141340408Y-109093000D01*
X141070510Y-109146686D01*
X140816273Y-109251995D01*
X140587465Y-109404880D01*
X140392880Y-109599465D01*
X140239995Y-109828273D01*
X140208000Y-109905515D01*
X140176005Y-109828273D01*
X140023120Y-109599465D01*
X139828535Y-109404880D01*
X139599727Y-109251995D01*
X139345490Y-109146686D01*
X139075592Y-109093000D01*
X138800408Y-109093000D01*
X138530510Y-109146686D01*
X138276273Y-109251995D01*
X138047465Y-109404880D01*
X137852880Y-109599465D01*
X137699995Y-109828273D01*
X137668000Y-109905515D01*
X137636005Y-109828273D01*
X137483120Y-109599465D01*
X137288535Y-109404880D01*
X137059727Y-109251995D01*
X136805490Y-109146686D01*
X136535592Y-109093000D01*
X136260408Y-109093000D01*
X135990510Y-109146686D01*
X135736273Y-109251995D01*
X135507465Y-109404880D01*
X135312880Y-109599465D01*
X135159995Y-109828273D01*
X135128000Y-109905515D01*
X135096005Y-109828273D01*
X134943120Y-109599465D01*
X134748535Y-109404880D01*
X134519727Y-109251995D01*
X134265490Y-109146686D01*
X133995592Y-109093000D01*
X133720408Y-109093000D01*
X133450510Y-109146686D01*
X133196273Y-109251995D01*
X132967465Y-109404880D01*
X132772880Y-109599465D01*
X132714080Y-109687465D01*
X132705812Y-109603518D01*
X132669502Y-109483820D01*
X132610537Y-109373506D01*
X132531185Y-109276815D01*
X132434494Y-109197463D01*
X132324180Y-109138498D01*
X132204482Y-109102188D01*
X132080000Y-109089928D01*
X130556000Y-109089928D01*
X130431518Y-109102188D01*
X130311820Y-109138498D01*
X130201506Y-109197463D01*
X130104815Y-109276815D01*
X130025463Y-109373506D01*
X129966498Y-109483820D01*
X129930188Y-109603518D01*
X129917928Y-109728000D01*
X123439053Y-109728000D01*
X123437739Y-109721399D01*
X123239107Y-109241859D01*
X122950738Y-108810285D01*
X122583715Y-108443262D01*
X122152141Y-108154893D01*
X121672601Y-107956261D01*
X121163525Y-107855000D01*
X120644475Y-107855000D01*
X120135399Y-107956261D01*
X119655859Y-108154893D01*
X119224285Y-108443262D01*
X118857262Y-108810285D01*
X118568893Y-109241859D01*
X118370261Y-109721399D01*
X118269000Y-110230475D01*
X115493000Y-110230475D01*
X115493000Y-96418061D01*
X125203000Y-96418061D01*
X125203000Y-96621939D01*
X125242774Y-96821898D01*
X125320795Y-97010256D01*
X125434063Y-97179774D01*
X125578226Y-97323937D01*
X125747744Y-97437205D01*
X125936102Y-97515226D01*
X126136061Y-97555000D01*
X126339939Y-97555000D01*
X126539898Y-97515226D01*
X126728256Y-97437205D01*
X126888716Y-97329989D01*
X126958063Y-97433774D01*
X127102226Y-97577937D01*
X127271744Y-97691205D01*
X127460102Y-97769226D01*
X127660061Y-97809000D01*
X127777026Y-97809000D01*
X127782774Y-97837898D01*
X127860795Y-98026256D01*
X127974063Y-98195774D01*
X128118226Y-98339937D01*
X128287744Y-98453205D01*
X128476102Y-98531226D01*
X128676061Y-98571000D01*
X128879939Y-98571000D01*
X129079898Y-98531226D01*
X129268256Y-98453205D01*
X129413000Y-98356490D01*
X129557744Y-98453205D01*
X129746102Y-98531226D01*
X129946061Y-98571000D01*
X130149939Y-98571000D01*
X130349898Y-98531226D01*
X130538256Y-98453205D01*
X130707774Y-98339937D01*
X130749711Y-98298000D01*
X134631247Y-98298000D01*
X134601000Y-98450061D01*
X134601000Y-98653939D01*
X134640774Y-98853898D01*
X134718795Y-99042256D01*
X134832063Y-99211774D01*
X134976226Y-99355937D01*
X135145744Y-99469205D01*
X135334102Y-99547226D01*
X135534061Y-99587000D01*
X135737939Y-99587000D01*
X135937898Y-99547226D01*
X136126256Y-99469205D01*
X136295774Y-99355937D01*
X136398000Y-99253711D01*
X136500226Y-99355937D01*
X136669744Y-99469205D01*
X136858102Y-99547226D01*
X137058061Y-99587000D01*
X137261939Y-99587000D01*
X137461898Y-99547226D01*
X137650256Y-99469205D01*
X137819774Y-99355937D01*
X137922000Y-99253711D01*
X138024226Y-99355937D01*
X138193744Y-99469205D01*
X138382102Y-99547226D01*
X138582061Y-99587000D01*
X138785939Y-99587000D01*
X138985898Y-99547226D01*
X139174256Y-99469205D01*
X139343774Y-99355937D01*
X139446000Y-99253711D01*
X139548226Y-99355937D01*
X139717744Y-99469205D01*
X139906102Y-99547226D01*
X140106061Y-99587000D01*
X140309939Y-99587000D01*
X140509898Y-99547226D01*
X140698256Y-99469205D01*
X140867774Y-99355937D01*
X141011937Y-99211774D01*
X141125205Y-99042256D01*
X141203226Y-98853898D01*
X141243000Y-98653939D01*
X141243000Y-98630550D01*
X146655550Y-93218000D01*
X158489856Y-93218000D01*
X158514377Y-93466963D01*
X158586997Y-93706359D01*
X158704925Y-93926988D01*
X158863630Y-94120370D01*
X159057012Y-94279075D01*
X159277641Y-94397003D01*
X159517037Y-94469623D01*
X159703620Y-94488000D01*
X162033950Y-94488000D01*
X165608001Y-98062052D01*
X165608000Y-109893538D01*
X165605636Y-109886977D01*
X165543656Y-109771020D01*
X165303565Y-109704040D01*
X164517605Y-110490000D01*
X165303565Y-111275960D01*
X165543656Y-111208980D01*
X165607485Y-111073240D01*
X165639995Y-111151727D01*
X165792880Y-111380535D01*
X165987465Y-111575120D01*
X166216273Y-111728005D01*
X166470510Y-111833314D01*
X166740408Y-111887000D01*
X167015592Y-111887000D01*
X167285490Y-111833314D01*
X167539727Y-111728005D01*
X167768535Y-111575120D01*
X167963120Y-111380535D01*
X168116005Y-111151727D01*
X168221314Y-110897490D01*
X168275000Y-110627592D01*
X168275000Y-110352408D01*
X168250747Y-110230475D01*
X178467000Y-110230475D01*
X178467000Y-110749525D01*
X178568261Y-111258601D01*
X178766893Y-111738141D01*
X179055262Y-112169715D01*
X179422285Y-112536738D01*
X179853859Y-112825107D01*
X180333399Y-113023739D01*
X180842475Y-113125000D01*
X181361525Y-113125000D01*
X181870601Y-113023739D01*
X182350141Y-112825107D01*
X182781715Y-112536738D01*
X183148738Y-112169715D01*
X183437107Y-111738141D01*
X183635739Y-111258601D01*
X183737000Y-110749525D01*
X183737000Y-110230475D01*
X183635739Y-109721399D01*
X183437107Y-109241859D01*
X183148738Y-108810285D01*
X182781715Y-108443262D01*
X182350141Y-108154893D01*
X181870601Y-107956261D01*
X181361525Y-107855000D01*
X180842475Y-107855000D01*
X180333399Y-107956261D01*
X179853859Y-108154893D01*
X179422285Y-108443262D01*
X179055262Y-108810285D01*
X178766893Y-109241859D01*
X178568261Y-109721399D01*
X178467000Y-110230475D01*
X168250747Y-110230475D01*
X168221314Y-110082510D01*
X168148000Y-109905515D01*
X168148000Y-97598372D01*
X168154143Y-97535999D01*
X168148000Y-97473626D01*
X168148000Y-97473620D01*
X168129623Y-97287037D01*
X168124751Y-97270974D01*
X168090069Y-97156645D01*
X168057003Y-97047641D01*
X167939075Y-96827012D01*
X167780370Y-96633630D01*
X167731914Y-96593863D01*
X163502141Y-92364091D01*
X163462370Y-92315630D01*
X163268988Y-92156925D01*
X163048359Y-92038997D01*
X162808963Y-91966377D01*
X162622380Y-91948000D01*
X162622373Y-91948000D01*
X162560000Y-91941857D01*
X162497627Y-91948000D01*
X159703620Y-91948000D01*
X159517037Y-91966377D01*
X159277641Y-92038997D01*
X159057012Y-92156925D01*
X158863630Y-92315630D01*
X158704925Y-92509012D01*
X158586997Y-92729641D01*
X158514377Y-92969037D01*
X158489856Y-93218000D01*
X146655550Y-93218000D01*
X147398551Y-92475000D01*
X147421939Y-92475000D01*
X147621898Y-92435226D01*
X147810256Y-92357205D01*
X147979774Y-92243937D01*
X148123937Y-92099774D01*
X148237205Y-91930256D01*
X148315226Y-91741898D01*
X148355000Y-91541939D01*
X148355000Y-91338061D01*
X148315226Y-91138102D01*
X148237205Y-90949744D01*
X148123937Y-90780226D01*
X147979774Y-90636063D01*
X147810256Y-90522795D01*
X147621898Y-90444774D01*
X147421939Y-90405000D01*
X147218061Y-90405000D01*
X147018102Y-90444774D01*
X146829744Y-90522795D01*
X146660226Y-90636063D01*
X146558000Y-90738289D01*
X146455774Y-90636063D01*
X146286256Y-90522795D01*
X146097898Y-90444774D01*
X145897939Y-90405000D01*
X145694061Y-90405000D01*
X145494102Y-90444774D01*
X145305744Y-90522795D01*
X145136226Y-90636063D01*
X145034000Y-90738289D01*
X144931774Y-90636063D01*
X144762256Y-90522795D01*
X144573898Y-90444774D01*
X144373939Y-90405000D01*
X144170061Y-90405000D01*
X143970102Y-90444774D01*
X143781744Y-90522795D01*
X143612226Y-90636063D01*
X143510000Y-90738289D01*
X143407774Y-90636063D01*
X143238256Y-90522795D01*
X143049898Y-90444774D01*
X142849939Y-90405000D01*
X142646061Y-90405000D01*
X142446102Y-90444774D01*
X142257744Y-90522795D01*
X142088226Y-90636063D01*
X141944063Y-90780226D01*
X141830795Y-90949744D01*
X141752774Y-91138102D01*
X141713000Y-91338061D01*
X141713000Y-91361449D01*
X139192000Y-93882449D01*
X139192000Y-92395711D01*
X139233937Y-92353774D01*
X139347205Y-92184256D01*
X139425226Y-91995898D01*
X139465000Y-91795939D01*
X139465000Y-91592061D01*
X139425226Y-91392102D01*
X139347205Y-91203744D01*
X139233937Y-91034226D01*
X139089774Y-90890063D01*
X138920256Y-90776795D01*
X138731898Y-90698774D01*
X138531939Y-90659000D01*
X138328061Y-90659000D01*
X138128102Y-90698774D01*
X137939744Y-90776795D01*
X137770226Y-90890063D01*
X137626063Y-91034226D01*
X137512795Y-91203744D01*
X137434774Y-91392102D01*
X137395000Y-91592061D01*
X137395000Y-91795939D01*
X137434774Y-91995898D01*
X137512795Y-92184256D01*
X137626063Y-92353774D01*
X137668001Y-92395712D01*
X137668000Y-93664369D01*
X136398000Y-94934369D01*
X136398000Y-92009630D01*
X137964631Y-90443000D01*
X138023939Y-90443000D01*
X138223898Y-90403226D01*
X138412256Y-90325205D01*
X138581774Y-90211937D01*
X138725937Y-90067774D01*
X138839205Y-89898256D01*
X138917226Y-89709898D01*
X138957000Y-89509939D01*
X138957000Y-89306061D01*
X138917226Y-89106102D01*
X138839205Y-88917744D01*
X138725937Y-88748226D01*
X138581774Y-88604063D01*
X138412256Y-88490795D01*
X138223898Y-88412774D01*
X138023939Y-88373000D01*
X137820061Y-88373000D01*
X137620102Y-88412774D01*
X137431744Y-88490795D01*
X137262226Y-88604063D01*
X137118063Y-88748226D01*
X137004795Y-88917744D01*
X136926774Y-89106102D01*
X136887000Y-89306061D01*
X136887000Y-89365369D01*
X135123649Y-91128721D01*
X135094579Y-91152578D01*
X135070722Y-91181648D01*
X135070721Y-91181649D01*
X134999355Y-91268608D01*
X134928599Y-91400985D01*
X134885027Y-91544622D01*
X134870314Y-91694000D01*
X134874001Y-91731433D01*
X134874000Y-94544542D01*
X134853226Y-94440102D01*
X134775205Y-94251744D01*
X134661937Y-94082226D01*
X134517774Y-93938063D01*
X134348256Y-93824795D01*
X134159898Y-93746774D01*
X133959939Y-93707000D01*
X133756061Y-93707000D01*
X133654211Y-93727259D01*
X133641426Y-93726000D01*
X133641423Y-93726000D01*
X133604000Y-93722314D01*
X133566577Y-93726000D01*
X130085422Y-93726000D01*
X130047999Y-93722314D01*
X130010576Y-93726000D01*
X130010574Y-93726000D01*
X129898622Y-93737026D01*
X129754985Y-93780598D01*
X129622608Y-93851355D01*
X129506578Y-93946578D01*
X129482721Y-93975648D01*
X127719370Y-95739000D01*
X127660061Y-95739000D01*
X127460102Y-95778774D01*
X127271744Y-95856795D01*
X127111284Y-95964011D01*
X127041937Y-95860226D01*
X127000671Y-95818960D01*
X130090630Y-92729000D01*
X130149939Y-92729000D01*
X130349898Y-92689226D01*
X130538256Y-92611205D01*
X130707774Y-92497937D01*
X130851937Y-92353774D01*
X130965205Y-92184256D01*
X131043226Y-91995898D01*
X131083000Y-91795939D01*
X131083000Y-91592061D01*
X131043226Y-91392102D01*
X130965205Y-91203744D01*
X130851937Y-91034226D01*
X130707774Y-90890063D01*
X130538256Y-90776795D01*
X130349898Y-90698774D01*
X130149939Y-90659000D01*
X129946061Y-90659000D01*
X129746102Y-90698774D01*
X129557744Y-90776795D01*
X129388226Y-90890063D01*
X129244063Y-91034226D01*
X129130795Y-91203744D01*
X129052774Y-91392102D01*
X129013000Y-91592061D01*
X129013000Y-91651370D01*
X125725649Y-94938721D01*
X125696579Y-94962578D01*
X125672722Y-94991648D01*
X125672721Y-94991649D01*
X125601355Y-95078608D01*
X125530599Y-95210985D01*
X125487027Y-95354622D01*
X125472314Y-95504000D01*
X125476001Y-95541433D01*
X125476001Y-95818288D01*
X125434063Y-95860226D01*
X125320795Y-96029744D01*
X125242774Y-96218102D01*
X125203000Y-96418061D01*
X115493000Y-96418061D01*
X115493000Y-84830475D01*
X118269000Y-84830475D01*
X118269000Y-85349525D01*
X118370261Y-85858601D01*
X118568893Y-86338141D01*
X118857262Y-86769715D01*
X119224285Y-87136738D01*
X119655859Y-87425107D01*
X120135399Y-87623739D01*
X120644475Y-87725000D01*
X121163525Y-87725000D01*
X121672601Y-87623739D01*
X122152141Y-87425107D01*
X122583715Y-87136738D01*
X122950738Y-86769715D01*
X123239107Y-86338141D01*
X123437739Y-85858601D01*
X123539000Y-85349525D01*
X123539000Y-84952408D01*
X129921000Y-84952408D01*
X129921000Y-85227592D01*
X129974686Y-85497490D01*
X130079995Y-85751727D01*
X130232880Y-85980535D01*
X130427465Y-86175120D01*
X130656273Y-86328005D01*
X130910510Y-86433314D01*
X131180408Y-86487000D01*
X131455592Y-86487000D01*
X131725490Y-86433314D01*
X131979727Y-86328005D01*
X132208535Y-86175120D01*
X132403120Y-85980535D01*
X132556005Y-85751727D01*
X132588000Y-85674485D01*
X132619995Y-85751727D01*
X132772880Y-85980535D01*
X132967465Y-86175120D01*
X133196273Y-86328005D01*
X133450510Y-86433314D01*
X133720408Y-86487000D01*
X133995592Y-86487000D01*
X134265490Y-86433314D01*
X134519727Y-86328005D01*
X134748535Y-86175120D01*
X134943120Y-85980535D01*
X135096005Y-85751727D01*
X135128000Y-85674485D01*
X135159995Y-85751727D01*
X135312880Y-85980535D01*
X135507465Y-86175120D01*
X135736273Y-86328005D01*
X135990510Y-86433314D01*
X136260408Y-86487000D01*
X136535592Y-86487000D01*
X136805490Y-86433314D01*
X137059727Y-86328005D01*
X137288535Y-86175120D01*
X137483120Y-85980535D01*
X137636005Y-85751727D01*
X137668000Y-85674485D01*
X137699995Y-85751727D01*
X137852880Y-85980535D01*
X138047465Y-86175120D01*
X138276273Y-86328005D01*
X138530510Y-86433314D01*
X138800408Y-86487000D01*
X139075592Y-86487000D01*
X139345490Y-86433314D01*
X139599727Y-86328005D01*
X139828535Y-86175120D01*
X140023120Y-85980535D01*
X140176005Y-85751727D01*
X140208000Y-85674485D01*
X140239995Y-85751727D01*
X140392880Y-85980535D01*
X140587465Y-86175120D01*
X140816273Y-86328005D01*
X141070510Y-86433314D01*
X141340408Y-86487000D01*
X141615592Y-86487000D01*
X141885490Y-86433314D01*
X142139727Y-86328005D01*
X142368535Y-86175120D01*
X142563120Y-85980535D01*
X142716005Y-85751727D01*
X142748000Y-85674485D01*
X142779995Y-85751727D01*
X142932880Y-85980535D01*
X143127465Y-86175120D01*
X143356273Y-86328005D01*
X143610510Y-86433314D01*
X143880408Y-86487000D01*
X144155592Y-86487000D01*
X144425490Y-86433314D01*
X144679727Y-86328005D01*
X144908535Y-86175120D01*
X145103120Y-85980535D01*
X145256005Y-85751727D01*
X145288000Y-85674485D01*
X145319995Y-85751727D01*
X145472880Y-85980535D01*
X145667465Y-86175120D01*
X145896273Y-86328005D01*
X146150510Y-86433314D01*
X146420408Y-86487000D01*
X146695592Y-86487000D01*
X146965490Y-86433314D01*
X147219727Y-86328005D01*
X147448535Y-86175120D01*
X147643120Y-85980535D01*
X147796005Y-85751727D01*
X147828000Y-85674485D01*
X147859995Y-85751727D01*
X148012880Y-85980535D01*
X148207465Y-86175120D01*
X148436273Y-86328005D01*
X148690510Y-86433314D01*
X148960408Y-86487000D01*
X149235592Y-86487000D01*
X149505490Y-86433314D01*
X149759727Y-86328005D01*
X149988535Y-86175120D01*
X150183120Y-85980535D01*
X150336005Y-85751727D01*
X150368000Y-85674485D01*
X150399995Y-85751727D01*
X150552880Y-85980535D01*
X150747465Y-86175120D01*
X150976273Y-86328005D01*
X151230510Y-86433314D01*
X151500408Y-86487000D01*
X151775592Y-86487000D01*
X152045490Y-86433314D01*
X152299727Y-86328005D01*
X152528535Y-86175120D01*
X152723120Y-85980535D01*
X152876005Y-85751727D01*
X152908000Y-85674485D01*
X152939995Y-85751727D01*
X153092880Y-85980535D01*
X153287465Y-86175120D01*
X153516273Y-86328005D01*
X153770510Y-86433314D01*
X154040408Y-86487000D01*
X154315592Y-86487000D01*
X154585490Y-86433314D01*
X154839727Y-86328005D01*
X155068535Y-86175120D01*
X155263120Y-85980535D01*
X155416005Y-85751727D01*
X155448000Y-85674485D01*
X155479995Y-85751727D01*
X155632880Y-85980535D01*
X155827465Y-86175120D01*
X156056273Y-86328005D01*
X156310510Y-86433314D01*
X156580408Y-86487000D01*
X156855592Y-86487000D01*
X157125490Y-86433314D01*
X157379727Y-86328005D01*
X157608535Y-86175120D01*
X157803120Y-85980535D01*
X157956005Y-85751727D01*
X157988000Y-85674485D01*
X158019995Y-85751727D01*
X158172880Y-85980535D01*
X158367465Y-86175120D01*
X158596273Y-86328005D01*
X158850510Y-86433314D01*
X159120408Y-86487000D01*
X159395592Y-86487000D01*
X159665490Y-86433314D01*
X159919727Y-86328005D01*
X160148535Y-86175120D01*
X160343120Y-85980535D01*
X160496005Y-85751727D01*
X160528000Y-85674485D01*
X160559995Y-85751727D01*
X160712880Y-85980535D01*
X160907465Y-86175120D01*
X161136273Y-86328005D01*
X161390510Y-86433314D01*
X161660408Y-86487000D01*
X161935592Y-86487000D01*
X162205490Y-86433314D01*
X162459727Y-86328005D01*
X162688535Y-86175120D01*
X162808090Y-86055565D01*
X163552040Y-86055565D01*
X163619020Y-86295656D01*
X163868048Y-86412756D01*
X164135135Y-86479023D01*
X164410017Y-86491910D01*
X164682133Y-86450922D01*
X164941023Y-86357636D01*
X165056980Y-86295656D01*
X165123960Y-86055565D01*
X164338000Y-85269605D01*
X163552040Y-86055565D01*
X162808090Y-86055565D01*
X162883120Y-85980535D01*
X163036005Y-85751727D01*
X163065692Y-85680057D01*
X163070364Y-85693023D01*
X163132344Y-85808980D01*
X163372435Y-85875960D01*
X164158395Y-85090000D01*
X164517605Y-85090000D01*
X165303565Y-85875960D01*
X165543656Y-85808980D01*
X165607485Y-85673240D01*
X165639995Y-85751727D01*
X165792880Y-85980535D01*
X165987465Y-86175120D01*
X166216273Y-86328005D01*
X166470510Y-86433314D01*
X166740408Y-86487000D01*
X167015592Y-86487000D01*
X167285490Y-86433314D01*
X167539727Y-86328005D01*
X167768535Y-86175120D01*
X167963120Y-85980535D01*
X168116005Y-85751727D01*
X168221314Y-85497490D01*
X168275000Y-85227592D01*
X168275000Y-84952408D01*
X168250747Y-84830475D01*
X178467000Y-84830475D01*
X178467000Y-85349525D01*
X178568261Y-85858601D01*
X178766893Y-86338141D01*
X179055262Y-86769715D01*
X179422285Y-87136738D01*
X179853859Y-87425107D01*
X180333399Y-87623739D01*
X180842475Y-87725000D01*
X181361525Y-87725000D01*
X181870601Y-87623739D01*
X182350141Y-87425107D01*
X182781715Y-87136738D01*
X183148738Y-86769715D01*
X183437107Y-86338141D01*
X183635739Y-85858601D01*
X183737000Y-85349525D01*
X183737000Y-84830475D01*
X183635739Y-84321399D01*
X183437107Y-83841859D01*
X183148738Y-83410285D01*
X182781715Y-83043262D01*
X182350141Y-82754893D01*
X181870601Y-82556261D01*
X181361525Y-82455000D01*
X180842475Y-82455000D01*
X180333399Y-82556261D01*
X179853859Y-82754893D01*
X179422285Y-83043262D01*
X179055262Y-83410285D01*
X178766893Y-83841859D01*
X178568261Y-84321399D01*
X178467000Y-84830475D01*
X168250747Y-84830475D01*
X168221314Y-84682510D01*
X168116005Y-84428273D01*
X167963120Y-84199465D01*
X167768535Y-84004880D01*
X167539727Y-83851995D01*
X167285490Y-83746686D01*
X167015592Y-83693000D01*
X166740408Y-83693000D01*
X166470510Y-83746686D01*
X166216273Y-83851995D01*
X165987465Y-84004880D01*
X165792880Y-84199465D01*
X165639995Y-84428273D01*
X165610308Y-84499943D01*
X165605636Y-84486977D01*
X165543656Y-84371020D01*
X165303565Y-84304040D01*
X164517605Y-85090000D01*
X164158395Y-85090000D01*
X163372435Y-84304040D01*
X163132344Y-84371020D01*
X163068515Y-84506760D01*
X163036005Y-84428273D01*
X162883120Y-84199465D01*
X162808090Y-84124435D01*
X163552040Y-84124435D01*
X164338000Y-84910395D01*
X165123960Y-84124435D01*
X165056980Y-83884344D01*
X164807952Y-83767244D01*
X164540865Y-83700977D01*
X164265983Y-83688090D01*
X163993867Y-83729078D01*
X163734977Y-83822364D01*
X163619020Y-83884344D01*
X163552040Y-84124435D01*
X162808090Y-84124435D01*
X162688535Y-84004880D01*
X162459727Y-83851995D01*
X162205490Y-83746686D01*
X161935592Y-83693000D01*
X161660408Y-83693000D01*
X161390510Y-83746686D01*
X161136273Y-83851995D01*
X160907465Y-84004880D01*
X160712880Y-84199465D01*
X160559995Y-84428273D01*
X160528000Y-84505515D01*
X160496005Y-84428273D01*
X160343120Y-84199465D01*
X160148535Y-84004880D01*
X159919727Y-83851995D01*
X159665490Y-83746686D01*
X159395592Y-83693000D01*
X159120408Y-83693000D01*
X158850510Y-83746686D01*
X158596273Y-83851995D01*
X158367465Y-84004880D01*
X158172880Y-84199465D01*
X158019995Y-84428273D01*
X157988000Y-84505515D01*
X157956005Y-84428273D01*
X157803120Y-84199465D01*
X157608535Y-84004880D01*
X157379727Y-83851995D01*
X157125490Y-83746686D01*
X156855592Y-83693000D01*
X156580408Y-83693000D01*
X156310510Y-83746686D01*
X156056273Y-83851995D01*
X155827465Y-84004880D01*
X155632880Y-84199465D01*
X155479995Y-84428273D01*
X155448000Y-84505515D01*
X155416005Y-84428273D01*
X155263120Y-84199465D01*
X155068535Y-84004880D01*
X154839727Y-83851995D01*
X154585490Y-83746686D01*
X154315592Y-83693000D01*
X154040408Y-83693000D01*
X153770510Y-83746686D01*
X153516273Y-83851995D01*
X153287465Y-84004880D01*
X153092880Y-84199465D01*
X152939995Y-84428273D01*
X152908000Y-84505515D01*
X152876005Y-84428273D01*
X152723120Y-84199465D01*
X152528535Y-84004880D01*
X152299727Y-83851995D01*
X152045490Y-83746686D01*
X151775592Y-83693000D01*
X151500408Y-83693000D01*
X151230510Y-83746686D01*
X150976273Y-83851995D01*
X150747465Y-84004880D01*
X150552880Y-84199465D01*
X150399995Y-84428273D01*
X150368000Y-84505515D01*
X150336005Y-84428273D01*
X150183120Y-84199465D01*
X149988535Y-84004880D01*
X149759727Y-83851995D01*
X149505490Y-83746686D01*
X149235592Y-83693000D01*
X148960408Y-83693000D01*
X148690510Y-83746686D01*
X148436273Y-83851995D01*
X148207465Y-84004880D01*
X148012880Y-84199465D01*
X147859995Y-84428273D01*
X147828000Y-84505515D01*
X147796005Y-84428273D01*
X147643120Y-84199465D01*
X147448535Y-84004880D01*
X147219727Y-83851995D01*
X146965490Y-83746686D01*
X146695592Y-83693000D01*
X146420408Y-83693000D01*
X146150510Y-83746686D01*
X145896273Y-83851995D01*
X145667465Y-84004880D01*
X145472880Y-84199465D01*
X145319995Y-84428273D01*
X145288000Y-84505515D01*
X145256005Y-84428273D01*
X145103120Y-84199465D01*
X144908535Y-84004880D01*
X144679727Y-83851995D01*
X144425490Y-83746686D01*
X144155592Y-83693000D01*
X143880408Y-83693000D01*
X143610510Y-83746686D01*
X143356273Y-83851995D01*
X143127465Y-84004880D01*
X142932880Y-84199465D01*
X142779995Y-84428273D01*
X142748000Y-84505515D01*
X142716005Y-84428273D01*
X142563120Y-84199465D01*
X142368535Y-84004880D01*
X142139727Y-83851995D01*
X141885490Y-83746686D01*
X141615592Y-83693000D01*
X141340408Y-83693000D01*
X141070510Y-83746686D01*
X140816273Y-83851995D01*
X140587465Y-84004880D01*
X140392880Y-84199465D01*
X140239995Y-84428273D01*
X140208000Y-84505515D01*
X140176005Y-84428273D01*
X140023120Y-84199465D01*
X139828535Y-84004880D01*
X139599727Y-83851995D01*
X139345490Y-83746686D01*
X139075592Y-83693000D01*
X138800408Y-83693000D01*
X138530510Y-83746686D01*
X138276273Y-83851995D01*
X138047465Y-84004880D01*
X137852880Y-84199465D01*
X137699995Y-84428273D01*
X137668000Y-84505515D01*
X137636005Y-84428273D01*
X137483120Y-84199465D01*
X137288535Y-84004880D01*
X137059727Y-83851995D01*
X136805490Y-83746686D01*
X136535592Y-83693000D01*
X136260408Y-83693000D01*
X135990510Y-83746686D01*
X135736273Y-83851995D01*
X135507465Y-84004880D01*
X135312880Y-84199465D01*
X135159995Y-84428273D01*
X135128000Y-84505515D01*
X135096005Y-84428273D01*
X134943120Y-84199465D01*
X134748535Y-84004880D01*
X134519727Y-83851995D01*
X134265490Y-83746686D01*
X133995592Y-83693000D01*
X133720408Y-83693000D01*
X133450510Y-83746686D01*
X133196273Y-83851995D01*
X132967465Y-84004880D01*
X132772880Y-84199465D01*
X132619995Y-84428273D01*
X132588000Y-84505515D01*
X132556005Y-84428273D01*
X132403120Y-84199465D01*
X132208535Y-84004880D01*
X131979727Y-83851995D01*
X131725490Y-83746686D01*
X131455592Y-83693000D01*
X131180408Y-83693000D01*
X130910510Y-83746686D01*
X130656273Y-83851995D01*
X130427465Y-84004880D01*
X130232880Y-84199465D01*
X130079995Y-84428273D01*
X129974686Y-84682510D01*
X129921000Y-84952408D01*
X123539000Y-84952408D01*
X123539000Y-84830475D01*
X123437739Y-84321399D01*
X123239107Y-83841859D01*
X122950738Y-83410285D01*
X122583715Y-83043262D01*
X122152141Y-82754893D01*
X121672601Y-82556261D01*
X121163525Y-82455000D01*
X120644475Y-82455000D01*
X120135399Y-82556261D01*
X119655859Y-82754893D01*
X119224285Y-83043262D01*
X118857262Y-83410285D01*
X118568893Y-83841859D01*
X118370261Y-84321399D01*
X118269000Y-84830475D01*
X115493000Y-84830475D01*
X115493000Y-80187000D01*
X186259001Y-80187000D01*
X186259000Y-114885000D01*
M02*
