G04 #@! TF.GenerationSoftware,KiCad,Pcbnew,(5.1.6)-1*
G04 #@! TF.CreationDate,2020-10-09T19:42:38+02:00*
G04 #@! TF.ProjectId,Brewnode_MCU_Adapter,42726577-6e6f-4646-955f-4d43555f4164,rev?*
G04 #@! TF.SameCoordinates,Original*
G04 #@! TF.FileFunction,Legend,Top*
G04 #@! TF.FilePolarity,Positive*
%FSLAX46Y46*%
G04 Gerber Fmt 4.6, Leading zero omitted, Abs format (unit mm)*
G04 Created by KiCad (PCBNEW (5.1.6)-1) date 2020-10-09 19:42:38*
%MOMM*%
%LPD*%
G01*
G04 APERTURE LIST*
%ADD10C,0.300000*%
%ADD11C,1.000000*%
%ADD12C,0.120000*%
%ADD13C,0.800000*%
%ADD14C,0.150000*%
G04 APERTURE END LIST*
D10*
X132955142Y-82153142D02*
X133621809Y-82153142D01*
X133907523Y-83200761D02*
X132955142Y-83200761D01*
X132955142Y-81200761D01*
X133907523Y-81200761D01*
X134669428Y-83105523D02*
X134955142Y-83200761D01*
X135431333Y-83200761D01*
X135621809Y-83105523D01*
X135717047Y-83010285D01*
X135812285Y-82819809D01*
X135812285Y-82629333D01*
X135717047Y-82438857D01*
X135621809Y-82343619D01*
X135431333Y-82248380D01*
X135050380Y-82153142D01*
X134859904Y-82057904D01*
X134764666Y-81962666D01*
X134669428Y-81772190D01*
X134669428Y-81581714D01*
X134764666Y-81391238D01*
X134859904Y-81296000D01*
X135050380Y-81200761D01*
X135526571Y-81200761D01*
X135812285Y-81296000D01*
X136669428Y-83200761D02*
X136669428Y-81200761D01*
X137431333Y-81200761D01*
X137621809Y-81296000D01*
X137717047Y-81391238D01*
X137812285Y-81581714D01*
X137812285Y-81867428D01*
X137717047Y-82057904D01*
X137621809Y-82153142D01*
X137431333Y-82248380D01*
X136669428Y-82248380D01*
X138478952Y-81200761D02*
X139717047Y-81200761D01*
X139050380Y-81962666D01*
X139336095Y-81962666D01*
X139526571Y-82057904D01*
X139621809Y-82153142D01*
X139717047Y-82343619D01*
X139717047Y-82819809D01*
X139621809Y-83010285D01*
X139526571Y-83105523D01*
X139336095Y-83200761D01*
X138764666Y-83200761D01*
X138574190Y-83105523D01*
X138478952Y-83010285D01*
X140478952Y-81391238D02*
X140574190Y-81296000D01*
X140764666Y-81200761D01*
X141240857Y-81200761D01*
X141431333Y-81296000D01*
X141526571Y-81391238D01*
X141621809Y-81581714D01*
X141621809Y-81772190D01*
X141526571Y-82057904D01*
X140383714Y-83200761D01*
X141621809Y-83200761D01*
X144002761Y-83200761D02*
X144002761Y-81200761D01*
X144478952Y-81200761D01*
X144764666Y-81296000D01*
X144955142Y-81486476D01*
X145050380Y-81676952D01*
X145145619Y-82057904D01*
X145145619Y-82343619D01*
X145050380Y-82724571D01*
X144955142Y-82915047D01*
X144764666Y-83105523D01*
X144478952Y-83200761D01*
X144002761Y-83200761D01*
X146764666Y-83105523D02*
X146574190Y-83200761D01*
X146193238Y-83200761D01*
X146002761Y-83105523D01*
X145907523Y-82915047D01*
X145907523Y-82153142D01*
X146002761Y-81962666D01*
X146193238Y-81867428D01*
X146574190Y-81867428D01*
X146764666Y-81962666D01*
X146859904Y-82153142D01*
X146859904Y-82343619D01*
X145907523Y-82534095D01*
X147526571Y-81867428D02*
X148002761Y-83200761D01*
X148478952Y-81867428D01*
X149240857Y-83200761D02*
X149240857Y-81200761D01*
X149431333Y-82438857D02*
X150002761Y-83200761D01*
X150002761Y-81867428D02*
X149240857Y-82629333D01*
X150859904Y-83200761D02*
X150859904Y-81867428D01*
X150859904Y-81200761D02*
X150764666Y-81296000D01*
X150859904Y-81391238D01*
X150955142Y-81296000D01*
X150859904Y-81200761D01*
X150859904Y-81391238D01*
X151526571Y-81867428D02*
X152288476Y-81867428D01*
X151812285Y-81200761D02*
X151812285Y-82915047D01*
X151907523Y-83105523D01*
X152098000Y-83200761D01*
X152288476Y-83200761D01*
X154193238Y-81200761D02*
X154859904Y-83200761D01*
X155526571Y-81200761D01*
X157240857Y-83200761D02*
X156098000Y-83200761D01*
X156669428Y-83200761D02*
X156669428Y-81200761D01*
X156478952Y-81486476D01*
X156288476Y-81676952D01*
X156098000Y-81772190D01*
X159621809Y-83200761D02*
X159621809Y-81200761D01*
X160098000Y-81200761D01*
X160383714Y-81296000D01*
X160574190Y-81486476D01*
X160669428Y-81676952D01*
X160764666Y-82057904D01*
X160764666Y-82343619D01*
X160669428Y-82724571D01*
X160574190Y-82915047D01*
X160383714Y-83105523D01*
X160098000Y-83200761D01*
X159621809Y-83200761D01*
X162002761Y-81200761D02*
X162383714Y-81200761D01*
X162574190Y-81296000D01*
X162764666Y-81486476D01*
X162859904Y-81867428D01*
X162859904Y-82534095D01*
X162764666Y-82915047D01*
X162574190Y-83105523D01*
X162383714Y-83200761D01*
X162002761Y-83200761D01*
X161812285Y-83105523D01*
X161621809Y-82915047D01*
X161526571Y-82534095D01*
X161526571Y-81867428D01*
X161621809Y-81486476D01*
X161812285Y-81296000D01*
X162002761Y-81200761D01*
X163717047Y-83200761D02*
X163717047Y-81200761D01*
X164383714Y-81200761D02*
X165526571Y-81200761D01*
X164955142Y-83200761D02*
X164955142Y-81200761D01*
X134193238Y-113141142D02*
X134478952Y-113236380D01*
X134574190Y-113331619D01*
X134669428Y-113522095D01*
X134669428Y-113807809D01*
X134574190Y-113998285D01*
X134478952Y-114093523D01*
X134288476Y-114188761D01*
X133526571Y-114188761D01*
X133526571Y-112188761D01*
X134193238Y-112188761D01*
X134383714Y-112284000D01*
X134478952Y-112379238D01*
X134574190Y-112569714D01*
X134574190Y-112760190D01*
X134478952Y-112950666D01*
X134383714Y-113045904D01*
X134193238Y-113141142D01*
X133526571Y-113141142D01*
X135526571Y-114188761D02*
X135526571Y-112855428D01*
X135526571Y-113236380D02*
X135621809Y-113045904D01*
X135717047Y-112950666D01*
X135907523Y-112855428D01*
X136098000Y-112855428D01*
X137526571Y-114093523D02*
X137336095Y-114188761D01*
X136955142Y-114188761D01*
X136764666Y-114093523D01*
X136669428Y-113903047D01*
X136669428Y-113141142D01*
X136764666Y-112950666D01*
X136955142Y-112855428D01*
X137336095Y-112855428D01*
X137526571Y-112950666D01*
X137621809Y-113141142D01*
X137621809Y-113331619D01*
X136669428Y-113522095D01*
X138288476Y-112855428D02*
X138669428Y-114188761D01*
X139050380Y-113236380D01*
X139431333Y-114188761D01*
X139812285Y-112855428D01*
X140574190Y-112855428D02*
X140574190Y-114188761D01*
X140574190Y-113045904D02*
X140669428Y-112950666D01*
X140859904Y-112855428D01*
X141145619Y-112855428D01*
X141336095Y-112950666D01*
X141431333Y-113141142D01*
X141431333Y-114188761D01*
X142669428Y-114188761D02*
X142478952Y-114093523D01*
X142383714Y-113998285D01*
X142288476Y-113807809D01*
X142288476Y-113236380D01*
X142383714Y-113045904D01*
X142478952Y-112950666D01*
X142669428Y-112855428D01*
X142955142Y-112855428D01*
X143145619Y-112950666D01*
X143240857Y-113045904D01*
X143336095Y-113236380D01*
X143336095Y-113807809D01*
X143240857Y-113998285D01*
X143145619Y-114093523D01*
X142955142Y-114188761D01*
X142669428Y-114188761D01*
X145050380Y-114188761D02*
X145050380Y-112188761D01*
X145050380Y-114093523D02*
X144859904Y-114188761D01*
X144478952Y-114188761D01*
X144288476Y-114093523D01*
X144193238Y-113998285D01*
X144098000Y-113807809D01*
X144098000Y-113236380D01*
X144193238Y-113045904D01*
X144288476Y-112950666D01*
X144478952Y-112855428D01*
X144859904Y-112855428D01*
X145050380Y-112950666D01*
X146764666Y-114093523D02*
X146574190Y-114188761D01*
X146193238Y-114188761D01*
X146002761Y-114093523D01*
X145907523Y-113903047D01*
X145907523Y-113141142D01*
X146002761Y-112950666D01*
X146193238Y-112855428D01*
X146574190Y-112855428D01*
X146764666Y-112950666D01*
X146859904Y-113141142D01*
X146859904Y-113331619D01*
X145907523Y-113522095D01*
X148955142Y-112188761D02*
X149621809Y-114188761D01*
X150288476Y-112188761D01*
X152002761Y-114188761D02*
X150859904Y-114188761D01*
X151431333Y-114188761D02*
X151431333Y-112188761D01*
X151240857Y-112474476D01*
X151050380Y-112664952D01*
X150859904Y-112760190D01*
X154288476Y-113617333D02*
X155240857Y-113617333D01*
X154098000Y-114188761D02*
X154764666Y-112188761D01*
X155431333Y-114188761D01*
X156955142Y-114188761D02*
X156955142Y-112188761D01*
X156955142Y-114093523D02*
X156764666Y-114188761D01*
X156383714Y-114188761D01*
X156193238Y-114093523D01*
X156098000Y-113998285D01*
X156002761Y-113807809D01*
X156002761Y-113236380D01*
X156098000Y-113045904D01*
X156193238Y-112950666D01*
X156383714Y-112855428D01*
X156764666Y-112855428D01*
X156955142Y-112950666D01*
X158764666Y-114188761D02*
X158764666Y-113141142D01*
X158669428Y-112950666D01*
X158478952Y-112855428D01*
X158098000Y-112855428D01*
X157907523Y-112950666D01*
X158764666Y-114093523D02*
X158574190Y-114188761D01*
X158098000Y-114188761D01*
X157907523Y-114093523D01*
X157812285Y-113903047D01*
X157812285Y-113712571D01*
X157907523Y-113522095D01*
X158098000Y-113426857D01*
X158574190Y-113426857D01*
X158764666Y-113331619D01*
X159717047Y-112855428D02*
X159717047Y-114855428D01*
X159717047Y-112950666D02*
X159907523Y-112855428D01*
X160288476Y-112855428D01*
X160478952Y-112950666D01*
X160574190Y-113045904D01*
X160669428Y-113236380D01*
X160669428Y-113807809D01*
X160574190Y-113998285D01*
X160478952Y-114093523D01*
X160288476Y-114188761D01*
X159907523Y-114188761D01*
X159717047Y-114093523D01*
X161240857Y-112855428D02*
X162002761Y-112855428D01*
X161526571Y-112188761D02*
X161526571Y-113903047D01*
X161621809Y-114093523D01*
X161812285Y-114188761D01*
X162002761Y-114188761D01*
X163431333Y-114093523D02*
X163240857Y-114188761D01*
X162859904Y-114188761D01*
X162669428Y-114093523D01*
X162574190Y-113903047D01*
X162574190Y-113141142D01*
X162669428Y-112950666D01*
X162859904Y-112855428D01*
X163240857Y-112855428D01*
X163431333Y-112950666D01*
X163526571Y-113141142D01*
X163526571Y-113331619D01*
X162574190Y-113522095D01*
X164383714Y-114188761D02*
X164383714Y-112855428D01*
X164383714Y-113236380D02*
X164478952Y-113045904D01*
X164574190Y-112950666D01*
X164764666Y-112855428D01*
X164955142Y-112855428D01*
D11*
X174473000Y-90170000D02*
G75*
G03*
X174473000Y-90170000I-300000J0D01*
G01*
X174473000Y-105410000D02*
G75*
G03*
X174473000Y-105410000I-300000J0D01*
G01*
D12*
X172268000Y-104140000D02*
X176078000Y-104140000D01*
X172268000Y-106680000D02*
X172268000Y-104140000D01*
X176078000Y-106680000D02*
X172268000Y-106680000D01*
X176078000Y-104140000D02*
X176078000Y-106680000D01*
X176078000Y-91440000D02*
X172268000Y-91440000D01*
X176078000Y-88900000D02*
X176078000Y-91440000D01*
X172268000Y-88900000D02*
X176078000Y-88900000D01*
X172268000Y-91440000D02*
X172268000Y-88900000D01*
D13*
X148538000Y-102870000D02*
G75*
G03*
X148538000Y-102870000I-400000J0D01*
G01*
D12*
X150278000Y-105290000D02*
X132278000Y-105290000D01*
X150278000Y-90290000D02*
X150278000Y-105290000D01*
X132278000Y-90290000D02*
X150278000Y-90290000D01*
X132278000Y-105290000D02*
X132278000Y-90290000D01*
X127310000Y-92710000D02*
X130866000Y-92710000D01*
X127310000Y-90170000D02*
X130866000Y-90170000D01*
X127310000Y-95250000D02*
X127310000Y-90170000D01*
X129342000Y-95250000D02*
X127310000Y-95250000D01*
X129342000Y-97790000D02*
X129342000Y-95250000D01*
X127310000Y-97790000D02*
X129342000Y-97790000D01*
X127310000Y-100330000D02*
X127310000Y-97790000D01*
X129342000Y-100330000D02*
X127310000Y-100330000D01*
X129342000Y-102870000D02*
X129342000Y-100330000D01*
X127310000Y-102870000D02*
X129342000Y-102870000D01*
X127310000Y-105410000D02*
X127310000Y-102870000D01*
X130866000Y-105410000D02*
X127310000Y-105410000D01*
X131628000Y-106680000D02*
X126548000Y-106680000D01*
X131628000Y-88900000D02*
X131628000Y-106680000D01*
X126548000Y-88900000D02*
X131628000Y-88900000D01*
X126548000Y-106680000D02*
X126548000Y-88900000D01*
X170778000Y-101790000D02*
X170778000Y-93790000D01*
X170778000Y-93790000D02*
X176778000Y-93790000D01*
X170778000Y-101790000D02*
X176778000Y-101790000D01*
X176278000Y-86090000D02*
G75*
G03*
X176278000Y-86090000I-1500000J0D01*
G01*
X176278000Y-109490000D02*
G75*
G03*
X176278000Y-109490000I-1500000J0D01*
G01*
X125278000Y-109790000D02*
X125278000Y-85790000D01*
X176778000Y-109790000D02*
X176778000Y-85790000D01*
X127278000Y-111790000D02*
X174778000Y-111790000D01*
X174778000Y-83790000D02*
X127278000Y-83790000D01*
X128778000Y-86090000D02*
G75*
G03*
X128778000Y-86090000I-1500000J0D01*
G01*
X128778000Y-109490000D02*
G75*
G03*
X128778000Y-109490000I-1500000J0D01*
G01*
X174778000Y-83790000D02*
G75*
G02*
X176778000Y-85790000I0J-2000000D01*
G01*
X176778000Y-109790000D02*
G75*
G02*
X174778000Y-111790000I-2000000J0D01*
G01*
X127278000Y-111790000D02*
G75*
G02*
X125278000Y-109790000I0J2000000D01*
G01*
X125278000Y-85790000D02*
G75*
G02*
X127278000Y-83790000I2000000J0D01*
G01*
D14*
X141240380Y-98551904D02*
X142049904Y-98551904D01*
X142145142Y-98504285D01*
X142192761Y-98456666D01*
X142240380Y-98361428D01*
X142240380Y-98170952D01*
X142192761Y-98075714D01*
X142145142Y-98028095D01*
X142049904Y-97980476D01*
X141240380Y-97980476D01*
X142240380Y-96980476D02*
X142240380Y-97551904D01*
X142240380Y-97266190D02*
X141240380Y-97266190D01*
X141383238Y-97361428D01*
X141478476Y-97456666D01*
X141526095Y-97551904D01*
X170926571Y-107671904D02*
X170926571Y-107338571D01*
X171450380Y-107195714D02*
X171450380Y-107671904D01*
X170450380Y-107671904D01*
X170450380Y-107195714D01*
X170783714Y-106767142D02*
X171450380Y-106767142D01*
X170878952Y-106767142D02*
X170831333Y-106719523D01*
X170783714Y-106624285D01*
X170783714Y-106481428D01*
X170831333Y-106386190D01*
X170926571Y-106338571D01*
X171450380Y-106338571D01*
X171450380Y-105433809D02*
X170926571Y-105433809D01*
X170831333Y-105481428D01*
X170783714Y-105576666D01*
X170783714Y-105767142D01*
X170831333Y-105862380D01*
X171402761Y-105433809D02*
X171450380Y-105529047D01*
X171450380Y-105767142D01*
X171402761Y-105862380D01*
X171307523Y-105910000D01*
X171212285Y-105910000D01*
X171117047Y-105862380D01*
X171069428Y-105767142D01*
X171069428Y-105529047D01*
X171021809Y-105433809D01*
X171450380Y-104957619D02*
X170450380Y-104957619D01*
X170831333Y-104957619D02*
X170783714Y-104862380D01*
X170783714Y-104671904D01*
X170831333Y-104576666D01*
X170878952Y-104529047D01*
X170974190Y-104481428D01*
X171259904Y-104481428D01*
X171355142Y-104529047D01*
X171402761Y-104576666D01*
X171450380Y-104671904D01*
X171450380Y-104862380D01*
X171402761Y-104957619D01*
X171450380Y-103910000D02*
X171402761Y-104005238D01*
X171307523Y-104052857D01*
X170450380Y-104052857D01*
X171402761Y-103148095D02*
X171450380Y-103243333D01*
X171450380Y-103433809D01*
X171402761Y-103529047D01*
X171307523Y-103576666D01*
X170926571Y-103576666D01*
X170831333Y-103529047D01*
X170783714Y-103433809D01*
X170783714Y-103243333D01*
X170831333Y-103148095D01*
X170926571Y-103100476D01*
X171021809Y-103100476D01*
X171117047Y-103576666D01*
X170926571Y-91289047D02*
X170974190Y-91146190D01*
X171021809Y-91098571D01*
X171117047Y-91050952D01*
X171259904Y-91050952D01*
X171355142Y-91098571D01*
X171402761Y-91146190D01*
X171450380Y-91241428D01*
X171450380Y-91622380D01*
X170450380Y-91622380D01*
X170450380Y-91289047D01*
X170498000Y-91193809D01*
X170545619Y-91146190D01*
X170640857Y-91098571D01*
X170736095Y-91098571D01*
X170831333Y-91146190D01*
X170878952Y-91193809D01*
X170926571Y-91289047D01*
X170926571Y-91622380D01*
X171450380Y-90479523D02*
X171402761Y-90574761D01*
X171355142Y-90622380D01*
X171259904Y-90670000D01*
X170974190Y-90670000D01*
X170878952Y-90622380D01*
X170831333Y-90574761D01*
X170783714Y-90479523D01*
X170783714Y-90336666D01*
X170831333Y-90241428D01*
X170878952Y-90193809D01*
X170974190Y-90146190D01*
X171259904Y-90146190D01*
X171355142Y-90193809D01*
X171402761Y-90241428D01*
X171450380Y-90336666D01*
X171450380Y-90479523D01*
X171450380Y-89574761D02*
X171402761Y-89670000D01*
X171355142Y-89717619D01*
X171259904Y-89765238D01*
X170974190Y-89765238D01*
X170878952Y-89717619D01*
X170831333Y-89670000D01*
X170783714Y-89574761D01*
X170783714Y-89431904D01*
X170831333Y-89336666D01*
X170878952Y-89289047D01*
X170974190Y-89241428D01*
X171259904Y-89241428D01*
X171355142Y-89289047D01*
X171402761Y-89336666D01*
X171450380Y-89431904D01*
X171450380Y-89574761D01*
X170783714Y-88955714D02*
X170783714Y-88574761D01*
X170450380Y-88812857D02*
X171307523Y-88812857D01*
X171402761Y-88765238D01*
X171450380Y-88670000D01*
X171450380Y-88574761D01*
X174260380Y-99051904D02*
X175069904Y-99051904D01*
X175165142Y-99004285D01*
X175212761Y-98956666D01*
X175260380Y-98861428D01*
X175260380Y-98670952D01*
X175212761Y-98575714D01*
X175165142Y-98528095D01*
X175069904Y-98480476D01*
X174260380Y-98480476D01*
X175212761Y-98051904D02*
X175260380Y-97909047D01*
X175260380Y-97670952D01*
X175212761Y-97575714D01*
X175165142Y-97528095D01*
X175069904Y-97480476D01*
X174974666Y-97480476D01*
X174879428Y-97528095D01*
X174831809Y-97575714D01*
X174784190Y-97670952D01*
X174736571Y-97861428D01*
X174688952Y-97956666D01*
X174641333Y-98004285D01*
X174546095Y-98051904D01*
X174450857Y-98051904D01*
X174355619Y-98004285D01*
X174308000Y-97956666D01*
X174260380Y-97861428D01*
X174260380Y-97623333D01*
X174308000Y-97480476D01*
X174736571Y-96718571D02*
X174784190Y-96575714D01*
X174831809Y-96528095D01*
X174927047Y-96480476D01*
X175069904Y-96480476D01*
X175165142Y-96528095D01*
X175212761Y-96575714D01*
X175260380Y-96670952D01*
X175260380Y-97051904D01*
X174260380Y-97051904D01*
X174260380Y-96718571D01*
X174308000Y-96623333D01*
X174355619Y-96575714D01*
X174450857Y-96528095D01*
X174546095Y-96528095D01*
X174641333Y-96575714D01*
X174688952Y-96623333D01*
X174736571Y-96718571D01*
X174736571Y-97051904D01*
M02*
