G04 #@! TF.GenerationSoftware,KiCad,Pcbnew,(5.1.6)-1*
G04 #@! TF.CreationDate,2020-10-09T19:42:38+02:00*
G04 #@! TF.ProjectId,Brewnode_MCU_Adapter,42726577-6e6f-4646-955f-4d43555f4164,rev?*
G04 #@! TF.SameCoordinates,Original*
G04 #@! TF.FileFunction,Copper,L2,Bot*
G04 #@! TF.FilePolarity,Positive*
%FSLAX46Y46*%
G04 Gerber Fmt 4.6, Leading zero omitted, Abs format (unit mm)*
G04 Created by KiCad (PCBNEW (5.1.6)-1) date 2020-10-09 19:42:38*
%MOMM*%
%LPD*%
G01*
G04 APERTURE LIST*
G04 #@! TA.AperFunction,SMDPad,CuDef*
%ADD10R,1.100000X0.800000*%
G04 #@! TD*
G04 #@! TA.AperFunction,SMDPad,CuDef*
%ADD11R,0.800000X0.250000*%
G04 #@! TD*
G04 #@! TA.AperFunction,ComponentPad*
%ADD12C,1.524000*%
G04 #@! TD*
G04 #@! TA.AperFunction,ComponentPad*
%ADD13R,1.524000X1.524000*%
G04 #@! TD*
G04 #@! TA.AperFunction,ViaPad*
%ADD14C,0.800000*%
G04 #@! TD*
G04 #@! TA.AperFunction,Conductor*
%ADD15C,0.254000*%
G04 #@! TD*
G04 #@! TA.AperFunction,Conductor*
%ADD16C,1.016000*%
G04 #@! TD*
G04 APERTURE END LIST*
D10*
X117588000Y-92840000D03*
X117588000Y-102740000D03*
D11*
X119888000Y-94040000D03*
X119888000Y-94540000D03*
X119888000Y-95040000D03*
X119888000Y-95540000D03*
X119888000Y-96040000D03*
X119888000Y-96540000D03*
X119888000Y-97040000D03*
X119888000Y-97540000D03*
X119888000Y-98040000D03*
X119888000Y-98540000D03*
X119888000Y-99040000D03*
X119888000Y-99540000D03*
X119888000Y-100040000D03*
X119888000Y-100540000D03*
X119888000Y-101040000D03*
X119888000Y-101540000D03*
D12*
X131318000Y-85090000D03*
X133858000Y-85090000D03*
X136398000Y-85090000D03*
X138938000Y-85090000D03*
X141478000Y-85090000D03*
X144018000Y-85090000D03*
X146558000Y-85090000D03*
X149098000Y-85090000D03*
X151638000Y-85090000D03*
X154178000Y-85090000D03*
X156718000Y-85090000D03*
X159258000Y-85090000D03*
X161798000Y-85090000D03*
X164338000Y-85090000D03*
X166878000Y-85090000D03*
X166878000Y-110490000D03*
X164338000Y-110490000D03*
X161798000Y-110490000D03*
X159258000Y-110490000D03*
X156718000Y-110490000D03*
X154178000Y-110490000D03*
X151638000Y-110490000D03*
X149098000Y-110490000D03*
X146558000Y-110490000D03*
X144018000Y-110490000D03*
X141478000Y-110490000D03*
X138938000Y-110490000D03*
X136398000Y-110490000D03*
X133858000Y-110490000D03*
D13*
X131318000Y-110490000D03*
D14*
X147320000Y-91440000D03*
X145796000Y-91440000D03*
X144272000Y-91440000D03*
X142748000Y-91440000D03*
X131572000Y-94996000D03*
X135636000Y-95250000D03*
X137160000Y-96520000D03*
X127508000Y-97536000D03*
X131064000Y-98552000D03*
X118364000Y-99540000D03*
X124714000Y-103886000D03*
X123190000Y-91948000D03*
D15*
X147320000Y-89662000D02*
X147320000Y-91440000D01*
X129794000Y-88392000D02*
X146050000Y-88392000D01*
X146050000Y-88392000D02*
X147320000Y-89662000D01*
X119888000Y-94540000D02*
X123646000Y-94540000D01*
X123646000Y-94540000D02*
X129794000Y-88392000D01*
X145796000Y-90424000D02*
X145796000Y-91440000D01*
X130048000Y-89154000D02*
X144526000Y-89154000D01*
X119888000Y-95040000D02*
X124162000Y-95040000D01*
X144526000Y-89154000D02*
X145796000Y-90424000D01*
X124162000Y-95040000D02*
X130048000Y-89154000D01*
X143764000Y-90170000D02*
X144272000Y-90678000D01*
X144272000Y-90678000D02*
X144272000Y-91440000D01*
X130048000Y-90170000D02*
X143764000Y-90170000D01*
X119888000Y-95540000D02*
X124678000Y-95540000D01*
X124678000Y-95540000D02*
X130048000Y-90170000D01*
X119888000Y-96040000D02*
X124940000Y-96040000D01*
X129540000Y-91440000D02*
X142748000Y-91440000D01*
X124940000Y-96040000D02*
X129540000Y-91440000D01*
X119888000Y-96540000D02*
X120884000Y-96540000D01*
X120884000Y-96540000D02*
X125202000Y-96540000D01*
X125202000Y-96540000D02*
X125456000Y-96540000D01*
X125456000Y-96540000D02*
X126492000Y-95504000D01*
X126492000Y-95504000D02*
X130810000Y-95504000D01*
X130810000Y-95504000D02*
X131064000Y-95504000D01*
X131064000Y-95504000D02*
X131572000Y-94996000D01*
X125718000Y-97040000D02*
X126746000Y-96012000D01*
X119888000Y-97040000D02*
X125718000Y-97040000D01*
X126746000Y-96012000D02*
X134874000Y-96012000D01*
X134874000Y-96012000D02*
X135636000Y-95250000D01*
X127000000Y-96520000D02*
X137160000Y-96520000D01*
X119888000Y-97540000D02*
X125980000Y-97540000D01*
X125980000Y-97540000D02*
X127000000Y-96520000D01*
X119888000Y-98040000D02*
X121670000Y-98040000D01*
X121670000Y-98040000D02*
X127004000Y-98040000D01*
X127004000Y-98040000D02*
X127508000Y-97536000D01*
D16*
X131064000Y-98552000D02*
X130048000Y-99568000D01*
X130048000Y-99568000D02*
X124206000Y-99568000D01*
X124206000Y-99568000D02*
X123190000Y-99568000D01*
D15*
X119888000Y-98540000D02*
X120638000Y-98540000D01*
X121666000Y-99568000D02*
X123190000Y-99568000D01*
X120638000Y-98540000D02*
X121666000Y-99568000D01*
X119888000Y-99540000D02*
X118364000Y-99540000D01*
X118364000Y-99540000D02*
X118364000Y-99540000D01*
X118864000Y-99040000D02*
X118364000Y-99540000D01*
X119888000Y-99040000D02*
X118864000Y-99040000D01*
X118864000Y-100040000D02*
X118364000Y-99540000D01*
X119888000Y-100040000D02*
X118864000Y-100040000D01*
D16*
X166878000Y-110490000D02*
X166878000Y-107950000D01*
X166878000Y-107950000D02*
X160020000Y-101092000D01*
X160020000Y-101092000D02*
X122428000Y-101092000D01*
D15*
X121980000Y-101540000D02*
X122428000Y-101092000D01*
X119888000Y-101540000D02*
X121980000Y-101540000D01*
X122376000Y-101040000D02*
X122428000Y-101092000D01*
X119888000Y-101040000D02*
X122376000Y-101040000D01*
X121876000Y-100540000D02*
X122376000Y-101040000D01*
X119888000Y-100540000D02*
X121876000Y-100540000D01*
G36*
X186259000Y-114885000D02*
G01*
X115493000Y-114885000D01*
X115493000Y-110230475D01*
X118269000Y-110230475D01*
X118269000Y-110749525D01*
X118370261Y-111258601D01*
X118568893Y-111738141D01*
X118857262Y-112169715D01*
X119224285Y-112536738D01*
X119655859Y-112825107D01*
X120135399Y-113023739D01*
X120644475Y-113125000D01*
X121163525Y-113125000D01*
X121672601Y-113023739D01*
X122152141Y-112825107D01*
X122583715Y-112536738D01*
X122950738Y-112169715D01*
X123239107Y-111738141D01*
X123437739Y-111258601D01*
X123539000Y-110749525D01*
X123539000Y-110230475D01*
X123439053Y-109728000D01*
X129917928Y-109728000D01*
X129917928Y-111252000D01*
X129930188Y-111376482D01*
X129966498Y-111496180D01*
X130025463Y-111606494D01*
X130104815Y-111703185D01*
X130201506Y-111782537D01*
X130311820Y-111841502D01*
X130431518Y-111877812D01*
X130556000Y-111890072D01*
X132080000Y-111890072D01*
X132204482Y-111877812D01*
X132324180Y-111841502D01*
X132434494Y-111782537D01*
X132531185Y-111703185D01*
X132610537Y-111606494D01*
X132669502Y-111496180D01*
X132705812Y-111376482D01*
X132714080Y-111292535D01*
X132772880Y-111380535D01*
X132967465Y-111575120D01*
X133196273Y-111728005D01*
X133450510Y-111833314D01*
X133720408Y-111887000D01*
X133995592Y-111887000D01*
X134265490Y-111833314D01*
X134519727Y-111728005D01*
X134748535Y-111575120D01*
X134943120Y-111380535D01*
X135096005Y-111151727D01*
X135128000Y-111074485D01*
X135159995Y-111151727D01*
X135312880Y-111380535D01*
X135507465Y-111575120D01*
X135736273Y-111728005D01*
X135990510Y-111833314D01*
X136260408Y-111887000D01*
X136535592Y-111887000D01*
X136805490Y-111833314D01*
X137059727Y-111728005D01*
X137288535Y-111575120D01*
X137483120Y-111380535D01*
X137636005Y-111151727D01*
X137668000Y-111074485D01*
X137699995Y-111151727D01*
X137852880Y-111380535D01*
X138047465Y-111575120D01*
X138276273Y-111728005D01*
X138530510Y-111833314D01*
X138800408Y-111887000D01*
X139075592Y-111887000D01*
X139345490Y-111833314D01*
X139599727Y-111728005D01*
X139828535Y-111575120D01*
X140023120Y-111380535D01*
X140176005Y-111151727D01*
X140208000Y-111074485D01*
X140239995Y-111151727D01*
X140392880Y-111380535D01*
X140587465Y-111575120D01*
X140816273Y-111728005D01*
X141070510Y-111833314D01*
X141340408Y-111887000D01*
X141615592Y-111887000D01*
X141885490Y-111833314D01*
X142139727Y-111728005D01*
X142368535Y-111575120D01*
X142563120Y-111380535D01*
X142716005Y-111151727D01*
X142748000Y-111074485D01*
X142779995Y-111151727D01*
X142932880Y-111380535D01*
X143127465Y-111575120D01*
X143356273Y-111728005D01*
X143610510Y-111833314D01*
X143880408Y-111887000D01*
X144155592Y-111887000D01*
X144425490Y-111833314D01*
X144679727Y-111728005D01*
X144908535Y-111575120D01*
X145103120Y-111380535D01*
X145256005Y-111151727D01*
X145288000Y-111074485D01*
X145319995Y-111151727D01*
X145472880Y-111380535D01*
X145667465Y-111575120D01*
X145896273Y-111728005D01*
X146150510Y-111833314D01*
X146420408Y-111887000D01*
X146695592Y-111887000D01*
X146965490Y-111833314D01*
X147219727Y-111728005D01*
X147448535Y-111575120D01*
X147643120Y-111380535D01*
X147796005Y-111151727D01*
X147828000Y-111074485D01*
X147859995Y-111151727D01*
X148012880Y-111380535D01*
X148207465Y-111575120D01*
X148436273Y-111728005D01*
X148690510Y-111833314D01*
X148960408Y-111887000D01*
X149235592Y-111887000D01*
X149505490Y-111833314D01*
X149759727Y-111728005D01*
X149988535Y-111575120D01*
X150183120Y-111380535D01*
X150336005Y-111151727D01*
X150368000Y-111074485D01*
X150399995Y-111151727D01*
X150552880Y-111380535D01*
X150747465Y-111575120D01*
X150976273Y-111728005D01*
X151230510Y-111833314D01*
X151500408Y-111887000D01*
X151775592Y-111887000D01*
X152045490Y-111833314D01*
X152299727Y-111728005D01*
X152528535Y-111575120D01*
X152723120Y-111380535D01*
X152876005Y-111151727D01*
X152908000Y-111074485D01*
X152939995Y-111151727D01*
X153092880Y-111380535D01*
X153287465Y-111575120D01*
X153516273Y-111728005D01*
X153770510Y-111833314D01*
X154040408Y-111887000D01*
X154315592Y-111887000D01*
X154585490Y-111833314D01*
X154839727Y-111728005D01*
X155068535Y-111575120D01*
X155263120Y-111380535D01*
X155416005Y-111151727D01*
X155448000Y-111074485D01*
X155479995Y-111151727D01*
X155632880Y-111380535D01*
X155827465Y-111575120D01*
X156056273Y-111728005D01*
X156310510Y-111833314D01*
X156580408Y-111887000D01*
X156855592Y-111887000D01*
X157125490Y-111833314D01*
X157379727Y-111728005D01*
X157608535Y-111575120D01*
X157803120Y-111380535D01*
X157956005Y-111151727D01*
X157988000Y-111074485D01*
X158019995Y-111151727D01*
X158172880Y-111380535D01*
X158367465Y-111575120D01*
X158596273Y-111728005D01*
X158850510Y-111833314D01*
X159120408Y-111887000D01*
X159395592Y-111887000D01*
X159665490Y-111833314D01*
X159919727Y-111728005D01*
X160148535Y-111575120D01*
X160343120Y-111380535D01*
X160496005Y-111151727D01*
X160528000Y-111074485D01*
X160559995Y-111151727D01*
X160712880Y-111380535D01*
X160907465Y-111575120D01*
X161136273Y-111728005D01*
X161390510Y-111833314D01*
X161660408Y-111887000D01*
X161935592Y-111887000D01*
X162205490Y-111833314D01*
X162459727Y-111728005D01*
X162688535Y-111575120D01*
X162808090Y-111455565D01*
X163552040Y-111455565D01*
X163619020Y-111695656D01*
X163868048Y-111812756D01*
X164135135Y-111879023D01*
X164410017Y-111891910D01*
X164682133Y-111850922D01*
X164941023Y-111757636D01*
X165056980Y-111695656D01*
X165123960Y-111455565D01*
X164338000Y-110669605D01*
X163552040Y-111455565D01*
X162808090Y-111455565D01*
X162883120Y-111380535D01*
X163036005Y-111151727D01*
X163065692Y-111080057D01*
X163070364Y-111093023D01*
X163132344Y-111208980D01*
X163372435Y-111275960D01*
X164158395Y-110490000D01*
X163372435Y-109704040D01*
X163132344Y-109771020D01*
X163068515Y-109906760D01*
X163036005Y-109828273D01*
X162883120Y-109599465D01*
X162808090Y-109524435D01*
X163552040Y-109524435D01*
X164338000Y-110310395D01*
X165123960Y-109524435D01*
X165056980Y-109284344D01*
X164807952Y-109167244D01*
X164540865Y-109100977D01*
X164265983Y-109088090D01*
X163993867Y-109129078D01*
X163734977Y-109222364D01*
X163619020Y-109284344D01*
X163552040Y-109524435D01*
X162808090Y-109524435D01*
X162688535Y-109404880D01*
X162459727Y-109251995D01*
X162205490Y-109146686D01*
X161935592Y-109093000D01*
X161660408Y-109093000D01*
X161390510Y-109146686D01*
X161136273Y-109251995D01*
X160907465Y-109404880D01*
X160712880Y-109599465D01*
X160559995Y-109828273D01*
X160528000Y-109905515D01*
X160496005Y-109828273D01*
X160343120Y-109599465D01*
X160148535Y-109404880D01*
X159919727Y-109251995D01*
X159665490Y-109146686D01*
X159395592Y-109093000D01*
X159120408Y-109093000D01*
X158850510Y-109146686D01*
X158596273Y-109251995D01*
X158367465Y-109404880D01*
X158172880Y-109599465D01*
X158019995Y-109828273D01*
X157988000Y-109905515D01*
X157956005Y-109828273D01*
X157803120Y-109599465D01*
X157608535Y-109404880D01*
X157379727Y-109251995D01*
X157125490Y-109146686D01*
X156855592Y-109093000D01*
X156580408Y-109093000D01*
X156310510Y-109146686D01*
X156056273Y-109251995D01*
X155827465Y-109404880D01*
X155632880Y-109599465D01*
X155479995Y-109828273D01*
X155448000Y-109905515D01*
X155416005Y-109828273D01*
X155263120Y-109599465D01*
X155068535Y-109404880D01*
X154839727Y-109251995D01*
X154585490Y-109146686D01*
X154315592Y-109093000D01*
X154040408Y-109093000D01*
X153770510Y-109146686D01*
X153516273Y-109251995D01*
X153287465Y-109404880D01*
X153092880Y-109599465D01*
X152939995Y-109828273D01*
X152908000Y-109905515D01*
X152876005Y-109828273D01*
X152723120Y-109599465D01*
X152528535Y-109404880D01*
X152299727Y-109251995D01*
X152045490Y-109146686D01*
X151775592Y-109093000D01*
X151500408Y-109093000D01*
X151230510Y-109146686D01*
X150976273Y-109251995D01*
X150747465Y-109404880D01*
X150552880Y-109599465D01*
X150399995Y-109828273D01*
X150368000Y-109905515D01*
X150336005Y-109828273D01*
X150183120Y-109599465D01*
X149988535Y-109404880D01*
X149759727Y-109251995D01*
X149505490Y-109146686D01*
X149235592Y-109093000D01*
X148960408Y-109093000D01*
X148690510Y-109146686D01*
X148436273Y-109251995D01*
X148207465Y-109404880D01*
X148012880Y-109599465D01*
X147859995Y-109828273D01*
X147828000Y-109905515D01*
X147796005Y-109828273D01*
X147643120Y-109599465D01*
X147448535Y-109404880D01*
X147219727Y-109251995D01*
X146965490Y-109146686D01*
X146695592Y-109093000D01*
X146420408Y-109093000D01*
X146150510Y-109146686D01*
X145896273Y-109251995D01*
X145667465Y-109404880D01*
X145472880Y-109599465D01*
X145319995Y-109828273D01*
X145288000Y-109905515D01*
X145256005Y-109828273D01*
X145103120Y-109599465D01*
X144908535Y-109404880D01*
X144679727Y-109251995D01*
X144425490Y-109146686D01*
X144155592Y-109093000D01*
X143880408Y-109093000D01*
X143610510Y-109146686D01*
X143356273Y-109251995D01*
X143127465Y-109404880D01*
X142932880Y-109599465D01*
X142779995Y-109828273D01*
X142748000Y-109905515D01*
X142716005Y-109828273D01*
X142563120Y-109599465D01*
X142368535Y-109404880D01*
X142139727Y-109251995D01*
X141885490Y-109146686D01*
X141615592Y-109093000D01*
X141340408Y-109093000D01*
X141070510Y-109146686D01*
X140816273Y-109251995D01*
X140587465Y-109404880D01*
X140392880Y-109599465D01*
X140239995Y-109828273D01*
X140208000Y-109905515D01*
X140176005Y-109828273D01*
X140023120Y-109599465D01*
X139828535Y-109404880D01*
X139599727Y-109251995D01*
X139345490Y-109146686D01*
X139075592Y-109093000D01*
X138800408Y-109093000D01*
X138530510Y-109146686D01*
X138276273Y-109251995D01*
X138047465Y-109404880D01*
X137852880Y-109599465D01*
X137699995Y-109828273D01*
X137668000Y-109905515D01*
X137636005Y-109828273D01*
X137483120Y-109599465D01*
X137288535Y-109404880D01*
X137059727Y-109251995D01*
X136805490Y-109146686D01*
X136535592Y-109093000D01*
X136260408Y-109093000D01*
X135990510Y-109146686D01*
X135736273Y-109251995D01*
X135507465Y-109404880D01*
X135312880Y-109599465D01*
X135159995Y-109828273D01*
X135128000Y-109905515D01*
X135096005Y-109828273D01*
X134943120Y-109599465D01*
X134748535Y-109404880D01*
X134519727Y-109251995D01*
X134265490Y-109146686D01*
X133995592Y-109093000D01*
X133720408Y-109093000D01*
X133450510Y-109146686D01*
X133196273Y-109251995D01*
X132967465Y-109404880D01*
X132772880Y-109599465D01*
X132714080Y-109687465D01*
X132705812Y-109603518D01*
X132669502Y-109483820D01*
X132610537Y-109373506D01*
X132531185Y-109276815D01*
X132434494Y-109197463D01*
X132324180Y-109138498D01*
X132204482Y-109102188D01*
X132080000Y-109089928D01*
X130556000Y-109089928D01*
X130431518Y-109102188D01*
X130311820Y-109138498D01*
X130201506Y-109197463D01*
X130104815Y-109276815D01*
X130025463Y-109373506D01*
X129966498Y-109483820D01*
X129930188Y-109603518D01*
X129917928Y-109728000D01*
X123439053Y-109728000D01*
X123437739Y-109721399D01*
X123239107Y-109241859D01*
X122950738Y-108810285D01*
X122583715Y-108443262D01*
X122152141Y-108154893D01*
X121672601Y-107956261D01*
X121163525Y-107855000D01*
X120644475Y-107855000D01*
X120135399Y-107956261D01*
X119655859Y-108154893D01*
X119224285Y-108443262D01*
X118857262Y-108810285D01*
X118568893Y-109241859D01*
X118370261Y-109721399D01*
X118269000Y-110230475D01*
X115493000Y-110230475D01*
X115493000Y-102340000D01*
X116399928Y-102340000D01*
X116399928Y-103140000D01*
X116412188Y-103264482D01*
X116448498Y-103384180D01*
X116507463Y-103494494D01*
X116586815Y-103591185D01*
X116683506Y-103670537D01*
X116793820Y-103729502D01*
X116913518Y-103765812D01*
X117038000Y-103778072D01*
X118138000Y-103778072D01*
X118262482Y-103765812D01*
X118382180Y-103729502D01*
X118492494Y-103670537D01*
X118589185Y-103591185D01*
X118668537Y-103494494D01*
X118727502Y-103384180D01*
X118763812Y-103264482D01*
X118776072Y-103140000D01*
X118776072Y-102340000D01*
X118763812Y-102215518D01*
X118727502Y-102095820D01*
X118668537Y-101985506D01*
X118589185Y-101888815D01*
X118492494Y-101809463D01*
X118382180Y-101750498D01*
X118262482Y-101714188D01*
X118138000Y-101701928D01*
X117038000Y-101701928D01*
X116913518Y-101714188D01*
X116793820Y-101750498D01*
X116683506Y-101809463D01*
X116586815Y-101888815D01*
X116507463Y-101985506D01*
X116448498Y-102095820D01*
X116412188Y-102215518D01*
X116399928Y-102340000D01*
X115493000Y-102340000D01*
X115493000Y-93915000D01*
X118849928Y-93915000D01*
X118849928Y-94165000D01*
X118862188Y-94289482D01*
X118862345Y-94290000D01*
X118862188Y-94290518D01*
X118849928Y-94415000D01*
X118849928Y-94665000D01*
X118862188Y-94789482D01*
X118862345Y-94790000D01*
X118862188Y-94790518D01*
X118849928Y-94915000D01*
X118849928Y-95165000D01*
X118862188Y-95289482D01*
X118862345Y-95290000D01*
X118862188Y-95290518D01*
X118849928Y-95415000D01*
X118849928Y-95665000D01*
X118862188Y-95789482D01*
X118862345Y-95790000D01*
X118862188Y-95790518D01*
X118849928Y-95915000D01*
X118849928Y-96165000D01*
X118862188Y-96289482D01*
X118862345Y-96290000D01*
X118862188Y-96290518D01*
X118849928Y-96415000D01*
X118849928Y-96665000D01*
X118862188Y-96789482D01*
X118862345Y-96790000D01*
X118862188Y-96790518D01*
X118849928Y-96915000D01*
X118849928Y-97165000D01*
X118862188Y-97289482D01*
X118862345Y-97290000D01*
X118862188Y-97290518D01*
X118849928Y-97415000D01*
X118849928Y-97665000D01*
X118862188Y-97789482D01*
X118862345Y-97790000D01*
X118862188Y-97790518D01*
X118849928Y-97915000D01*
X118849928Y-98165000D01*
X118862188Y-98289482D01*
X118862345Y-98290000D01*
X118862188Y-98290518D01*
X118849928Y-98415000D01*
X118849928Y-98665000D01*
X118862188Y-98789482D01*
X118863278Y-98793077D01*
X118853000Y-98881250D01*
X118918672Y-98946922D01*
X118957463Y-99019494D01*
X118973633Y-99039197D01*
X118965944Y-99048130D01*
X118916983Y-99134767D01*
X118853000Y-99198750D01*
X118863637Y-99290000D01*
X118853000Y-99381250D01*
X118916983Y-99445233D01*
X118965944Y-99531870D01*
X118972942Y-99540000D01*
X118965944Y-99548130D01*
X118916983Y-99634767D01*
X118853000Y-99698750D01*
X118863637Y-99790000D01*
X118853000Y-99881250D01*
X118916983Y-99945233D01*
X118965944Y-100031870D01*
X118973633Y-100040803D01*
X118957463Y-100060506D01*
X118918672Y-100133078D01*
X118853000Y-100198750D01*
X118863278Y-100286923D01*
X118862188Y-100290518D01*
X118849928Y-100415000D01*
X118849928Y-100665000D01*
X118862188Y-100789482D01*
X118862345Y-100790000D01*
X118862188Y-100790518D01*
X118849928Y-100915000D01*
X118849928Y-101165000D01*
X118862188Y-101289482D01*
X118862345Y-101290000D01*
X118862188Y-101290518D01*
X118849928Y-101415000D01*
X118849928Y-101665000D01*
X118862188Y-101789482D01*
X118898498Y-101909180D01*
X118957463Y-102019494D01*
X119036815Y-102116185D01*
X119133506Y-102195537D01*
X119243820Y-102254502D01*
X119363518Y-102290812D01*
X119488000Y-102303072D01*
X120288000Y-102303072D01*
X120298885Y-102302000D01*
X121942577Y-102302000D01*
X121980000Y-102305686D01*
X122017423Y-102302000D01*
X122017426Y-102302000D01*
X122129378Y-102290974D01*
X122273015Y-102247402D01*
X122307986Y-102228709D01*
X122371854Y-102235000D01*
X159546555Y-102235000D01*
X165735001Y-108423447D01*
X165735000Y-109686088D01*
X165639995Y-109828273D01*
X165610308Y-109899943D01*
X165605636Y-109886977D01*
X165543656Y-109771020D01*
X165303565Y-109704040D01*
X164517605Y-110490000D01*
X165303565Y-111275960D01*
X165543656Y-111208980D01*
X165607485Y-111073240D01*
X165639995Y-111151727D01*
X165792880Y-111380535D01*
X165987465Y-111575120D01*
X166216273Y-111728005D01*
X166470510Y-111833314D01*
X166740408Y-111887000D01*
X167015592Y-111887000D01*
X167285490Y-111833314D01*
X167539727Y-111728005D01*
X167768535Y-111575120D01*
X167963120Y-111380535D01*
X168116005Y-111151727D01*
X168221314Y-110897490D01*
X168275000Y-110627592D01*
X168275000Y-110352408D01*
X168250747Y-110230475D01*
X178467000Y-110230475D01*
X178467000Y-110749525D01*
X178568261Y-111258601D01*
X178766893Y-111738141D01*
X179055262Y-112169715D01*
X179422285Y-112536738D01*
X179853859Y-112825107D01*
X180333399Y-113023739D01*
X180842475Y-113125000D01*
X181361525Y-113125000D01*
X181870601Y-113023739D01*
X182350141Y-112825107D01*
X182781715Y-112536738D01*
X183148738Y-112169715D01*
X183437107Y-111738141D01*
X183635739Y-111258601D01*
X183737000Y-110749525D01*
X183737000Y-110230475D01*
X183635739Y-109721399D01*
X183437107Y-109241859D01*
X183148738Y-108810285D01*
X182781715Y-108443262D01*
X182350141Y-108154893D01*
X181870601Y-107956261D01*
X181361525Y-107855000D01*
X180842475Y-107855000D01*
X180333399Y-107956261D01*
X179853859Y-108154893D01*
X179422285Y-108443262D01*
X179055262Y-108810285D01*
X178766893Y-109241859D01*
X178568261Y-109721399D01*
X178467000Y-110230475D01*
X168250747Y-110230475D01*
X168221314Y-110082510D01*
X168116005Y-109828273D01*
X168021000Y-109686088D01*
X168021000Y-108006139D01*
X168026529Y-107950000D01*
X168021000Y-107893861D01*
X168021000Y-107893854D01*
X168004461Y-107725933D01*
X167939103Y-107510477D01*
X167939103Y-107510476D01*
X167902133Y-107441311D01*
X167832968Y-107311911D01*
X167690133Y-107137867D01*
X167646523Y-107102077D01*
X160867928Y-100323482D01*
X160832133Y-100279867D01*
X160658089Y-100137032D01*
X160459523Y-100030897D01*
X160244067Y-99965539D01*
X160076146Y-99949000D01*
X160076139Y-99949000D01*
X160020000Y-99943471D01*
X159963861Y-99949000D01*
X131283445Y-99949000D01*
X131911924Y-99320522D01*
X132018967Y-99190089D01*
X132125102Y-98991524D01*
X132190461Y-98776068D01*
X132212529Y-98552000D01*
X132190461Y-98327933D01*
X132125102Y-98112477D01*
X132018967Y-97913912D01*
X131876133Y-97739867D01*
X131702088Y-97597033D01*
X131503523Y-97490898D01*
X131288067Y-97425539D01*
X131064000Y-97403471D01*
X130839932Y-97425539D01*
X130624476Y-97490898D01*
X130425911Y-97597033D01*
X130295478Y-97704076D01*
X129574555Y-98425000D01*
X128040468Y-98425000D01*
X128167774Y-98339937D01*
X128311937Y-98195774D01*
X128425205Y-98026256D01*
X128503226Y-97837898D01*
X128543000Y-97637939D01*
X128543000Y-97434061D01*
X128512753Y-97282000D01*
X136458289Y-97282000D01*
X136500226Y-97323937D01*
X136669744Y-97437205D01*
X136858102Y-97515226D01*
X137058061Y-97555000D01*
X137261939Y-97555000D01*
X137461898Y-97515226D01*
X137650256Y-97437205D01*
X137819774Y-97323937D01*
X137963937Y-97179774D01*
X138077205Y-97010256D01*
X138155226Y-96821898D01*
X138195000Y-96621939D01*
X138195000Y-96418061D01*
X138155226Y-96218102D01*
X138077205Y-96029744D01*
X137963937Y-95860226D01*
X137819774Y-95716063D01*
X137650256Y-95602795D01*
X137461898Y-95524774D01*
X137261939Y-95485000D01*
X137058061Y-95485000D01*
X136858102Y-95524774D01*
X136669744Y-95602795D01*
X136587335Y-95657859D01*
X136631226Y-95551898D01*
X136671000Y-95351939D01*
X136671000Y-95148061D01*
X136631226Y-94948102D01*
X136553205Y-94759744D01*
X136439937Y-94590226D01*
X136295774Y-94446063D01*
X136126256Y-94332795D01*
X135937898Y-94254774D01*
X135737939Y-94215000D01*
X135534061Y-94215000D01*
X135334102Y-94254774D01*
X135145744Y-94332795D01*
X134976226Y-94446063D01*
X134832063Y-94590226D01*
X134718795Y-94759744D01*
X134640774Y-94948102D01*
X134601000Y-95148061D01*
X134601000Y-95207370D01*
X134558370Y-95250000D01*
X132576753Y-95250000D01*
X132607000Y-95097939D01*
X132607000Y-94894061D01*
X132567226Y-94694102D01*
X132489205Y-94505744D01*
X132375937Y-94336226D01*
X132231774Y-94192063D01*
X132062256Y-94078795D01*
X131873898Y-94000774D01*
X131673939Y-93961000D01*
X131470061Y-93961000D01*
X131270102Y-94000774D01*
X131081744Y-94078795D01*
X130912226Y-94192063D01*
X130768063Y-94336226D01*
X130654795Y-94505744D01*
X130576774Y-94694102D01*
X130567247Y-94742000D01*
X127315630Y-94742000D01*
X129855631Y-92202000D01*
X142046289Y-92202000D01*
X142088226Y-92243937D01*
X142257744Y-92357205D01*
X142446102Y-92435226D01*
X142646061Y-92475000D01*
X142849939Y-92475000D01*
X143049898Y-92435226D01*
X143238256Y-92357205D01*
X143407774Y-92243937D01*
X143510000Y-92141711D01*
X143612226Y-92243937D01*
X143781744Y-92357205D01*
X143970102Y-92435226D01*
X144170061Y-92475000D01*
X144373939Y-92475000D01*
X144573898Y-92435226D01*
X144762256Y-92357205D01*
X144931774Y-92243937D01*
X145034000Y-92141711D01*
X145136226Y-92243937D01*
X145305744Y-92357205D01*
X145494102Y-92435226D01*
X145694061Y-92475000D01*
X145897939Y-92475000D01*
X146097898Y-92435226D01*
X146286256Y-92357205D01*
X146455774Y-92243937D01*
X146558000Y-92141711D01*
X146660226Y-92243937D01*
X146829744Y-92357205D01*
X147018102Y-92435226D01*
X147218061Y-92475000D01*
X147421939Y-92475000D01*
X147621898Y-92435226D01*
X147810256Y-92357205D01*
X147979774Y-92243937D01*
X148123937Y-92099774D01*
X148237205Y-91930256D01*
X148315226Y-91741898D01*
X148355000Y-91541939D01*
X148355000Y-91338061D01*
X148315226Y-91138102D01*
X148237205Y-90949744D01*
X148123937Y-90780226D01*
X148082000Y-90738289D01*
X148082000Y-89699422D01*
X148085686Y-89661999D01*
X148082000Y-89624574D01*
X148070974Y-89512622D01*
X148027402Y-89368985D01*
X147956645Y-89236608D01*
X147861422Y-89120578D01*
X147832353Y-89096722D01*
X146615284Y-87879654D01*
X146591422Y-87850578D01*
X146475392Y-87755355D01*
X146343015Y-87684598D01*
X146199378Y-87641026D01*
X146087426Y-87630000D01*
X146087423Y-87630000D01*
X146050000Y-87626314D01*
X146012577Y-87630000D01*
X129831423Y-87630000D01*
X129794000Y-87626314D01*
X129756577Y-87630000D01*
X129756574Y-87630000D01*
X129644622Y-87641026D01*
X129500985Y-87684598D01*
X129439364Y-87717535D01*
X129368607Y-87755355D01*
X129285904Y-87823228D01*
X129252578Y-87850578D01*
X129228721Y-87879648D01*
X123330370Y-93778000D01*
X120910015Y-93778000D01*
X120877502Y-93670820D01*
X120818537Y-93560506D01*
X120739185Y-93463815D01*
X120642494Y-93384463D01*
X120532180Y-93325498D01*
X120412482Y-93289188D01*
X120288000Y-93276928D01*
X119488000Y-93276928D01*
X119363518Y-93289188D01*
X119243820Y-93325498D01*
X119133506Y-93384463D01*
X119036815Y-93463815D01*
X118957463Y-93560506D01*
X118898498Y-93670820D01*
X118862188Y-93790518D01*
X118849928Y-93915000D01*
X115493000Y-93915000D01*
X115493000Y-92440000D01*
X116399928Y-92440000D01*
X116399928Y-93240000D01*
X116412188Y-93364482D01*
X116448498Y-93484180D01*
X116507463Y-93594494D01*
X116586815Y-93691185D01*
X116683506Y-93770537D01*
X116793820Y-93829502D01*
X116913518Y-93865812D01*
X117038000Y-93878072D01*
X118138000Y-93878072D01*
X118262482Y-93865812D01*
X118382180Y-93829502D01*
X118492494Y-93770537D01*
X118589185Y-93691185D01*
X118668537Y-93594494D01*
X118727502Y-93484180D01*
X118763812Y-93364482D01*
X118776072Y-93240000D01*
X118776072Y-92440000D01*
X118763812Y-92315518D01*
X118727502Y-92195820D01*
X118668537Y-92085506D01*
X118589185Y-91988815D01*
X118492494Y-91909463D01*
X118382180Y-91850498D01*
X118262482Y-91814188D01*
X118138000Y-91801928D01*
X117038000Y-91801928D01*
X116913518Y-91814188D01*
X116793820Y-91850498D01*
X116683506Y-91909463D01*
X116586815Y-91988815D01*
X116507463Y-92085506D01*
X116448498Y-92195820D01*
X116412188Y-92315518D01*
X116399928Y-92440000D01*
X115493000Y-92440000D01*
X115493000Y-84830475D01*
X118269000Y-84830475D01*
X118269000Y-85349525D01*
X118370261Y-85858601D01*
X118568893Y-86338141D01*
X118857262Y-86769715D01*
X119224285Y-87136738D01*
X119655859Y-87425107D01*
X120135399Y-87623739D01*
X120644475Y-87725000D01*
X121163525Y-87725000D01*
X121672601Y-87623739D01*
X122152141Y-87425107D01*
X122583715Y-87136738D01*
X122950738Y-86769715D01*
X123239107Y-86338141D01*
X123437739Y-85858601D01*
X123539000Y-85349525D01*
X123539000Y-84952408D01*
X129921000Y-84952408D01*
X129921000Y-85227592D01*
X129974686Y-85497490D01*
X130079995Y-85751727D01*
X130232880Y-85980535D01*
X130427465Y-86175120D01*
X130656273Y-86328005D01*
X130910510Y-86433314D01*
X131180408Y-86487000D01*
X131455592Y-86487000D01*
X131725490Y-86433314D01*
X131979727Y-86328005D01*
X132208535Y-86175120D01*
X132403120Y-85980535D01*
X132556005Y-85751727D01*
X132588000Y-85674485D01*
X132619995Y-85751727D01*
X132772880Y-85980535D01*
X132967465Y-86175120D01*
X133196273Y-86328005D01*
X133450510Y-86433314D01*
X133720408Y-86487000D01*
X133995592Y-86487000D01*
X134265490Y-86433314D01*
X134519727Y-86328005D01*
X134748535Y-86175120D01*
X134943120Y-85980535D01*
X135096005Y-85751727D01*
X135128000Y-85674485D01*
X135159995Y-85751727D01*
X135312880Y-85980535D01*
X135507465Y-86175120D01*
X135736273Y-86328005D01*
X135990510Y-86433314D01*
X136260408Y-86487000D01*
X136535592Y-86487000D01*
X136805490Y-86433314D01*
X137059727Y-86328005D01*
X137288535Y-86175120D01*
X137483120Y-85980535D01*
X137636005Y-85751727D01*
X137668000Y-85674485D01*
X137699995Y-85751727D01*
X137852880Y-85980535D01*
X138047465Y-86175120D01*
X138276273Y-86328005D01*
X138530510Y-86433314D01*
X138800408Y-86487000D01*
X139075592Y-86487000D01*
X139345490Y-86433314D01*
X139599727Y-86328005D01*
X139828535Y-86175120D01*
X140023120Y-85980535D01*
X140176005Y-85751727D01*
X140208000Y-85674485D01*
X140239995Y-85751727D01*
X140392880Y-85980535D01*
X140587465Y-86175120D01*
X140816273Y-86328005D01*
X141070510Y-86433314D01*
X141340408Y-86487000D01*
X141615592Y-86487000D01*
X141885490Y-86433314D01*
X142139727Y-86328005D01*
X142368535Y-86175120D01*
X142563120Y-85980535D01*
X142716005Y-85751727D01*
X142748000Y-85674485D01*
X142779995Y-85751727D01*
X142932880Y-85980535D01*
X143127465Y-86175120D01*
X143356273Y-86328005D01*
X143610510Y-86433314D01*
X143880408Y-86487000D01*
X144155592Y-86487000D01*
X144425490Y-86433314D01*
X144679727Y-86328005D01*
X144908535Y-86175120D01*
X145103120Y-85980535D01*
X145256005Y-85751727D01*
X145288000Y-85674485D01*
X145319995Y-85751727D01*
X145472880Y-85980535D01*
X145667465Y-86175120D01*
X145896273Y-86328005D01*
X146150510Y-86433314D01*
X146420408Y-86487000D01*
X146695592Y-86487000D01*
X146965490Y-86433314D01*
X147219727Y-86328005D01*
X147448535Y-86175120D01*
X147643120Y-85980535D01*
X147796005Y-85751727D01*
X147828000Y-85674485D01*
X147859995Y-85751727D01*
X148012880Y-85980535D01*
X148207465Y-86175120D01*
X148436273Y-86328005D01*
X148690510Y-86433314D01*
X148960408Y-86487000D01*
X149235592Y-86487000D01*
X149505490Y-86433314D01*
X149759727Y-86328005D01*
X149988535Y-86175120D01*
X150183120Y-85980535D01*
X150336005Y-85751727D01*
X150368000Y-85674485D01*
X150399995Y-85751727D01*
X150552880Y-85980535D01*
X150747465Y-86175120D01*
X150976273Y-86328005D01*
X151230510Y-86433314D01*
X151500408Y-86487000D01*
X151775592Y-86487000D01*
X152045490Y-86433314D01*
X152299727Y-86328005D01*
X152528535Y-86175120D01*
X152723120Y-85980535D01*
X152876005Y-85751727D01*
X152908000Y-85674485D01*
X152939995Y-85751727D01*
X153092880Y-85980535D01*
X153287465Y-86175120D01*
X153516273Y-86328005D01*
X153770510Y-86433314D01*
X154040408Y-86487000D01*
X154315592Y-86487000D01*
X154585490Y-86433314D01*
X154839727Y-86328005D01*
X155068535Y-86175120D01*
X155263120Y-85980535D01*
X155416005Y-85751727D01*
X155448000Y-85674485D01*
X155479995Y-85751727D01*
X155632880Y-85980535D01*
X155827465Y-86175120D01*
X156056273Y-86328005D01*
X156310510Y-86433314D01*
X156580408Y-86487000D01*
X156855592Y-86487000D01*
X157125490Y-86433314D01*
X157379727Y-86328005D01*
X157608535Y-86175120D01*
X157803120Y-85980535D01*
X157956005Y-85751727D01*
X157988000Y-85674485D01*
X158019995Y-85751727D01*
X158172880Y-85980535D01*
X158367465Y-86175120D01*
X158596273Y-86328005D01*
X158850510Y-86433314D01*
X159120408Y-86487000D01*
X159395592Y-86487000D01*
X159665490Y-86433314D01*
X159919727Y-86328005D01*
X160148535Y-86175120D01*
X160343120Y-85980535D01*
X160496005Y-85751727D01*
X160528000Y-85674485D01*
X160559995Y-85751727D01*
X160712880Y-85980535D01*
X160907465Y-86175120D01*
X161136273Y-86328005D01*
X161390510Y-86433314D01*
X161660408Y-86487000D01*
X161935592Y-86487000D01*
X162205490Y-86433314D01*
X162459727Y-86328005D01*
X162688535Y-86175120D01*
X162808090Y-86055565D01*
X163552040Y-86055565D01*
X163619020Y-86295656D01*
X163868048Y-86412756D01*
X164135135Y-86479023D01*
X164410017Y-86491910D01*
X164682133Y-86450922D01*
X164941023Y-86357636D01*
X165056980Y-86295656D01*
X165123960Y-86055565D01*
X164338000Y-85269605D01*
X163552040Y-86055565D01*
X162808090Y-86055565D01*
X162883120Y-85980535D01*
X163036005Y-85751727D01*
X163065692Y-85680057D01*
X163070364Y-85693023D01*
X163132344Y-85808980D01*
X163372435Y-85875960D01*
X164158395Y-85090000D01*
X164517605Y-85090000D01*
X165303565Y-85875960D01*
X165543656Y-85808980D01*
X165607485Y-85673240D01*
X165639995Y-85751727D01*
X165792880Y-85980535D01*
X165987465Y-86175120D01*
X166216273Y-86328005D01*
X166470510Y-86433314D01*
X166740408Y-86487000D01*
X167015592Y-86487000D01*
X167285490Y-86433314D01*
X167539727Y-86328005D01*
X167768535Y-86175120D01*
X167963120Y-85980535D01*
X168116005Y-85751727D01*
X168221314Y-85497490D01*
X168275000Y-85227592D01*
X168275000Y-84952408D01*
X168250747Y-84830475D01*
X178467000Y-84830475D01*
X178467000Y-85349525D01*
X178568261Y-85858601D01*
X178766893Y-86338141D01*
X179055262Y-86769715D01*
X179422285Y-87136738D01*
X179853859Y-87425107D01*
X180333399Y-87623739D01*
X180842475Y-87725000D01*
X181361525Y-87725000D01*
X181870601Y-87623739D01*
X182350141Y-87425107D01*
X182781715Y-87136738D01*
X183148738Y-86769715D01*
X183437107Y-86338141D01*
X183635739Y-85858601D01*
X183737000Y-85349525D01*
X183737000Y-84830475D01*
X183635739Y-84321399D01*
X183437107Y-83841859D01*
X183148738Y-83410285D01*
X182781715Y-83043262D01*
X182350141Y-82754893D01*
X181870601Y-82556261D01*
X181361525Y-82455000D01*
X180842475Y-82455000D01*
X180333399Y-82556261D01*
X179853859Y-82754893D01*
X179422285Y-83043262D01*
X179055262Y-83410285D01*
X178766893Y-83841859D01*
X178568261Y-84321399D01*
X178467000Y-84830475D01*
X168250747Y-84830475D01*
X168221314Y-84682510D01*
X168116005Y-84428273D01*
X167963120Y-84199465D01*
X167768535Y-84004880D01*
X167539727Y-83851995D01*
X167285490Y-83746686D01*
X167015592Y-83693000D01*
X166740408Y-83693000D01*
X166470510Y-83746686D01*
X166216273Y-83851995D01*
X165987465Y-84004880D01*
X165792880Y-84199465D01*
X165639995Y-84428273D01*
X165610308Y-84499943D01*
X165605636Y-84486977D01*
X165543656Y-84371020D01*
X165303565Y-84304040D01*
X164517605Y-85090000D01*
X164158395Y-85090000D01*
X163372435Y-84304040D01*
X163132344Y-84371020D01*
X163068515Y-84506760D01*
X163036005Y-84428273D01*
X162883120Y-84199465D01*
X162808090Y-84124435D01*
X163552040Y-84124435D01*
X164338000Y-84910395D01*
X165123960Y-84124435D01*
X165056980Y-83884344D01*
X164807952Y-83767244D01*
X164540865Y-83700977D01*
X164265983Y-83688090D01*
X163993867Y-83729078D01*
X163734977Y-83822364D01*
X163619020Y-83884344D01*
X163552040Y-84124435D01*
X162808090Y-84124435D01*
X162688535Y-84004880D01*
X162459727Y-83851995D01*
X162205490Y-83746686D01*
X161935592Y-83693000D01*
X161660408Y-83693000D01*
X161390510Y-83746686D01*
X161136273Y-83851995D01*
X160907465Y-84004880D01*
X160712880Y-84199465D01*
X160559995Y-84428273D01*
X160528000Y-84505515D01*
X160496005Y-84428273D01*
X160343120Y-84199465D01*
X160148535Y-84004880D01*
X159919727Y-83851995D01*
X159665490Y-83746686D01*
X159395592Y-83693000D01*
X159120408Y-83693000D01*
X158850510Y-83746686D01*
X158596273Y-83851995D01*
X158367465Y-84004880D01*
X158172880Y-84199465D01*
X158019995Y-84428273D01*
X157988000Y-84505515D01*
X157956005Y-84428273D01*
X157803120Y-84199465D01*
X157608535Y-84004880D01*
X157379727Y-83851995D01*
X157125490Y-83746686D01*
X156855592Y-83693000D01*
X156580408Y-83693000D01*
X156310510Y-83746686D01*
X156056273Y-83851995D01*
X155827465Y-84004880D01*
X155632880Y-84199465D01*
X155479995Y-84428273D01*
X155448000Y-84505515D01*
X155416005Y-84428273D01*
X155263120Y-84199465D01*
X155068535Y-84004880D01*
X154839727Y-83851995D01*
X154585490Y-83746686D01*
X154315592Y-83693000D01*
X154040408Y-83693000D01*
X153770510Y-83746686D01*
X153516273Y-83851995D01*
X153287465Y-84004880D01*
X153092880Y-84199465D01*
X152939995Y-84428273D01*
X152908000Y-84505515D01*
X152876005Y-84428273D01*
X152723120Y-84199465D01*
X152528535Y-84004880D01*
X152299727Y-83851995D01*
X152045490Y-83746686D01*
X151775592Y-83693000D01*
X151500408Y-83693000D01*
X151230510Y-83746686D01*
X150976273Y-83851995D01*
X150747465Y-84004880D01*
X150552880Y-84199465D01*
X150399995Y-84428273D01*
X150368000Y-84505515D01*
X150336005Y-84428273D01*
X150183120Y-84199465D01*
X149988535Y-84004880D01*
X149759727Y-83851995D01*
X149505490Y-83746686D01*
X149235592Y-83693000D01*
X148960408Y-83693000D01*
X148690510Y-83746686D01*
X148436273Y-83851995D01*
X148207465Y-84004880D01*
X148012880Y-84199465D01*
X147859995Y-84428273D01*
X147828000Y-84505515D01*
X147796005Y-84428273D01*
X147643120Y-84199465D01*
X147448535Y-84004880D01*
X147219727Y-83851995D01*
X146965490Y-83746686D01*
X146695592Y-83693000D01*
X146420408Y-83693000D01*
X146150510Y-83746686D01*
X145896273Y-83851995D01*
X145667465Y-84004880D01*
X145472880Y-84199465D01*
X145319995Y-84428273D01*
X145288000Y-84505515D01*
X145256005Y-84428273D01*
X145103120Y-84199465D01*
X144908535Y-84004880D01*
X144679727Y-83851995D01*
X144425490Y-83746686D01*
X144155592Y-83693000D01*
X143880408Y-83693000D01*
X143610510Y-83746686D01*
X143356273Y-83851995D01*
X143127465Y-84004880D01*
X142932880Y-84199465D01*
X142779995Y-84428273D01*
X142748000Y-84505515D01*
X142716005Y-84428273D01*
X142563120Y-84199465D01*
X142368535Y-84004880D01*
X142139727Y-83851995D01*
X141885490Y-83746686D01*
X141615592Y-83693000D01*
X141340408Y-83693000D01*
X141070510Y-83746686D01*
X140816273Y-83851995D01*
X140587465Y-84004880D01*
X140392880Y-84199465D01*
X140239995Y-84428273D01*
X140208000Y-84505515D01*
X140176005Y-84428273D01*
X140023120Y-84199465D01*
X139828535Y-84004880D01*
X139599727Y-83851995D01*
X139345490Y-83746686D01*
X139075592Y-83693000D01*
X138800408Y-83693000D01*
X138530510Y-83746686D01*
X138276273Y-83851995D01*
X138047465Y-84004880D01*
X137852880Y-84199465D01*
X137699995Y-84428273D01*
X137668000Y-84505515D01*
X137636005Y-84428273D01*
X137483120Y-84199465D01*
X137288535Y-84004880D01*
X137059727Y-83851995D01*
X136805490Y-83746686D01*
X136535592Y-83693000D01*
X136260408Y-83693000D01*
X135990510Y-83746686D01*
X135736273Y-83851995D01*
X135507465Y-84004880D01*
X135312880Y-84199465D01*
X135159995Y-84428273D01*
X135128000Y-84505515D01*
X135096005Y-84428273D01*
X134943120Y-84199465D01*
X134748535Y-84004880D01*
X134519727Y-83851995D01*
X134265490Y-83746686D01*
X133995592Y-83693000D01*
X133720408Y-83693000D01*
X133450510Y-83746686D01*
X133196273Y-83851995D01*
X132967465Y-84004880D01*
X132772880Y-84199465D01*
X132619995Y-84428273D01*
X132588000Y-84505515D01*
X132556005Y-84428273D01*
X132403120Y-84199465D01*
X132208535Y-84004880D01*
X131979727Y-83851995D01*
X131725490Y-83746686D01*
X131455592Y-83693000D01*
X131180408Y-83693000D01*
X130910510Y-83746686D01*
X130656273Y-83851995D01*
X130427465Y-84004880D01*
X130232880Y-84199465D01*
X130079995Y-84428273D01*
X129974686Y-84682510D01*
X129921000Y-84952408D01*
X123539000Y-84952408D01*
X123539000Y-84830475D01*
X123437739Y-84321399D01*
X123239107Y-83841859D01*
X122950738Y-83410285D01*
X122583715Y-83043262D01*
X122152141Y-82754893D01*
X121672601Y-82556261D01*
X121163525Y-82455000D01*
X120644475Y-82455000D01*
X120135399Y-82556261D01*
X119655859Y-82754893D01*
X119224285Y-83043262D01*
X118857262Y-83410285D01*
X118568893Y-83841859D01*
X118370261Y-84321399D01*
X118269000Y-84830475D01*
X115493000Y-84830475D01*
X115493000Y-80187000D01*
X186259001Y-80187000D01*
X186259000Y-114885000D01*
G37*
X186259000Y-114885000D02*
X115493000Y-114885000D01*
X115493000Y-110230475D01*
X118269000Y-110230475D01*
X118269000Y-110749525D01*
X118370261Y-111258601D01*
X118568893Y-111738141D01*
X118857262Y-112169715D01*
X119224285Y-112536738D01*
X119655859Y-112825107D01*
X120135399Y-113023739D01*
X120644475Y-113125000D01*
X121163525Y-113125000D01*
X121672601Y-113023739D01*
X122152141Y-112825107D01*
X122583715Y-112536738D01*
X122950738Y-112169715D01*
X123239107Y-111738141D01*
X123437739Y-111258601D01*
X123539000Y-110749525D01*
X123539000Y-110230475D01*
X123439053Y-109728000D01*
X129917928Y-109728000D01*
X129917928Y-111252000D01*
X129930188Y-111376482D01*
X129966498Y-111496180D01*
X130025463Y-111606494D01*
X130104815Y-111703185D01*
X130201506Y-111782537D01*
X130311820Y-111841502D01*
X130431518Y-111877812D01*
X130556000Y-111890072D01*
X132080000Y-111890072D01*
X132204482Y-111877812D01*
X132324180Y-111841502D01*
X132434494Y-111782537D01*
X132531185Y-111703185D01*
X132610537Y-111606494D01*
X132669502Y-111496180D01*
X132705812Y-111376482D01*
X132714080Y-111292535D01*
X132772880Y-111380535D01*
X132967465Y-111575120D01*
X133196273Y-111728005D01*
X133450510Y-111833314D01*
X133720408Y-111887000D01*
X133995592Y-111887000D01*
X134265490Y-111833314D01*
X134519727Y-111728005D01*
X134748535Y-111575120D01*
X134943120Y-111380535D01*
X135096005Y-111151727D01*
X135128000Y-111074485D01*
X135159995Y-111151727D01*
X135312880Y-111380535D01*
X135507465Y-111575120D01*
X135736273Y-111728005D01*
X135990510Y-111833314D01*
X136260408Y-111887000D01*
X136535592Y-111887000D01*
X136805490Y-111833314D01*
X137059727Y-111728005D01*
X137288535Y-111575120D01*
X137483120Y-111380535D01*
X137636005Y-111151727D01*
X137668000Y-111074485D01*
X137699995Y-111151727D01*
X137852880Y-111380535D01*
X138047465Y-111575120D01*
X138276273Y-111728005D01*
X138530510Y-111833314D01*
X138800408Y-111887000D01*
X139075592Y-111887000D01*
X139345490Y-111833314D01*
X139599727Y-111728005D01*
X139828535Y-111575120D01*
X140023120Y-111380535D01*
X140176005Y-111151727D01*
X140208000Y-111074485D01*
X140239995Y-111151727D01*
X140392880Y-111380535D01*
X140587465Y-111575120D01*
X140816273Y-111728005D01*
X141070510Y-111833314D01*
X141340408Y-111887000D01*
X141615592Y-111887000D01*
X141885490Y-111833314D01*
X142139727Y-111728005D01*
X142368535Y-111575120D01*
X142563120Y-111380535D01*
X142716005Y-111151727D01*
X142748000Y-111074485D01*
X142779995Y-111151727D01*
X142932880Y-111380535D01*
X143127465Y-111575120D01*
X143356273Y-111728005D01*
X143610510Y-111833314D01*
X143880408Y-111887000D01*
X144155592Y-111887000D01*
X144425490Y-111833314D01*
X144679727Y-111728005D01*
X144908535Y-111575120D01*
X145103120Y-111380535D01*
X145256005Y-111151727D01*
X145288000Y-111074485D01*
X145319995Y-111151727D01*
X145472880Y-111380535D01*
X145667465Y-111575120D01*
X145896273Y-111728005D01*
X146150510Y-111833314D01*
X146420408Y-111887000D01*
X146695592Y-111887000D01*
X146965490Y-111833314D01*
X147219727Y-111728005D01*
X147448535Y-111575120D01*
X147643120Y-111380535D01*
X147796005Y-111151727D01*
X147828000Y-111074485D01*
X147859995Y-111151727D01*
X148012880Y-111380535D01*
X148207465Y-111575120D01*
X148436273Y-111728005D01*
X148690510Y-111833314D01*
X148960408Y-111887000D01*
X149235592Y-111887000D01*
X149505490Y-111833314D01*
X149759727Y-111728005D01*
X149988535Y-111575120D01*
X150183120Y-111380535D01*
X150336005Y-111151727D01*
X150368000Y-111074485D01*
X150399995Y-111151727D01*
X150552880Y-111380535D01*
X150747465Y-111575120D01*
X150976273Y-111728005D01*
X151230510Y-111833314D01*
X151500408Y-111887000D01*
X151775592Y-111887000D01*
X152045490Y-111833314D01*
X152299727Y-111728005D01*
X152528535Y-111575120D01*
X152723120Y-111380535D01*
X152876005Y-111151727D01*
X152908000Y-111074485D01*
X152939995Y-111151727D01*
X153092880Y-111380535D01*
X153287465Y-111575120D01*
X153516273Y-111728005D01*
X153770510Y-111833314D01*
X154040408Y-111887000D01*
X154315592Y-111887000D01*
X154585490Y-111833314D01*
X154839727Y-111728005D01*
X155068535Y-111575120D01*
X155263120Y-111380535D01*
X155416005Y-111151727D01*
X155448000Y-111074485D01*
X155479995Y-111151727D01*
X155632880Y-111380535D01*
X155827465Y-111575120D01*
X156056273Y-111728005D01*
X156310510Y-111833314D01*
X156580408Y-111887000D01*
X156855592Y-111887000D01*
X157125490Y-111833314D01*
X157379727Y-111728005D01*
X157608535Y-111575120D01*
X157803120Y-111380535D01*
X157956005Y-111151727D01*
X157988000Y-111074485D01*
X158019995Y-111151727D01*
X158172880Y-111380535D01*
X158367465Y-111575120D01*
X158596273Y-111728005D01*
X158850510Y-111833314D01*
X159120408Y-111887000D01*
X159395592Y-111887000D01*
X159665490Y-111833314D01*
X159919727Y-111728005D01*
X160148535Y-111575120D01*
X160343120Y-111380535D01*
X160496005Y-111151727D01*
X160528000Y-111074485D01*
X160559995Y-111151727D01*
X160712880Y-111380535D01*
X160907465Y-111575120D01*
X161136273Y-111728005D01*
X161390510Y-111833314D01*
X161660408Y-111887000D01*
X161935592Y-111887000D01*
X162205490Y-111833314D01*
X162459727Y-111728005D01*
X162688535Y-111575120D01*
X162808090Y-111455565D01*
X163552040Y-111455565D01*
X163619020Y-111695656D01*
X163868048Y-111812756D01*
X164135135Y-111879023D01*
X164410017Y-111891910D01*
X164682133Y-111850922D01*
X164941023Y-111757636D01*
X165056980Y-111695656D01*
X165123960Y-111455565D01*
X164338000Y-110669605D01*
X163552040Y-111455565D01*
X162808090Y-111455565D01*
X162883120Y-111380535D01*
X163036005Y-111151727D01*
X163065692Y-111080057D01*
X163070364Y-111093023D01*
X163132344Y-111208980D01*
X163372435Y-111275960D01*
X164158395Y-110490000D01*
X163372435Y-109704040D01*
X163132344Y-109771020D01*
X163068515Y-109906760D01*
X163036005Y-109828273D01*
X162883120Y-109599465D01*
X162808090Y-109524435D01*
X163552040Y-109524435D01*
X164338000Y-110310395D01*
X165123960Y-109524435D01*
X165056980Y-109284344D01*
X164807952Y-109167244D01*
X164540865Y-109100977D01*
X164265983Y-109088090D01*
X163993867Y-109129078D01*
X163734977Y-109222364D01*
X163619020Y-109284344D01*
X163552040Y-109524435D01*
X162808090Y-109524435D01*
X162688535Y-109404880D01*
X162459727Y-109251995D01*
X162205490Y-109146686D01*
X161935592Y-109093000D01*
X161660408Y-109093000D01*
X161390510Y-109146686D01*
X161136273Y-109251995D01*
X160907465Y-109404880D01*
X160712880Y-109599465D01*
X160559995Y-109828273D01*
X160528000Y-109905515D01*
X160496005Y-109828273D01*
X160343120Y-109599465D01*
X160148535Y-109404880D01*
X159919727Y-109251995D01*
X159665490Y-109146686D01*
X159395592Y-109093000D01*
X159120408Y-109093000D01*
X158850510Y-109146686D01*
X158596273Y-109251995D01*
X158367465Y-109404880D01*
X158172880Y-109599465D01*
X158019995Y-109828273D01*
X157988000Y-109905515D01*
X157956005Y-109828273D01*
X157803120Y-109599465D01*
X157608535Y-109404880D01*
X157379727Y-109251995D01*
X157125490Y-109146686D01*
X156855592Y-109093000D01*
X156580408Y-109093000D01*
X156310510Y-109146686D01*
X156056273Y-109251995D01*
X155827465Y-109404880D01*
X155632880Y-109599465D01*
X155479995Y-109828273D01*
X155448000Y-109905515D01*
X155416005Y-109828273D01*
X155263120Y-109599465D01*
X155068535Y-109404880D01*
X154839727Y-109251995D01*
X154585490Y-109146686D01*
X154315592Y-109093000D01*
X154040408Y-109093000D01*
X153770510Y-109146686D01*
X153516273Y-109251995D01*
X153287465Y-109404880D01*
X153092880Y-109599465D01*
X152939995Y-109828273D01*
X152908000Y-109905515D01*
X152876005Y-109828273D01*
X152723120Y-109599465D01*
X152528535Y-109404880D01*
X152299727Y-109251995D01*
X152045490Y-109146686D01*
X151775592Y-109093000D01*
X151500408Y-109093000D01*
X151230510Y-109146686D01*
X150976273Y-109251995D01*
X150747465Y-109404880D01*
X150552880Y-109599465D01*
X150399995Y-109828273D01*
X150368000Y-109905515D01*
X150336005Y-109828273D01*
X150183120Y-109599465D01*
X149988535Y-109404880D01*
X149759727Y-109251995D01*
X149505490Y-109146686D01*
X149235592Y-109093000D01*
X148960408Y-109093000D01*
X148690510Y-109146686D01*
X148436273Y-109251995D01*
X148207465Y-109404880D01*
X148012880Y-109599465D01*
X147859995Y-109828273D01*
X147828000Y-109905515D01*
X147796005Y-109828273D01*
X147643120Y-109599465D01*
X147448535Y-109404880D01*
X147219727Y-109251995D01*
X146965490Y-109146686D01*
X146695592Y-109093000D01*
X146420408Y-109093000D01*
X146150510Y-109146686D01*
X145896273Y-109251995D01*
X145667465Y-109404880D01*
X145472880Y-109599465D01*
X145319995Y-109828273D01*
X145288000Y-109905515D01*
X145256005Y-109828273D01*
X145103120Y-109599465D01*
X144908535Y-109404880D01*
X144679727Y-109251995D01*
X144425490Y-109146686D01*
X144155592Y-109093000D01*
X143880408Y-109093000D01*
X143610510Y-109146686D01*
X143356273Y-109251995D01*
X143127465Y-109404880D01*
X142932880Y-109599465D01*
X142779995Y-109828273D01*
X142748000Y-109905515D01*
X142716005Y-109828273D01*
X142563120Y-109599465D01*
X142368535Y-109404880D01*
X142139727Y-109251995D01*
X141885490Y-109146686D01*
X141615592Y-109093000D01*
X141340408Y-109093000D01*
X141070510Y-109146686D01*
X140816273Y-109251995D01*
X140587465Y-109404880D01*
X140392880Y-109599465D01*
X140239995Y-109828273D01*
X140208000Y-109905515D01*
X140176005Y-109828273D01*
X140023120Y-109599465D01*
X139828535Y-109404880D01*
X139599727Y-109251995D01*
X139345490Y-109146686D01*
X139075592Y-109093000D01*
X138800408Y-109093000D01*
X138530510Y-109146686D01*
X138276273Y-109251995D01*
X138047465Y-109404880D01*
X137852880Y-109599465D01*
X137699995Y-109828273D01*
X137668000Y-109905515D01*
X137636005Y-109828273D01*
X137483120Y-109599465D01*
X137288535Y-109404880D01*
X137059727Y-109251995D01*
X136805490Y-109146686D01*
X136535592Y-109093000D01*
X136260408Y-109093000D01*
X135990510Y-109146686D01*
X135736273Y-109251995D01*
X135507465Y-109404880D01*
X135312880Y-109599465D01*
X135159995Y-109828273D01*
X135128000Y-109905515D01*
X135096005Y-109828273D01*
X134943120Y-109599465D01*
X134748535Y-109404880D01*
X134519727Y-109251995D01*
X134265490Y-109146686D01*
X133995592Y-109093000D01*
X133720408Y-109093000D01*
X133450510Y-109146686D01*
X133196273Y-109251995D01*
X132967465Y-109404880D01*
X132772880Y-109599465D01*
X132714080Y-109687465D01*
X132705812Y-109603518D01*
X132669502Y-109483820D01*
X132610537Y-109373506D01*
X132531185Y-109276815D01*
X132434494Y-109197463D01*
X132324180Y-109138498D01*
X132204482Y-109102188D01*
X132080000Y-109089928D01*
X130556000Y-109089928D01*
X130431518Y-109102188D01*
X130311820Y-109138498D01*
X130201506Y-109197463D01*
X130104815Y-109276815D01*
X130025463Y-109373506D01*
X129966498Y-109483820D01*
X129930188Y-109603518D01*
X129917928Y-109728000D01*
X123439053Y-109728000D01*
X123437739Y-109721399D01*
X123239107Y-109241859D01*
X122950738Y-108810285D01*
X122583715Y-108443262D01*
X122152141Y-108154893D01*
X121672601Y-107956261D01*
X121163525Y-107855000D01*
X120644475Y-107855000D01*
X120135399Y-107956261D01*
X119655859Y-108154893D01*
X119224285Y-108443262D01*
X118857262Y-108810285D01*
X118568893Y-109241859D01*
X118370261Y-109721399D01*
X118269000Y-110230475D01*
X115493000Y-110230475D01*
X115493000Y-102340000D01*
X116399928Y-102340000D01*
X116399928Y-103140000D01*
X116412188Y-103264482D01*
X116448498Y-103384180D01*
X116507463Y-103494494D01*
X116586815Y-103591185D01*
X116683506Y-103670537D01*
X116793820Y-103729502D01*
X116913518Y-103765812D01*
X117038000Y-103778072D01*
X118138000Y-103778072D01*
X118262482Y-103765812D01*
X118382180Y-103729502D01*
X118492494Y-103670537D01*
X118589185Y-103591185D01*
X118668537Y-103494494D01*
X118727502Y-103384180D01*
X118763812Y-103264482D01*
X118776072Y-103140000D01*
X118776072Y-102340000D01*
X118763812Y-102215518D01*
X118727502Y-102095820D01*
X118668537Y-101985506D01*
X118589185Y-101888815D01*
X118492494Y-101809463D01*
X118382180Y-101750498D01*
X118262482Y-101714188D01*
X118138000Y-101701928D01*
X117038000Y-101701928D01*
X116913518Y-101714188D01*
X116793820Y-101750498D01*
X116683506Y-101809463D01*
X116586815Y-101888815D01*
X116507463Y-101985506D01*
X116448498Y-102095820D01*
X116412188Y-102215518D01*
X116399928Y-102340000D01*
X115493000Y-102340000D01*
X115493000Y-93915000D01*
X118849928Y-93915000D01*
X118849928Y-94165000D01*
X118862188Y-94289482D01*
X118862345Y-94290000D01*
X118862188Y-94290518D01*
X118849928Y-94415000D01*
X118849928Y-94665000D01*
X118862188Y-94789482D01*
X118862345Y-94790000D01*
X118862188Y-94790518D01*
X118849928Y-94915000D01*
X118849928Y-95165000D01*
X118862188Y-95289482D01*
X118862345Y-95290000D01*
X118862188Y-95290518D01*
X118849928Y-95415000D01*
X118849928Y-95665000D01*
X118862188Y-95789482D01*
X118862345Y-95790000D01*
X118862188Y-95790518D01*
X118849928Y-95915000D01*
X118849928Y-96165000D01*
X118862188Y-96289482D01*
X118862345Y-96290000D01*
X118862188Y-96290518D01*
X118849928Y-96415000D01*
X118849928Y-96665000D01*
X118862188Y-96789482D01*
X118862345Y-96790000D01*
X118862188Y-96790518D01*
X118849928Y-96915000D01*
X118849928Y-97165000D01*
X118862188Y-97289482D01*
X118862345Y-97290000D01*
X118862188Y-97290518D01*
X118849928Y-97415000D01*
X118849928Y-97665000D01*
X118862188Y-97789482D01*
X118862345Y-97790000D01*
X118862188Y-97790518D01*
X118849928Y-97915000D01*
X118849928Y-98165000D01*
X118862188Y-98289482D01*
X118862345Y-98290000D01*
X118862188Y-98290518D01*
X118849928Y-98415000D01*
X118849928Y-98665000D01*
X118862188Y-98789482D01*
X118863278Y-98793077D01*
X118853000Y-98881250D01*
X118918672Y-98946922D01*
X118957463Y-99019494D01*
X118973633Y-99039197D01*
X118965944Y-99048130D01*
X118916983Y-99134767D01*
X118853000Y-99198750D01*
X118863637Y-99290000D01*
X118853000Y-99381250D01*
X118916983Y-99445233D01*
X118965944Y-99531870D01*
X118972942Y-99540000D01*
X118965944Y-99548130D01*
X118916983Y-99634767D01*
X118853000Y-99698750D01*
X118863637Y-99790000D01*
X118853000Y-99881250D01*
X118916983Y-99945233D01*
X118965944Y-100031870D01*
X118973633Y-100040803D01*
X118957463Y-100060506D01*
X118918672Y-100133078D01*
X118853000Y-100198750D01*
X118863278Y-100286923D01*
X118862188Y-100290518D01*
X118849928Y-100415000D01*
X118849928Y-100665000D01*
X118862188Y-100789482D01*
X118862345Y-100790000D01*
X118862188Y-100790518D01*
X118849928Y-100915000D01*
X118849928Y-101165000D01*
X118862188Y-101289482D01*
X118862345Y-101290000D01*
X118862188Y-101290518D01*
X118849928Y-101415000D01*
X118849928Y-101665000D01*
X118862188Y-101789482D01*
X118898498Y-101909180D01*
X118957463Y-102019494D01*
X119036815Y-102116185D01*
X119133506Y-102195537D01*
X119243820Y-102254502D01*
X119363518Y-102290812D01*
X119488000Y-102303072D01*
X120288000Y-102303072D01*
X120298885Y-102302000D01*
X121942577Y-102302000D01*
X121980000Y-102305686D01*
X122017423Y-102302000D01*
X122017426Y-102302000D01*
X122129378Y-102290974D01*
X122273015Y-102247402D01*
X122307986Y-102228709D01*
X122371854Y-102235000D01*
X159546555Y-102235000D01*
X165735001Y-108423447D01*
X165735000Y-109686088D01*
X165639995Y-109828273D01*
X165610308Y-109899943D01*
X165605636Y-109886977D01*
X165543656Y-109771020D01*
X165303565Y-109704040D01*
X164517605Y-110490000D01*
X165303565Y-111275960D01*
X165543656Y-111208980D01*
X165607485Y-111073240D01*
X165639995Y-111151727D01*
X165792880Y-111380535D01*
X165987465Y-111575120D01*
X166216273Y-111728005D01*
X166470510Y-111833314D01*
X166740408Y-111887000D01*
X167015592Y-111887000D01*
X167285490Y-111833314D01*
X167539727Y-111728005D01*
X167768535Y-111575120D01*
X167963120Y-111380535D01*
X168116005Y-111151727D01*
X168221314Y-110897490D01*
X168275000Y-110627592D01*
X168275000Y-110352408D01*
X168250747Y-110230475D01*
X178467000Y-110230475D01*
X178467000Y-110749525D01*
X178568261Y-111258601D01*
X178766893Y-111738141D01*
X179055262Y-112169715D01*
X179422285Y-112536738D01*
X179853859Y-112825107D01*
X180333399Y-113023739D01*
X180842475Y-113125000D01*
X181361525Y-113125000D01*
X181870601Y-113023739D01*
X182350141Y-112825107D01*
X182781715Y-112536738D01*
X183148738Y-112169715D01*
X183437107Y-111738141D01*
X183635739Y-111258601D01*
X183737000Y-110749525D01*
X183737000Y-110230475D01*
X183635739Y-109721399D01*
X183437107Y-109241859D01*
X183148738Y-108810285D01*
X182781715Y-108443262D01*
X182350141Y-108154893D01*
X181870601Y-107956261D01*
X181361525Y-107855000D01*
X180842475Y-107855000D01*
X180333399Y-107956261D01*
X179853859Y-108154893D01*
X179422285Y-108443262D01*
X179055262Y-108810285D01*
X178766893Y-109241859D01*
X178568261Y-109721399D01*
X178467000Y-110230475D01*
X168250747Y-110230475D01*
X168221314Y-110082510D01*
X168116005Y-109828273D01*
X168021000Y-109686088D01*
X168021000Y-108006139D01*
X168026529Y-107950000D01*
X168021000Y-107893861D01*
X168021000Y-107893854D01*
X168004461Y-107725933D01*
X167939103Y-107510477D01*
X167939103Y-107510476D01*
X167902133Y-107441311D01*
X167832968Y-107311911D01*
X167690133Y-107137867D01*
X167646523Y-107102077D01*
X160867928Y-100323482D01*
X160832133Y-100279867D01*
X160658089Y-100137032D01*
X160459523Y-100030897D01*
X160244067Y-99965539D01*
X160076146Y-99949000D01*
X160076139Y-99949000D01*
X160020000Y-99943471D01*
X159963861Y-99949000D01*
X131283445Y-99949000D01*
X131911924Y-99320522D01*
X132018967Y-99190089D01*
X132125102Y-98991524D01*
X132190461Y-98776068D01*
X132212529Y-98552000D01*
X132190461Y-98327933D01*
X132125102Y-98112477D01*
X132018967Y-97913912D01*
X131876133Y-97739867D01*
X131702088Y-97597033D01*
X131503523Y-97490898D01*
X131288067Y-97425539D01*
X131064000Y-97403471D01*
X130839932Y-97425539D01*
X130624476Y-97490898D01*
X130425911Y-97597033D01*
X130295478Y-97704076D01*
X129574555Y-98425000D01*
X128040468Y-98425000D01*
X128167774Y-98339937D01*
X128311937Y-98195774D01*
X128425205Y-98026256D01*
X128503226Y-97837898D01*
X128543000Y-97637939D01*
X128543000Y-97434061D01*
X128512753Y-97282000D01*
X136458289Y-97282000D01*
X136500226Y-97323937D01*
X136669744Y-97437205D01*
X136858102Y-97515226D01*
X137058061Y-97555000D01*
X137261939Y-97555000D01*
X137461898Y-97515226D01*
X137650256Y-97437205D01*
X137819774Y-97323937D01*
X137963937Y-97179774D01*
X138077205Y-97010256D01*
X138155226Y-96821898D01*
X138195000Y-96621939D01*
X138195000Y-96418061D01*
X138155226Y-96218102D01*
X138077205Y-96029744D01*
X137963937Y-95860226D01*
X137819774Y-95716063D01*
X137650256Y-95602795D01*
X137461898Y-95524774D01*
X137261939Y-95485000D01*
X137058061Y-95485000D01*
X136858102Y-95524774D01*
X136669744Y-95602795D01*
X136587335Y-95657859D01*
X136631226Y-95551898D01*
X136671000Y-95351939D01*
X136671000Y-95148061D01*
X136631226Y-94948102D01*
X136553205Y-94759744D01*
X136439937Y-94590226D01*
X136295774Y-94446063D01*
X136126256Y-94332795D01*
X135937898Y-94254774D01*
X135737939Y-94215000D01*
X135534061Y-94215000D01*
X135334102Y-94254774D01*
X135145744Y-94332795D01*
X134976226Y-94446063D01*
X134832063Y-94590226D01*
X134718795Y-94759744D01*
X134640774Y-94948102D01*
X134601000Y-95148061D01*
X134601000Y-95207370D01*
X134558370Y-95250000D01*
X132576753Y-95250000D01*
X132607000Y-95097939D01*
X132607000Y-94894061D01*
X132567226Y-94694102D01*
X132489205Y-94505744D01*
X132375937Y-94336226D01*
X132231774Y-94192063D01*
X132062256Y-94078795D01*
X131873898Y-94000774D01*
X131673939Y-93961000D01*
X131470061Y-93961000D01*
X131270102Y-94000774D01*
X131081744Y-94078795D01*
X130912226Y-94192063D01*
X130768063Y-94336226D01*
X130654795Y-94505744D01*
X130576774Y-94694102D01*
X130567247Y-94742000D01*
X127315630Y-94742000D01*
X129855631Y-92202000D01*
X142046289Y-92202000D01*
X142088226Y-92243937D01*
X142257744Y-92357205D01*
X142446102Y-92435226D01*
X142646061Y-92475000D01*
X142849939Y-92475000D01*
X143049898Y-92435226D01*
X143238256Y-92357205D01*
X143407774Y-92243937D01*
X143510000Y-92141711D01*
X143612226Y-92243937D01*
X143781744Y-92357205D01*
X143970102Y-92435226D01*
X144170061Y-92475000D01*
X144373939Y-92475000D01*
X144573898Y-92435226D01*
X144762256Y-92357205D01*
X144931774Y-92243937D01*
X145034000Y-92141711D01*
X145136226Y-92243937D01*
X145305744Y-92357205D01*
X145494102Y-92435226D01*
X145694061Y-92475000D01*
X145897939Y-92475000D01*
X146097898Y-92435226D01*
X146286256Y-92357205D01*
X146455774Y-92243937D01*
X146558000Y-92141711D01*
X146660226Y-92243937D01*
X146829744Y-92357205D01*
X147018102Y-92435226D01*
X147218061Y-92475000D01*
X147421939Y-92475000D01*
X147621898Y-92435226D01*
X147810256Y-92357205D01*
X147979774Y-92243937D01*
X148123937Y-92099774D01*
X148237205Y-91930256D01*
X148315226Y-91741898D01*
X148355000Y-91541939D01*
X148355000Y-91338061D01*
X148315226Y-91138102D01*
X148237205Y-90949744D01*
X148123937Y-90780226D01*
X148082000Y-90738289D01*
X148082000Y-89699422D01*
X148085686Y-89661999D01*
X148082000Y-89624574D01*
X148070974Y-89512622D01*
X148027402Y-89368985D01*
X147956645Y-89236608D01*
X147861422Y-89120578D01*
X147832353Y-89096722D01*
X146615284Y-87879654D01*
X146591422Y-87850578D01*
X146475392Y-87755355D01*
X146343015Y-87684598D01*
X146199378Y-87641026D01*
X146087426Y-87630000D01*
X146087423Y-87630000D01*
X146050000Y-87626314D01*
X146012577Y-87630000D01*
X129831423Y-87630000D01*
X129794000Y-87626314D01*
X129756577Y-87630000D01*
X129756574Y-87630000D01*
X129644622Y-87641026D01*
X129500985Y-87684598D01*
X129439364Y-87717535D01*
X129368607Y-87755355D01*
X129285904Y-87823228D01*
X129252578Y-87850578D01*
X129228721Y-87879648D01*
X123330370Y-93778000D01*
X120910015Y-93778000D01*
X120877502Y-93670820D01*
X120818537Y-93560506D01*
X120739185Y-93463815D01*
X120642494Y-93384463D01*
X120532180Y-93325498D01*
X120412482Y-93289188D01*
X120288000Y-93276928D01*
X119488000Y-93276928D01*
X119363518Y-93289188D01*
X119243820Y-93325498D01*
X119133506Y-93384463D01*
X119036815Y-93463815D01*
X118957463Y-93560506D01*
X118898498Y-93670820D01*
X118862188Y-93790518D01*
X118849928Y-93915000D01*
X115493000Y-93915000D01*
X115493000Y-92440000D01*
X116399928Y-92440000D01*
X116399928Y-93240000D01*
X116412188Y-93364482D01*
X116448498Y-93484180D01*
X116507463Y-93594494D01*
X116586815Y-93691185D01*
X116683506Y-93770537D01*
X116793820Y-93829502D01*
X116913518Y-93865812D01*
X117038000Y-93878072D01*
X118138000Y-93878072D01*
X118262482Y-93865812D01*
X118382180Y-93829502D01*
X118492494Y-93770537D01*
X118589185Y-93691185D01*
X118668537Y-93594494D01*
X118727502Y-93484180D01*
X118763812Y-93364482D01*
X118776072Y-93240000D01*
X118776072Y-92440000D01*
X118763812Y-92315518D01*
X118727502Y-92195820D01*
X118668537Y-92085506D01*
X118589185Y-91988815D01*
X118492494Y-91909463D01*
X118382180Y-91850498D01*
X118262482Y-91814188D01*
X118138000Y-91801928D01*
X117038000Y-91801928D01*
X116913518Y-91814188D01*
X116793820Y-91850498D01*
X116683506Y-91909463D01*
X116586815Y-91988815D01*
X116507463Y-92085506D01*
X116448498Y-92195820D01*
X116412188Y-92315518D01*
X116399928Y-92440000D01*
X115493000Y-92440000D01*
X115493000Y-84830475D01*
X118269000Y-84830475D01*
X118269000Y-85349525D01*
X118370261Y-85858601D01*
X118568893Y-86338141D01*
X118857262Y-86769715D01*
X119224285Y-87136738D01*
X119655859Y-87425107D01*
X120135399Y-87623739D01*
X120644475Y-87725000D01*
X121163525Y-87725000D01*
X121672601Y-87623739D01*
X122152141Y-87425107D01*
X122583715Y-87136738D01*
X122950738Y-86769715D01*
X123239107Y-86338141D01*
X123437739Y-85858601D01*
X123539000Y-85349525D01*
X123539000Y-84952408D01*
X129921000Y-84952408D01*
X129921000Y-85227592D01*
X129974686Y-85497490D01*
X130079995Y-85751727D01*
X130232880Y-85980535D01*
X130427465Y-86175120D01*
X130656273Y-86328005D01*
X130910510Y-86433314D01*
X131180408Y-86487000D01*
X131455592Y-86487000D01*
X131725490Y-86433314D01*
X131979727Y-86328005D01*
X132208535Y-86175120D01*
X132403120Y-85980535D01*
X132556005Y-85751727D01*
X132588000Y-85674485D01*
X132619995Y-85751727D01*
X132772880Y-85980535D01*
X132967465Y-86175120D01*
X133196273Y-86328005D01*
X133450510Y-86433314D01*
X133720408Y-86487000D01*
X133995592Y-86487000D01*
X134265490Y-86433314D01*
X134519727Y-86328005D01*
X134748535Y-86175120D01*
X134943120Y-85980535D01*
X135096005Y-85751727D01*
X135128000Y-85674485D01*
X135159995Y-85751727D01*
X135312880Y-85980535D01*
X135507465Y-86175120D01*
X135736273Y-86328005D01*
X135990510Y-86433314D01*
X136260408Y-86487000D01*
X136535592Y-86487000D01*
X136805490Y-86433314D01*
X137059727Y-86328005D01*
X137288535Y-86175120D01*
X137483120Y-85980535D01*
X137636005Y-85751727D01*
X137668000Y-85674485D01*
X137699995Y-85751727D01*
X137852880Y-85980535D01*
X138047465Y-86175120D01*
X138276273Y-86328005D01*
X138530510Y-86433314D01*
X138800408Y-86487000D01*
X139075592Y-86487000D01*
X139345490Y-86433314D01*
X139599727Y-86328005D01*
X139828535Y-86175120D01*
X140023120Y-85980535D01*
X140176005Y-85751727D01*
X140208000Y-85674485D01*
X140239995Y-85751727D01*
X140392880Y-85980535D01*
X140587465Y-86175120D01*
X140816273Y-86328005D01*
X141070510Y-86433314D01*
X141340408Y-86487000D01*
X141615592Y-86487000D01*
X141885490Y-86433314D01*
X142139727Y-86328005D01*
X142368535Y-86175120D01*
X142563120Y-85980535D01*
X142716005Y-85751727D01*
X142748000Y-85674485D01*
X142779995Y-85751727D01*
X142932880Y-85980535D01*
X143127465Y-86175120D01*
X143356273Y-86328005D01*
X143610510Y-86433314D01*
X143880408Y-86487000D01*
X144155592Y-86487000D01*
X144425490Y-86433314D01*
X144679727Y-86328005D01*
X144908535Y-86175120D01*
X145103120Y-85980535D01*
X145256005Y-85751727D01*
X145288000Y-85674485D01*
X145319995Y-85751727D01*
X145472880Y-85980535D01*
X145667465Y-86175120D01*
X145896273Y-86328005D01*
X146150510Y-86433314D01*
X146420408Y-86487000D01*
X146695592Y-86487000D01*
X146965490Y-86433314D01*
X147219727Y-86328005D01*
X147448535Y-86175120D01*
X147643120Y-85980535D01*
X147796005Y-85751727D01*
X147828000Y-85674485D01*
X147859995Y-85751727D01*
X148012880Y-85980535D01*
X148207465Y-86175120D01*
X148436273Y-86328005D01*
X148690510Y-86433314D01*
X148960408Y-86487000D01*
X149235592Y-86487000D01*
X149505490Y-86433314D01*
X149759727Y-86328005D01*
X149988535Y-86175120D01*
X150183120Y-85980535D01*
X150336005Y-85751727D01*
X150368000Y-85674485D01*
X150399995Y-85751727D01*
X150552880Y-85980535D01*
X150747465Y-86175120D01*
X150976273Y-86328005D01*
X151230510Y-86433314D01*
X151500408Y-86487000D01*
X151775592Y-86487000D01*
X152045490Y-86433314D01*
X152299727Y-86328005D01*
X152528535Y-86175120D01*
X152723120Y-85980535D01*
X152876005Y-85751727D01*
X152908000Y-85674485D01*
X152939995Y-85751727D01*
X153092880Y-85980535D01*
X153287465Y-86175120D01*
X153516273Y-86328005D01*
X153770510Y-86433314D01*
X154040408Y-86487000D01*
X154315592Y-86487000D01*
X154585490Y-86433314D01*
X154839727Y-86328005D01*
X155068535Y-86175120D01*
X155263120Y-85980535D01*
X155416005Y-85751727D01*
X155448000Y-85674485D01*
X155479995Y-85751727D01*
X155632880Y-85980535D01*
X155827465Y-86175120D01*
X156056273Y-86328005D01*
X156310510Y-86433314D01*
X156580408Y-86487000D01*
X156855592Y-86487000D01*
X157125490Y-86433314D01*
X157379727Y-86328005D01*
X157608535Y-86175120D01*
X157803120Y-85980535D01*
X157956005Y-85751727D01*
X157988000Y-85674485D01*
X158019995Y-85751727D01*
X158172880Y-85980535D01*
X158367465Y-86175120D01*
X158596273Y-86328005D01*
X158850510Y-86433314D01*
X159120408Y-86487000D01*
X159395592Y-86487000D01*
X159665490Y-86433314D01*
X159919727Y-86328005D01*
X160148535Y-86175120D01*
X160343120Y-85980535D01*
X160496005Y-85751727D01*
X160528000Y-85674485D01*
X160559995Y-85751727D01*
X160712880Y-85980535D01*
X160907465Y-86175120D01*
X161136273Y-86328005D01*
X161390510Y-86433314D01*
X161660408Y-86487000D01*
X161935592Y-86487000D01*
X162205490Y-86433314D01*
X162459727Y-86328005D01*
X162688535Y-86175120D01*
X162808090Y-86055565D01*
X163552040Y-86055565D01*
X163619020Y-86295656D01*
X163868048Y-86412756D01*
X164135135Y-86479023D01*
X164410017Y-86491910D01*
X164682133Y-86450922D01*
X164941023Y-86357636D01*
X165056980Y-86295656D01*
X165123960Y-86055565D01*
X164338000Y-85269605D01*
X163552040Y-86055565D01*
X162808090Y-86055565D01*
X162883120Y-85980535D01*
X163036005Y-85751727D01*
X163065692Y-85680057D01*
X163070364Y-85693023D01*
X163132344Y-85808980D01*
X163372435Y-85875960D01*
X164158395Y-85090000D01*
X164517605Y-85090000D01*
X165303565Y-85875960D01*
X165543656Y-85808980D01*
X165607485Y-85673240D01*
X165639995Y-85751727D01*
X165792880Y-85980535D01*
X165987465Y-86175120D01*
X166216273Y-86328005D01*
X166470510Y-86433314D01*
X166740408Y-86487000D01*
X167015592Y-86487000D01*
X167285490Y-86433314D01*
X167539727Y-86328005D01*
X167768535Y-86175120D01*
X167963120Y-85980535D01*
X168116005Y-85751727D01*
X168221314Y-85497490D01*
X168275000Y-85227592D01*
X168275000Y-84952408D01*
X168250747Y-84830475D01*
X178467000Y-84830475D01*
X178467000Y-85349525D01*
X178568261Y-85858601D01*
X178766893Y-86338141D01*
X179055262Y-86769715D01*
X179422285Y-87136738D01*
X179853859Y-87425107D01*
X180333399Y-87623739D01*
X180842475Y-87725000D01*
X181361525Y-87725000D01*
X181870601Y-87623739D01*
X182350141Y-87425107D01*
X182781715Y-87136738D01*
X183148738Y-86769715D01*
X183437107Y-86338141D01*
X183635739Y-85858601D01*
X183737000Y-85349525D01*
X183737000Y-84830475D01*
X183635739Y-84321399D01*
X183437107Y-83841859D01*
X183148738Y-83410285D01*
X182781715Y-83043262D01*
X182350141Y-82754893D01*
X181870601Y-82556261D01*
X181361525Y-82455000D01*
X180842475Y-82455000D01*
X180333399Y-82556261D01*
X179853859Y-82754893D01*
X179422285Y-83043262D01*
X179055262Y-83410285D01*
X178766893Y-83841859D01*
X178568261Y-84321399D01*
X178467000Y-84830475D01*
X168250747Y-84830475D01*
X168221314Y-84682510D01*
X168116005Y-84428273D01*
X167963120Y-84199465D01*
X167768535Y-84004880D01*
X167539727Y-83851995D01*
X167285490Y-83746686D01*
X167015592Y-83693000D01*
X166740408Y-83693000D01*
X166470510Y-83746686D01*
X166216273Y-83851995D01*
X165987465Y-84004880D01*
X165792880Y-84199465D01*
X165639995Y-84428273D01*
X165610308Y-84499943D01*
X165605636Y-84486977D01*
X165543656Y-84371020D01*
X165303565Y-84304040D01*
X164517605Y-85090000D01*
X164158395Y-85090000D01*
X163372435Y-84304040D01*
X163132344Y-84371020D01*
X163068515Y-84506760D01*
X163036005Y-84428273D01*
X162883120Y-84199465D01*
X162808090Y-84124435D01*
X163552040Y-84124435D01*
X164338000Y-84910395D01*
X165123960Y-84124435D01*
X165056980Y-83884344D01*
X164807952Y-83767244D01*
X164540865Y-83700977D01*
X164265983Y-83688090D01*
X163993867Y-83729078D01*
X163734977Y-83822364D01*
X163619020Y-83884344D01*
X163552040Y-84124435D01*
X162808090Y-84124435D01*
X162688535Y-84004880D01*
X162459727Y-83851995D01*
X162205490Y-83746686D01*
X161935592Y-83693000D01*
X161660408Y-83693000D01*
X161390510Y-83746686D01*
X161136273Y-83851995D01*
X160907465Y-84004880D01*
X160712880Y-84199465D01*
X160559995Y-84428273D01*
X160528000Y-84505515D01*
X160496005Y-84428273D01*
X160343120Y-84199465D01*
X160148535Y-84004880D01*
X159919727Y-83851995D01*
X159665490Y-83746686D01*
X159395592Y-83693000D01*
X159120408Y-83693000D01*
X158850510Y-83746686D01*
X158596273Y-83851995D01*
X158367465Y-84004880D01*
X158172880Y-84199465D01*
X158019995Y-84428273D01*
X157988000Y-84505515D01*
X157956005Y-84428273D01*
X157803120Y-84199465D01*
X157608535Y-84004880D01*
X157379727Y-83851995D01*
X157125490Y-83746686D01*
X156855592Y-83693000D01*
X156580408Y-83693000D01*
X156310510Y-83746686D01*
X156056273Y-83851995D01*
X155827465Y-84004880D01*
X155632880Y-84199465D01*
X155479995Y-84428273D01*
X155448000Y-84505515D01*
X155416005Y-84428273D01*
X155263120Y-84199465D01*
X155068535Y-84004880D01*
X154839727Y-83851995D01*
X154585490Y-83746686D01*
X154315592Y-83693000D01*
X154040408Y-83693000D01*
X153770510Y-83746686D01*
X153516273Y-83851995D01*
X153287465Y-84004880D01*
X153092880Y-84199465D01*
X152939995Y-84428273D01*
X152908000Y-84505515D01*
X152876005Y-84428273D01*
X152723120Y-84199465D01*
X152528535Y-84004880D01*
X152299727Y-83851995D01*
X152045490Y-83746686D01*
X151775592Y-83693000D01*
X151500408Y-83693000D01*
X151230510Y-83746686D01*
X150976273Y-83851995D01*
X150747465Y-84004880D01*
X150552880Y-84199465D01*
X150399995Y-84428273D01*
X150368000Y-84505515D01*
X150336005Y-84428273D01*
X150183120Y-84199465D01*
X149988535Y-84004880D01*
X149759727Y-83851995D01*
X149505490Y-83746686D01*
X149235592Y-83693000D01*
X148960408Y-83693000D01*
X148690510Y-83746686D01*
X148436273Y-83851995D01*
X148207465Y-84004880D01*
X148012880Y-84199465D01*
X147859995Y-84428273D01*
X147828000Y-84505515D01*
X147796005Y-84428273D01*
X147643120Y-84199465D01*
X147448535Y-84004880D01*
X147219727Y-83851995D01*
X146965490Y-83746686D01*
X146695592Y-83693000D01*
X146420408Y-83693000D01*
X146150510Y-83746686D01*
X145896273Y-83851995D01*
X145667465Y-84004880D01*
X145472880Y-84199465D01*
X145319995Y-84428273D01*
X145288000Y-84505515D01*
X145256005Y-84428273D01*
X145103120Y-84199465D01*
X144908535Y-84004880D01*
X144679727Y-83851995D01*
X144425490Y-83746686D01*
X144155592Y-83693000D01*
X143880408Y-83693000D01*
X143610510Y-83746686D01*
X143356273Y-83851995D01*
X143127465Y-84004880D01*
X142932880Y-84199465D01*
X142779995Y-84428273D01*
X142748000Y-84505515D01*
X142716005Y-84428273D01*
X142563120Y-84199465D01*
X142368535Y-84004880D01*
X142139727Y-83851995D01*
X141885490Y-83746686D01*
X141615592Y-83693000D01*
X141340408Y-83693000D01*
X141070510Y-83746686D01*
X140816273Y-83851995D01*
X140587465Y-84004880D01*
X140392880Y-84199465D01*
X140239995Y-84428273D01*
X140208000Y-84505515D01*
X140176005Y-84428273D01*
X140023120Y-84199465D01*
X139828535Y-84004880D01*
X139599727Y-83851995D01*
X139345490Y-83746686D01*
X139075592Y-83693000D01*
X138800408Y-83693000D01*
X138530510Y-83746686D01*
X138276273Y-83851995D01*
X138047465Y-84004880D01*
X137852880Y-84199465D01*
X137699995Y-84428273D01*
X137668000Y-84505515D01*
X137636005Y-84428273D01*
X137483120Y-84199465D01*
X137288535Y-84004880D01*
X137059727Y-83851995D01*
X136805490Y-83746686D01*
X136535592Y-83693000D01*
X136260408Y-83693000D01*
X135990510Y-83746686D01*
X135736273Y-83851995D01*
X135507465Y-84004880D01*
X135312880Y-84199465D01*
X135159995Y-84428273D01*
X135128000Y-84505515D01*
X135096005Y-84428273D01*
X134943120Y-84199465D01*
X134748535Y-84004880D01*
X134519727Y-83851995D01*
X134265490Y-83746686D01*
X133995592Y-83693000D01*
X133720408Y-83693000D01*
X133450510Y-83746686D01*
X133196273Y-83851995D01*
X132967465Y-84004880D01*
X132772880Y-84199465D01*
X132619995Y-84428273D01*
X132588000Y-84505515D01*
X132556005Y-84428273D01*
X132403120Y-84199465D01*
X132208535Y-84004880D01*
X131979727Y-83851995D01*
X131725490Y-83746686D01*
X131455592Y-83693000D01*
X131180408Y-83693000D01*
X130910510Y-83746686D01*
X130656273Y-83851995D01*
X130427465Y-84004880D01*
X130232880Y-84199465D01*
X130079995Y-84428273D01*
X129974686Y-84682510D01*
X129921000Y-84952408D01*
X123539000Y-84952408D01*
X123539000Y-84830475D01*
X123437739Y-84321399D01*
X123239107Y-83841859D01*
X122950738Y-83410285D01*
X122583715Y-83043262D01*
X122152141Y-82754893D01*
X121672601Y-82556261D01*
X121163525Y-82455000D01*
X120644475Y-82455000D01*
X120135399Y-82556261D01*
X119655859Y-82754893D01*
X119224285Y-83043262D01*
X118857262Y-83410285D01*
X118568893Y-83841859D01*
X118370261Y-84321399D01*
X118269000Y-84830475D01*
X115493000Y-84830475D01*
X115493000Y-80187000D01*
X186259001Y-80187000D01*
X186259000Y-114885000D01*
M02*
