M48
INCH,TZ
T1C0.0157
T2C0.0300
%
G90
G05
T1
X46600Y-39189
X48500Y-36200
X49100Y-40900
X50200Y-38400
X51600Y-38800
X51800Y-37400
X53400Y-37500
X54000Y-38000
X56200Y-36000
X56800Y-36000
X57400Y-36000
X58000Y-36000
T2
X51700Y-33500
X51700Y-43500
X52700Y-33500
X52700Y-43500
X53700Y-33500
X53700Y-43500
X54700Y-33500
X54700Y-43500
X55700Y-33500
X55700Y-43500
X56700Y-33500
X56700Y-43500
X57700Y-33500
X57700Y-43500
X58700Y-33500
X58700Y-43500
X59700Y-33500
X59700Y-43500
X60700Y-33500
X60700Y-43500
X61700Y-33500
X61700Y-43500
X62700Y-33500
X62700Y-43500
X63700Y-33500
X63700Y-43500
X64700Y-33500
X64700Y-43500
X65700Y-33500
X65700Y-43500
T0
M30
